<?xml version="1.0" encoding="UTF-8" standalone="no"?>
<!DOCTYPE svg PUBLIC "-//W3C//DTD SVG 1.1//EN" "http://www.w3.org/Graphics/SVG/1.1/DTD/svg11.dtd">
<svg width="100%" height="100%" viewBox="0 0 185 214" version="1.1" xmlns="http://www.w3.org/2000/svg" xmlns:xlink="http://www.w3.org/1999/xlink" xml:space="preserve" xmlns:serif="http://www.serif.com/" style="fill-rule:evenodd;clip-rule:evenodd;stroke-linejoin:round;stroke-miterlimit:2;">
    <g transform="matrix(1,0,0,1,-45.095,-33.158)">
        <path d="M229.516,83.138L216.196,33.357L141.595,33.357L141.595,33.158L63.803,33.158L50.484,82.939L64.686,93.415L65.43,93.774L65.272,197.047L65.799,198.022C66.395,199.126 81.053,225.288 138.405,245.907L138.405,246.159L139.613,246.593L139.691,246.644L139.722,246.632L140.31,246.843L141.255,246.229L141.595,246.107C198.947,225.487 213.604,199.326 214.2,198.223L214.729,197.246L214.569,93.973L215.313,93.616L229.516,83.138Z" style="fill:rgb(223,134,38);fill-rule:nonzero;"/>
        <path d="M227.693,82.5L214.973,34.952L140,34.952L140,34.752L65.027,34.752L52.306,82.301L65.513,92.043L67.026,92.772L66.867,196.645L67.202,197.265C67.787,198.347 82.161,223.991 138.945,244.406L139.459,244.592L139.896,244.875L140,244.838L140,245.037L140.104,245.074L140.541,244.791L141.055,244.606C197.839,224.191 212.213,198.546 212.797,197.465L213.133,196.844L212.973,92.971L214.486,92.243L227.693,82.5Z" style="fill:rgb(223,134,38);fill-rule:nonzero;"/>
        <path d="M190.603,142.321C190.603,138.589 188.736,131.985 188.736,131.985C193.689,138.158 190.603,142.321 190.603,142.321ZM75.592,191.467L75.592,173.976C77.219,177.42 79.994,179.86 79.994,179.86C75.683,183.894 75.593,191.025 75.592,191.467ZM204.455,87.269L204.455,119.425C197.421,107.51 184.119,101.624 184.119,101.624C167.61,73.585 136.747,88.417 136.747,88.417C94.879,79.086 88.225,109.998 88.225,109.998C77.602,116.314 80.186,127.225 80.186,127.225C77.219,129.234 75.592,130.67 75.592,130.67L75.592,86.934C71.572,88.274 69.658,88.848 69.658,88.848L69.658,195.938C69.658,195.938 83.457,221.491 139.889,241.78L139.889,241.543L140.255,241.78C196.687,221.491 210.484,195.938 210.484,195.938L210.484,88.705C207.326,87.7 204.455,87.269 204.455,87.269Z" style="fill:rgb(15,16,49);fill-rule:nonzero;"/>
        <path d="M159.236,158.424C159.236,158.424 154.26,161.199 150.336,161.391C150.336,161.391 154.068,176.129 159.715,176.894C165.361,177.659 171.773,164.166 171.391,162.156C171.008,160.146 168.807,158.424 168.807,158.424C168.807,158.424 165.074,158.998 162.012,158.424C162.012,158.424 166.797,156.414 167.467,152.873C167.467,152.873 162.777,147.705 157.705,149.428C152.633,151.15 149.857,155.074 149.857,155.074C149.857,155.074 153.876,158.177 159.236,158.424Z" style="fill:rgb(207,149,120);fill-rule:nonzero;"/>
        <path d="M117.031,193.163C117.031,193.163 118.275,199.097 117.988,202.063C117.988,202.063 123.348,205.222 126.697,207.614C126.697,207.614 131.195,207.136 134.066,209.146C136.938,211.155 138.499,215.462 140.255,216.802C142.01,218.142 147.943,221.108 147.082,224.075C147.082,224.075 151.102,215.558 147.561,212.974C144.02,210.39 134.641,209.05 130.716,205.413C126.793,201.776 117.031,193.163 117.031,193.163Z" style="fill:rgb(207,149,120);fill-rule:nonzero;"/>
        <path d="M106.792,140.814C106.792,140.814 111.672,135.359 110.811,129.234C110.811,129.234 102.378,120.638 105.26,110.381C108.514,98.801 123.635,99.471 123.635,99.471C123.635,99.471 128.42,94.399 132.439,91.623C132.439,91.623 103.282,85.414 94.541,105.309C87.268,121.865 103.825,127.32 106.792,140.814Z" style="fill:rgb(177,32,37);fill-rule:nonzero;"/>
        <path d="M122.295,103.299C122.295,103.299 118.658,116.889 129.567,115.07C140.479,113.252 157.227,102.15 163.639,102.725C170.051,103.299 173.592,108.971 173.592,108.971C173.592,108.971 137.332,134.05 121.447,129.092C96.455,121.291 110.811,98.036 122.295,103.299Z" style="fill:rgb(177,32,37);fill-rule:nonzero;"/>
        <path d="M185.555,116.889C185.555,116.889 187.277,118.324 188.234,119.951C188.234,119.951 187.564,122.918 187.469,124.736C187.469,124.736 183.736,120.43 185.555,116.889Z" style="fill:rgb(236,95,105);fill-rule:nonzero;"/>
        <path d="M189.67,122.439C189.67,122.439 188.809,126.419 189.67,129.74C189.67,129.74 192.063,131.278 192.637,133.894C192.637,133.894 192.828,125.406 189.67,122.439Z" style="fill:rgb(236,95,105);fill-rule:nonzero;"/>
        <path d="M184.119,105.5C184.119,105.5 214.36,117.989 204.168,156.031C204.168,156.031 199.627,147.131 192.639,143.686C192.639,143.686 201.974,129.187 185.055,113.683C185.055,113.683 185.938,109.998 184.119,105.5Z" style="fill:rgb(177,32,37);fill-rule:nonzero;"/>
        <path d="M89.852,114.783C89.852,114.783 90.086,120.122 95.45,126.268C103.229,135.18 110.237,150.193 102.389,169.813C102.389,169.813 93.393,162.635 91.861,160.529C91.861,160.529 95.307,147.992 90.234,140.432C85.162,132.871 79.229,118.229 89.852,114.783Z" style="fill:rgb(177,32,37);fill-rule:nonzero;"/>
        <path d="M82.482,130.67C82.482,130.67 84.588,138.996 88.225,144.595C88.225,144.595 84.014,152.873 90.809,162.061C97.604,171.248 113.395,178.616 112.916,200.628C112.916,200.628 97.412,198.522 93.775,193.929C93.775,193.929 95.307,189.048 87.65,182.444C79.994,175.842 75.592,166.654 75.592,166.654L75.592,138.996C75.592,138.996 76.549,134.115 82.482,130.67Z" style="fill:rgb(177,32,37);fill-rule:nonzero;"/>
        <path d="M162.179,119.354C162.179,119.354 171.582,119.712 172.587,140.814C173.592,161.917 181.2,173.976 181.2,173.976C181.2,173.976 186.895,170.387 188.139,161.582C189.383,152.777 189.483,122.414 174.549,112.869C174.549,112.869 166.889,116.336 162.179,119.354Z" style="fill:rgb(177,32,37);fill-rule:nonzero;"/>
        <path d="M164.883,221.491C164.883,221.491 157.514,222.831 157.131,218.62C156.748,214.409 171.295,200.532 171.295,200.532C171.295,200.532 167.563,193.067 173.4,188.091C173.4,188.091 172.348,184.741 174.357,182.731C176.367,180.722 178.891,178.09 179.334,174.703C179.334,174.703 176.654,172.588 174.07,173.976C174.07,173.976 173.976,184.071 165.744,196.034C157.514,207.997 149.379,212.974 152.633,220.438C155.887,227.903 164.883,221.491 164.883,221.491Z" style="fill:rgb(177,32,37);fill-rule:nonzero;"/>
        <path d="M188.646,208.954C188.646,208.954 199.479,202.351 204.981,194.12C204.981,194.12 205.17,186.168 201.919,183.019C201.919,183.019 200.771,187.708 196.082,192.589C191.393,197.47 188.646,208.954 188.646,208.954Z" style="fill:rgb(177,32,37);fill-rule:nonzero;"/>
        <path d="M142.105,228.19C142.105,228.19 143.445,228.765 144.402,231.253C145.359,233.741 147.369,233.167 147.369,233.167C147.369,233.167 145.551,231.444 146.029,229.722C146.029,229.722 147.656,229.014 148.709,230.707C148.709,230.707 146.412,226.468 142.105,228.19Z" style="fill:rgb(129,101,103);fill-rule:nonzero;"/>
        <path d="M182.109,199.192C182.109,199.192 176.08,200.149 173.975,208.619C173.975,208.619 174.74,207.423 176.367,206.083C176.367,206.083 177.324,207.997 178.042,210.294C178.042,210.294 178.09,202.638 182.109,199.192Z" style="fill:rgb(129,101,103);fill-rule:nonzero;"/>
        <path d="M185.459,186.512C185.459,186.512 186.814,186.607 187.931,185.89C189.048,185.172 188.646,182.349 188.646,182.349C188.646,182.349 186.895,185.938 185.459,186.512Z" style="fill:rgb(214,222,35);fill-rule:nonzero;"/>
        <path d="M190.483,183.784C190.483,183.784 190.244,181.057 189.048,181.104C189.048,181.104 190.733,184.358 188.646,186.655C186.576,188.935 180.584,189.326 182.402,184.428L182.444,184.311L182.402,184.428C182.307,184.745 182.144,185.634 183.114,186.177C184.311,186.847 189.239,178.329 189.239,178.329C189.239,178.329 191.105,179.86 190.483,183.784ZM178.568,193.163C180.291,193.211 182.588,191.823 182.588,191.823C181.152,195.125 178.568,193.163 178.568,193.163ZM190.627,145.785C190.627,145.785 192.541,166.75 187.66,173.162C187.66,173.162 189.957,170.961 194.455,172.396C194.455,172.396 188.426,172.875 184.789,179.765C184.789,179.765 184.789,176.798 186.225,174.98C186.225,174.98 182.588,176.033 181.152,178.138C179.717,180.243 178.86,183.784 175.413,184.741C175.413,184.741 175.362,186.177 176.271,186.942C176.271,186.942 177.324,186.655 178.186,185.268C178.186,185.268 178.329,188.426 175.841,189.048C173.353,189.67 172.874,192.637 172.874,192.637C172.874,192.637 173.305,193.307 174.501,193.881C174.501,193.881 173.735,194.503 172.874,194.407C172.874,194.407 172.156,195.412 172.587,197.374C172.587,197.374 173.113,195.699 175.075,195.651C177.037,195.604 179.382,198.092 182.109,197.039C184.837,195.986 191.44,188.091 191.44,188.091C191.44,188.091 189.239,192.445 188.569,194.79C187.899,197.135 187.421,202.111 185.698,202.446C183.976,202.781 181.535,202.111 180.961,203.26C180.961,203.26 185.268,204.073 186.751,203.26C188.234,202.446 192.254,191.01 194.024,188.856C195.795,186.703 199.191,186.32 196.369,177.229C196.369,177.229 198.521,178.521 198.904,180.674C198.904,180.674 213.308,161.569 190.627,145.785Z" style="fill:rgb(177,32,37);fill-rule:nonzero;"/>
        <path d="M137.775,224.793C136.339,224.004 134.832,223.286 134.832,223.286C137.272,223.932 140.255,223.573 140.255,223.573C140.255,223.573 139.21,225.583 137.775,224.793ZM128.157,220.917C128.157,220.917 125.429,222.712 122.558,220.917C119.687,219.123 119.328,216.897 119.328,216.897C119.615,211.012 125.788,213.739 125.788,213.739C121.338,212.734 121.266,216.108 121.266,216.108C125.573,214.673 128.946,218.549 128.946,218.549C130.238,219.123 132.248,218.118 132.248,218.118C131.961,220.702 128.157,220.917 128.157,220.917ZM144.211,223.214C143.732,224.267 142.871,224.075 142.871,224.075C143.732,219.864 135.598,215.653 135.598,215.653C134.258,210.964 130.524,211.442 130.524,211.442C131.77,212.399 132.248,214.601 132.248,214.601C125.836,206.944 101.911,200.724 94.35,198.14C86.789,195.556 85.21,188.799 85.21,188.799C86.889,191.725 89.373,191.728 89.373,191.728C86.119,182.923 81.047,186.655 81.047,186.655C78.272,192.015 78.367,197.757 78.367,197.757C85.258,210.485 112.725,215.462 112.725,215.462C112.916,212.208 116.457,211.251 116.457,211.251C116.457,211.251 113.107,215.271 116.361,221.683C119.615,228.095 128.707,224.649 128.707,224.649C130.047,227.521 134.641,228.765 136.747,229.052C138.852,229.339 139.617,226.659 140.766,225.798C141.914,224.937 141.914,226.276 143.445,226.468C144.977,226.659 144.211,223.214 144.211,223.214Z" style="fill:rgb(177,32,37);fill-rule:nonzero;"/>
        <path d="M121.769,217.411C121.769,217.411 123.132,220.846 126.865,220.056C126.865,220.056 124.927,217.495 121.769,217.411Z" style="fill:rgb(214,222,35);fill-rule:nonzero;"/>
        <path d="M225.736,81.184L214.061,37.544L67.17,37.544L55.494,81.184L67.17,89.797C67.17,89.797 60.279,82.715 63.533,81.184C66.787,79.653 87.341,72.834 140.798,72.834C194.254,72.834 214.443,79.653 217.697,81.184C220.951,82.715 214.061,89.797 214.061,89.797L225.736,81.184Z" style="fill:rgb(15,16,49);fill-rule:nonzero;"/>
        <path d="M125.214,103.203C125.214,103.203 123.204,113.539 131.387,112.104C139.569,110.668 165.727,87.548 177.468,110.668C177.468,110.668 180.754,111.878 182.923,115.76C182.923,115.76 185.593,93.939 162.179,88.705C138.421,83.393 125.214,103.203 125.214,103.203Z" style="fill:rgb(177,32,37);fill-rule:nonzero;"/>
        <path d="M78.688,48.076C76.619,56.232 74.549,64.388 72.479,72.544C70.45,72.911 69.438,73.1 67.415,73.495C70.174,62.974 72.932,52.453 75.691,41.932C79.003,43.672 80.687,44.483 84.119,46.024C84.517,44.386 84.716,43.567 85.114,41.929C89.319,43.975 93.612,45.836 97.961,47.555C96.501,54.819 95.041,62.083 93.58,69.347C91.528,69.599 90.502,69.732 88.455,70.012C89.929,63.202 91.403,56.392 92.877,49.582C91.041,48.857 90.132,48.486 88.332,47.723C86.554,55.415 84.777,63.106 83.001,70.797C80.96,71.107 79.94,71.268 77.905,71.605C79.653,64.41 81.401,57.213 83.149,50.018C81.348,49.263 80.456,48.876 78.688,48.076Z" style="fill:white;fill-rule:nonzero;"/>
        <path d="M95.137,48.57C95.317,48.643 95.498,48.716 95.679,48.79L91.909,67.545C91.593,67.584 91.297,67.623 91.004,67.661L95.137,48.57ZM76.987,44.85C79.002,45.877 80.616,46.636 83.302,47.842L85.49,48.825L86.472,44.786C86.619,44.855 86.768,44.924 86.916,44.993L81.362,69.031C81.08,69.075 80.813,69.116 80.551,69.157L85.488,48.835L83.919,48.178C82.103,47.418 81.238,47.041 79.511,46.259L77.341,45.277L70.862,70.811C70.612,70.857 70.376,70.901 70.146,70.944L76.987,44.85Z" style="fill:rgb(112,113,113);fill-rule:nonzero;"/>
        <path d="M106.399,41.895L120.378,41.895C120.119,44.275 119.99,45.465 119.731,47.846C117.776,48.554 116.791,48.914 114.805,49.648C115.055,47.739 115.18,46.784 115.43,44.875C113.455,44.894 112.467,44.904 110.492,44.926C110.078,47.623 109.871,48.973 109.458,51.67C111.383,52.345 112.356,52.679 114.32,53.342C114.14,54.719 114.05,55.408 113.87,56.785C111.871,56.143 110.88,55.822 108.92,55.171C108.323,59.067 108.024,61.015 107.426,64.91C109.597,64.74 110.683,64.663 112.856,64.52C113.016,63.299 113.096,62.69 113.256,61.469C115.354,60.665 116.396,60.275 118.463,59.509C118.13,62.569 117.964,64.099 117.631,67.159C112.35,67.473 107.074,67.895 101.81,68.426C103.339,59.582 104.869,50.739 106.399,41.895Z" style="fill:white;fill-rule:nonzero;"/>
        <path d="M117.57,43.888L118.156,43.888L117.883,46.395C117.649,46.48 117.427,46.561 117.209,46.64L117.57,43.888ZM115.078,62.907C115.455,62.763 115.8,62.632 116.132,62.507L115.831,65.272C115.474,65.295 115.117,65.318 114.759,65.342L115.078,62.907ZM108.078,43.888L108.634,43.888L105.227,66.095C104.892,66.125 104.556,66.157 104.22,66.189L108.078,43.888Z" style="fill:rgb(112,113,113);fill-rule:nonzero;"/>
        <path d="M131.232,63.717C131.775,63.706 132.046,63.7 132.589,63.69C134.247,63.127 135.071,62.851 136.708,62.307C136.813,56.899 136.918,51.492 137.023,46.084C135.539,45.556 134.802,45.293 133.338,44.766C132.847,44.767 132.601,44.768 132.109,44.769C131.817,51.085 131.525,57.402 131.232,63.717ZM134.673,41.895C137.436,42.911 138.836,43.415 141.678,44.43C141.716,50.935 141.754,57.44 141.792,63.946C138.66,64.95 137.073,65.465 133.863,66.536C130.686,66.591 129.097,66.635 125.922,66.755C126.509,58.468 127.096,50.181 127.684,41.895L134.673,41.895Z" style="fill:white;fill-rule:nonzero;"/>
        <path d="M139.027,45.599C139.242,45.676 139.463,45.755 139.692,45.837L139.79,62.495C139.406,62.618 139.042,62.736 138.691,62.849L139.027,45.599ZM129.541,43.888L130.153,43.888L129.194,64.647C128.828,64.658 128.457,64.669 128.067,64.683L129.541,43.888Z" style="fill:rgb(112,113,113);fill-rule:nonzero;"/>
        <path d="M165.974,67.308C160.691,66.961 155.401,66.723 150.109,66.593C149.729,58.361 149.349,50.127 148.968,41.895L153.524,41.895C154.042,49.217 154.561,56.54 155.079,63.862C157.258,63.935 158.347,63.979 160.523,64.082C159.812,56.686 159.1,49.29 158.387,41.895L162.945,41.895C163.955,50.366 164.965,58.837 165.974,67.308Z" style="fill:white;fill-rule:nonzero;"/>
        <path d="M152.016,64.651L151.056,43.888L151.666,43.888L153.14,64.685C152.765,64.673 152.39,64.662 152.016,64.651ZM162.625,65.106L160.582,43.888L161.175,43.888L163.711,65.169C163.35,65.148 162.987,65.126 162.625,65.106Z" style="fill:rgb(112,113,113);fill-rule:nonzero;"/>
        <path d="M174.248,67.941C173.764,64.787 173.521,63.209 173.038,60.055C175.134,60.88 176.19,61.304 178.315,62.176C178.534,63.441 178.644,64.073 178.862,65.337C181.03,65.534 182.114,65.638 184.278,65.862C183.646,62.577 183.331,60.934 182.7,57.648C179.162,56.18 175.597,54.766 172.018,53.402C171.429,49.566 170.841,45.73 170.252,41.895L184.229,41.895C184.931,45.255 185.28,46.936 185.98,50.297C183.935,49.471 182.918,49.07 180.901,48.285C180.653,46.992 180.528,46.345 180.28,45.052C178.306,45.022 177.317,45.008 175.343,44.983C175.816,47.723 176.053,49.092 176.527,51.832C180.104,53.217 183.667,54.654 187.2,56.147C188.138,60.647 189.075,65.147 190.014,69.647C184.771,68.969 179.514,68.401 174.248,67.941Z" style="fill:white;fill-rule:nonzero;"/>
        <path d="M182.651,46.827L182.087,43.888L182.608,43.888L183.271,47.07C183.071,46.991 182.866,46.911 182.651,46.827ZM173.813,51.955L172.575,43.888L173.13,43.888L174.575,52.248C174.321,52.15 174.067,52.052 173.813,51.955ZM175.981,66.094L175.537,63.196C175.856,63.325 176.185,63.458 176.539,63.603L176.985,66.188C176.65,66.156 176.316,66.125 175.981,66.094ZM186.567,67.209L184.652,57.241C184.923,57.353 185.192,57.465 185.462,57.579L187.492,67.321C187.185,67.284 186.876,67.247 186.567,67.209Z" style="fill:rgb(112,113,113);fill-rule:nonzero;"/>
        <path d="M196.935,45.351C197.68,48.419 198.053,49.954 198.798,53.023C201.036,54.01 202.162,54.519 204.429,55.573C203.402,51.528 202.89,49.505 201.863,45.46C199.892,45.415 198.906,45.393 196.935,45.351ZM205.514,41.893C208.275,52.426 211.037,62.959 213.799,73.493C211.777,73.099 210.764,72.909 208.735,72.542C207.648,68.259 206.562,63.976 205.475,59.693C203.179,58.587 202.037,58.053 199.769,57.018C200.95,61.88 202.131,66.744 203.313,71.606C201.276,71.269 200.256,71.107 198.214,70.797C195.988,61.163 193.763,51.528 191.536,41.893L205.514,41.893Z" style="fill:white;fill-rule:nonzero;"/>
        <path d="M199.853,69.031L194.044,43.887L194.527,43.887L200.666,69.157C200.404,69.116 200.136,69.075 199.853,69.031ZM210.353,70.81L203.521,43.887L203.976,43.887L211.068,70.942C210.838,70.899 210.602,70.855 210.353,70.81Z" style="fill:rgb(112,113,113);fill-rule:nonzero;"/>
        <path d="M133.301,150.193C133.301,150.193 121.146,143.303 118.371,142.059C118.371,142.059 113.012,142.729 110.237,144.451C110.237,144.451 114.639,140.049 118.754,138.996C118.754,138.996 130.429,144.355 133.971,145.121L134.162,147.418C134.162,147.418 134.545,147.801 136.268,145.313C136.268,145.313 136.172,149.428 133.301,150.193ZM125.166,162.061C127.75,159.668 127.654,158.807 127.654,158.807C123.688,160.104 120.859,158.232 120.859,158.232C126.219,158.711 130.143,155.17 130.143,155.17C130.143,155.17 123.73,148.662 120.189,149.715C116.648,150.768 113.586,153.447 113.586,153.447C114.333,155.813 117.127,157.084 117.127,157.084C112.82,156.988 110.811,152.586 110.811,152.586C110.811,152.586 119.615,145.6 122.678,146.939C125.74,148.279 133.588,155.266 133.588,155.266C129.664,160.338 125.166,162.061 125.166,162.061ZM163.256,123.301C160.672,121.674 159.428,121.291 159.428,121.291C159.428,121.291 129.664,138.613 114.734,130.861C114.734,130.861 112.247,140.145 107.749,143.59C107.749,143.59 110.332,150.002 108.61,161.582C108.61,161.582 110.141,180.243 113.012,184.837C115.883,189.431 131.482,202.542 135.023,205.03C138.564,207.519 147.369,207.231 146.986,201.394C146.604,195.556 137.607,197.661 137.607,197.661C137.607,197.661 133.205,194.024 131.387,191.058C131.387,191.058 134.354,193.163 136.555,193.163C138.756,193.163 140.255,192.206 140.255,192.206C140.255,192.206 142.297,193.354 144.594,192.685C146.891,192.015 150.336,189.909 150.336,189.909C150.336,189.909 145.646,186.847 143.445,187.421C141.244,187.995 140.255,189.239 140.255,189.239C140.255,189.239 136.746,185.124 129.951,188.952L136.746,185.124C136.746,185.124 138.768,185.411 140.255,186.751C140.255,186.751 141.34,185.507 143.35,184.837C145.359,184.167 147.561,185.507 147.561,185.507L143.732,180.435C143.732,180.435 141.179,180.53 140.255,181.966C140.255,181.966 136.459,179.19 132.918,179.956C132.918,179.956 135.724,175.363 140.255,173.545C140.255,173.545 142.775,174.119 144.785,176.128L145.646,150.002C145.646,150.002 143.254,147.896 143.541,144.643C143.541,144.643 143.637,145.695 145.551,147.131L146.221,145.121C146.221,145.121 154.547,142.92 158.471,140.336C162.395,137.752 165.744,140.432 165.744,140.432C165.744,140.432 165.84,124.928 163.256,123.301Z" style="fill:rgb(207,149,120);fill-rule:nonzero;"/>
        <clipPath id="_clip1">
            <path d="M133.301,150.193C133.301,150.193 121.146,143.303 118.371,142.059C118.371,142.059 113.012,142.729 110.237,144.451C110.237,144.451 114.639,140.049 118.754,138.996C118.754,138.996 130.429,144.355 133.971,145.121L134.162,147.418C134.162,147.418 134.545,147.801 136.268,145.313C136.268,145.313 136.172,149.428 133.301,150.193ZM125.166,162.061C127.75,159.668 127.654,158.807 127.654,158.807C123.688,160.104 120.859,158.232 120.859,158.232C126.219,158.711 130.143,155.17 130.143,155.17C130.143,155.17 123.73,148.662 120.189,149.715C116.648,150.768 113.586,153.447 113.586,153.447C114.333,155.813 117.127,157.084 117.127,157.084C112.82,156.988 110.811,152.586 110.811,152.586C110.811,152.586 119.615,145.6 122.678,146.939C125.74,148.279 133.588,155.266 133.588,155.266C129.664,160.338 125.166,162.061 125.166,162.061ZM163.256,123.301C160.672,121.674 159.428,121.291 159.428,121.291C159.428,121.291 129.664,138.613 114.734,130.861C114.734,130.861 112.247,140.145 107.749,143.59C107.749,143.59 110.332,150.002 108.61,161.582C108.61,161.582 110.141,180.243 113.012,184.837C115.883,189.431 131.482,202.542 135.023,205.03C138.564,207.519 147.369,207.231 146.986,201.394C146.604,195.556 137.607,197.661 137.607,197.661C137.607,197.661 133.205,194.024 131.387,191.058C131.387,191.058 134.354,193.163 136.555,193.163C138.756,193.163 140.255,192.206 140.255,192.206C140.255,192.206 142.297,193.354 144.594,192.685C146.891,192.015 150.336,189.909 150.336,189.909C150.336,189.909 145.646,186.847 143.445,187.421C141.244,187.995 140.255,189.239 140.255,189.239C140.255,189.239 136.746,185.124 129.951,188.952L136.746,185.124C136.746,185.124 138.768,185.411 140.255,186.751C140.255,186.751 141.34,185.507 143.35,184.837C145.359,184.167 147.561,185.507 147.561,185.507L143.732,180.435C143.732,180.435 141.179,180.53 140.255,181.966C140.255,181.966 136.459,179.19 132.918,179.956C132.918,179.956 135.724,175.363 140.255,173.545C140.255,173.545 142.775,174.119 144.785,176.128L145.646,150.002C145.646,150.002 143.254,147.896 143.541,144.643C143.541,144.643 143.637,145.695 145.551,147.131L146.221,145.121C146.221,145.121 154.547,142.92 158.471,140.336C162.395,137.752 165.744,140.432 165.744,140.432C165.744,140.432 165.84,124.928 163.256,123.301Z" clip-rule="nonzero"/>
        </clipPath>
        <g clip-path="url(#_clip1)">
            <path d="M112.485,152.586C112.485,152.586 114.081,157.371 120.859,158.168C127.639,158.966 131.626,155.377 131.626,155.377L123.651,148.598L118.068,148.997L112.485,152.586Z" style="fill:rgb(213,214,213);fill-rule:nonzero;"/>
        </g>
        <g>
            <clipPath id="_clip2">
                <path d="M159.236,158.424C159.236,158.424 154.26,161.199 150.336,161.391C150.336,161.391 154.068,176.129 159.715,176.894C165.361,177.659 171.773,164.166 171.391,162.156C171.008,160.146 168.807,158.424 168.807,158.424C168.807,158.424 165.074,158.998 162.012,158.424C162.012,158.424 166.797,156.414 167.467,152.873C167.467,152.873 162.777,147.705 157.705,149.428C152.633,151.15 149.857,155.074 149.857,155.074C149.857,155.074 153.876,158.177 159.236,158.424Z"/>
            </clipPath>
            <g clip-path="url(#_clip2)">
                <path d="M149.172,156.573C149.172,156.573 161.932,160.162 166.717,156.972C171.502,153.782 168.312,148.199 168.312,148.199L158.742,144.61L151.963,148.997L147.976,153.782L149.172,156.573Z" style="fill:rgb(213,214,213);fill-rule:nonzero;"/>
                <path d="M152.761,163.751C152.761,163.751 157.146,181.296 165.521,176.112C173.895,170.929 173.496,158.567 173.496,158.567L168.711,158.567C168.711,158.567 163.526,160.561 160.735,159.364C160.735,159.364 156.748,164.149 152.761,163.751Z" style="fill:rgb(228,182,148);fill-rule:nonzero;"/>
            </g>
        </g>
        <path d="M156.35,166.941C156.35,166.941 160.337,174.119 162.33,173.321C164.324,172.523 168.312,163.751 168.312,163.751C168.312,163.751 159.539,168.138 156.35,166.941Z" style="fill:rgb(251,216,187);fill-rule:nonzero;"/>
        <path d="M132.423,199.24C132.423,199.24 134.417,203.627 137.607,204.823C140.798,206.02 145.981,204.425 145.184,202.032C144.387,199.64 134.816,201.234 132.423,199.24Z" style="fill:rgb(228,182,148);fill-rule:nonzero;"/>
        <path d="M126.043,136.636C126.043,136.636 134.417,141.42 138.006,142.218C141.595,143.016 163.128,133.844 163.128,133.844C163.128,133.844 163.926,127.065 160.735,125.071C157.546,123.077 131.626,137.433 126.043,136.636Z" style="fill:rgb(228,182,148);fill-rule:nonzero;"/>
        <clipPath id="_clip3">
            <path d="M133.301,150.193C133.301,150.193 121.146,143.303 118.371,142.059C118.371,142.059 113.012,142.729 110.237,144.451C110.237,144.451 114.639,140.049 118.754,138.996C118.754,138.996 130.429,144.355 133.971,145.121L134.162,147.418C134.162,147.418 134.545,147.801 136.268,145.313C136.268,145.313 136.172,149.428 133.301,150.193ZM125.166,162.061C127.75,159.668 127.654,158.807 127.654,158.807C123.688,160.104 120.859,158.232 120.859,158.232C126.219,158.711 130.143,155.17 130.143,155.17C130.143,155.17 123.73,148.662 120.189,149.715C116.648,150.768 113.586,153.447 113.586,153.447C114.333,155.813 117.127,157.084 117.127,157.084C112.82,156.988 110.811,152.586 110.811,152.586C110.811,152.586 119.615,145.6 122.678,146.939C125.74,148.279 133.588,155.266 133.588,155.266C129.664,160.338 125.166,162.061 125.166,162.061ZM163.256,123.301C160.672,121.674 159.428,121.291 159.428,121.291C159.428,121.291 129.664,138.613 114.734,130.861C114.734,130.861 112.247,140.145 107.749,143.59C107.749,143.59 110.332,150.002 108.61,161.582C108.61,161.582 110.141,180.243 113.012,184.837C115.883,189.431 131.482,202.542 135.023,205.03C138.564,207.519 147.369,207.231 146.986,201.394C146.604,195.556 137.607,197.661 137.607,197.661C137.607,197.661 133.205,194.024 131.387,191.058C131.387,191.058 134.354,193.163 136.555,193.163C138.756,193.163 140.255,192.206 140.255,192.206C140.255,192.206 142.297,193.354 144.594,192.685C146.891,192.015 150.336,189.909 150.336,189.909C150.336,189.909 145.646,186.847 143.445,187.421C141.244,187.995 140.255,189.239 140.255,189.239C140.255,189.239 136.746,185.124 129.951,188.952L136.746,185.124C136.746,185.124 138.768,185.411 140.255,186.751C140.255,186.751 141.34,185.507 143.35,184.837C145.359,184.167 147.561,185.507 147.561,185.507L143.732,180.435C143.732,180.435 141.179,180.53 140.255,181.966C140.255,181.966 136.459,179.19 132.918,179.956C132.918,179.956 135.724,175.363 140.255,173.545C140.255,173.545 142.775,174.119 144.785,176.128L145.646,150.002C145.646,150.002 143.254,147.896 143.541,144.643C143.541,144.643 143.637,145.695 145.551,147.131L146.221,145.121C146.221,145.121 154.547,142.92 158.471,140.336C162.395,137.752 165.744,140.432 165.744,140.432C165.744,140.432 165.84,124.928 163.256,123.301Z"/>
        </clipPath>
        <g clip-path="url(#_clip3)">
            <path d="M130.429,189.048C130.429,189.048 132.423,194.455 136.411,195.253C140.398,196.051 153.558,191.266 153.558,191.266L154.355,186.48L144.387,185.683L140.398,188.075L136.81,186.48C136.81,186.48 133.221,186.831 130.429,189.048Z" style="fill:rgb(178,84,62);fill-rule:nonzero;"/>
        </g>
        <path d="M131.626,189.67C131.626,189.67 134.417,191.664 136.411,191.664C138.405,191.664 138.804,189.67 138.804,189.67C138.804,189.67 134.816,187.677 131.626,189.67Z" style="fill:rgb(216,113,96);fill-rule:nonzero;"/>
        <path d="M141.196,190.069C141.196,190.069 142.791,192.462 144.387,191.266C145.981,190.069 145.583,188.873 145.583,188.873C145.583,188.873 142.791,188.474 141.196,190.069Z" style="fill:rgb(216,113,96);fill-rule:nonzero;"/>
        <clipPath id="_clip4">
            <path d="M133.301,150.193C133.301,150.193 121.146,143.303 118.371,142.059C118.371,142.059 113.012,142.729 110.237,144.451C110.237,144.451 114.639,140.049 118.754,138.996C118.754,138.996 130.429,144.355 133.971,145.121L134.162,147.418C134.162,147.418 134.545,147.801 136.268,145.313C136.268,145.313 136.172,149.428 133.301,150.193ZM125.166,162.061C127.75,159.668 127.654,158.807 127.654,158.807C123.688,160.104 120.859,158.232 120.859,158.232C126.219,158.711 130.143,155.17 130.143,155.17C130.143,155.17 123.73,148.662 120.189,149.715C116.648,150.768 113.586,153.447 113.586,153.447C114.333,155.813 117.127,157.084 117.127,157.084C112.82,156.988 110.811,152.586 110.811,152.586C110.811,152.586 119.615,145.6 122.678,146.939C125.74,148.279 133.588,155.266 133.588,155.266C129.664,160.338 125.166,162.061 125.166,162.061ZM163.256,123.301C160.672,121.674 159.428,121.291 159.428,121.291C159.428,121.291 129.664,138.613 114.734,130.861C114.734,130.861 112.247,140.145 107.749,143.59C107.749,143.59 110.332,150.002 108.61,161.582C108.61,161.582 110.141,180.243 113.012,184.837C115.883,189.431 131.482,202.542 135.023,205.03C138.564,207.519 147.369,207.231 146.986,201.394C146.604,195.556 137.607,197.661 137.607,197.661C137.607,197.661 133.205,194.024 131.387,191.058C131.387,191.058 134.354,193.163 136.555,193.163C138.756,193.163 140.255,192.206 140.255,192.206C140.255,192.206 142.297,193.354 144.594,192.685C146.891,192.015 150.336,189.909 150.336,189.909C150.336,189.909 145.646,186.847 143.445,187.421C141.244,187.995 140.255,189.239 140.255,189.239C140.255,189.239 136.746,185.124 129.951,188.952L136.746,185.124C136.746,185.124 138.768,185.411 140.255,186.751C140.255,186.751 141.34,185.507 143.35,184.837C145.359,184.167 147.561,185.507 147.561,185.507L143.732,180.435C143.732,180.435 141.179,180.53 140.255,181.966C140.255,181.966 136.459,179.19 132.918,179.956C132.918,179.956 135.724,175.363 140.255,173.545C140.255,173.545 142.775,174.119 144.785,176.128L145.646,150.002C145.646,150.002 143.254,147.896 143.541,144.643C143.541,144.643 143.637,145.695 145.551,147.131L146.221,145.121C146.221,145.121 154.547,142.92 158.471,140.336C162.395,137.752 165.744,140.432 165.744,140.432C165.744,140.432 165.84,124.928 163.256,123.301Z"/>
        </clipPath>
        <g clip-path="url(#_clip4)">
            <path d="M111.688,156.175C111.688,156.175 116.473,161.358 123.651,160.162C123.651,160.162 126.442,160.96 125.246,162.156C125.246,162.156 132.025,158.168 132.423,155.377C132.822,152.586 126.043,147.401 126.043,147.401C126.043,147.401 133.221,150.592 135.215,152.586C137.208,154.579 139.601,146.604 139.601,146.604C139.601,146.604 142.791,150.592 144.785,150.99L143.589,172.523C143.589,172.523 140.398,171.327 139.203,171.727C138.006,172.125 130.828,180.1 130.828,180.1C130.828,180.1 134.019,180.897 135.215,183.29C135.215,183.29 128.835,186.48 127.639,189.67C126.442,192.86 130.429,196.848 130.429,196.848C130.429,196.848 117.271,190.468 114.479,183.29C111.688,176.112 110.093,161.358 111.688,156.175Z" style="fill:rgb(228,182,148);fill-rule:nonzero;"/>
        </g>
        <path d="M113.682,164.947C113.682,164.947 113.682,177.707 118.866,179.303C124.05,180.897 134.417,166.941 133.221,164.549C132.025,162.156 121.258,168.536 113.682,164.947Z" style="fill:rgb(251,216,187);fill-rule:nonzero;"/>
        <path d="M136.81,202.431C136.81,202.431 138.006,204.823 140,204.425C141.994,204.025 141.994,202.431 141.994,202.431C141.994,202.431 138.405,203.627 136.81,202.431Z" style="fill:rgb(251,216,187);fill-rule:nonzero;"/>
        <path d="M114.878,153.782C114.878,153.782 117.271,158.168 122.455,157.371C127.639,156.573 128.436,154.579 128.436,154.579C128.436,154.579 120.859,146.205 114.878,153.782Z" style="fill:white;fill-rule:nonzero;"/>
        <path d="M151.165,154.979C151.165,154.979 156.35,158.812 160.337,158.29C164.324,157.77 166.717,152.984 166.717,152.984C166.717,152.984 159.938,147.003 151.165,154.979Z" style="fill:white;fill-rule:nonzero;"/>
        <clipPath id="_clip5">
            <path d="M89.852,114.783C89.852,114.783 90.086,120.122 95.45,126.268C103.229,135.18 110.237,150.193 102.389,169.813C102.389,169.813 93.393,162.635 91.861,160.529C91.861,160.529 95.307,147.992 90.234,140.432C85.162,132.871 79.229,118.229 89.852,114.783Z"/>
        </clipPath>
        <g clip-path="url(#_clip5)">
            <path d="M91.351,110.716L89.756,114.703C89.756,114.703 86.566,115.899 91.351,123.477C96.136,131.053 103.713,141.021 102.118,148.997C100.523,156.972 90.952,157.371 90.952,157.371C90.952,157.371 92.148,146.205 88.161,139.027C84.173,131.851 78.989,128.66 78.989,113.906C78.989,99.153 88.161,96.76 88.161,96.76L91.351,110.716Z" style="fill:rgb(204,39,52);fill-rule:nonzero;"/>
        </g>
        <clipPath id="_clip6">
            <path d="M137.775,224.793C136.339,224.004 134.832,223.286 134.832,223.286C137.272,223.932 140.255,223.573 140.255,223.573C140.255,223.573 139.21,225.583 137.775,224.793ZM128.157,220.917C128.157,220.917 125.429,222.712 122.558,220.917C119.687,219.123 119.328,216.897 119.328,216.897C119.615,211.012 125.788,213.739 125.788,213.739C121.338,212.734 121.266,216.108 121.266,216.108C125.573,214.673 128.946,218.549 128.946,218.549C130.238,219.123 132.248,218.118 132.248,218.118C131.961,220.702 128.157,220.917 128.157,220.917ZM144.211,223.214C143.732,224.267 142.871,224.075 142.871,224.075C143.732,219.864 135.598,215.653 135.598,215.653C134.258,210.964 130.524,211.442 130.524,211.442C131.77,212.399 132.248,214.601 132.248,214.601C125.836,206.944 101.911,200.724 94.35,198.14C86.789,195.556 85.21,188.799 85.21,188.799C86.889,191.725 89.373,191.728 89.373,191.728C86.119,182.923 81.047,186.655 81.047,186.655C78.272,192.015 78.367,197.757 78.367,197.757C85.258,210.485 112.725,215.462 112.725,215.462C112.916,212.208 116.457,211.251 116.457,211.251C116.457,211.251 113.107,215.271 116.361,221.683C119.615,228.095 128.707,224.649 128.707,224.649C130.047,227.521 134.641,228.765 136.747,229.052C138.852,229.339 139.617,226.659 140.766,225.798C141.914,224.937 141.914,226.276 143.445,226.468C144.977,226.659 144.211,223.214 144.211,223.214Z"/>
        </clipPath>
        <g clip-path="url(#_clip6)">
            <path d="M83.774,182.492C83.774,182.492 82.578,189.67 90.553,194.455C98.528,199.24 124.448,207.614 124.448,207.614C124.448,207.614 130.828,212.399 132.423,214.792C132.423,214.792 133.62,214.792 133.221,213.596C133.221,213.596 135.215,214.394 135.215,216.786C135.215,216.786 141.595,218.779 142.791,223.964C142.791,223.964 142.791,225.559 143.589,225.16C143.589,225.16 141.994,225.957 141.196,224.761C141.196,224.761 138.804,227.553 136.81,227.153C134.816,226.755 130.828,222.768 130.828,222.768C130.828,222.768 133.221,221.571 132.423,217.982C132.423,217.982 131.227,219.976 129.233,219.179C127.24,218.381 121.258,215.988 121.258,215.988C121.258,215.988 122.854,213.197 125.645,213.596C125.645,213.596 120.461,212.399 120.062,215.988L119.265,216.786C119.265,216.786 119.663,222.368 122.854,222.768C122.854,222.768 116.872,224.362 115.277,221.97C113.682,219.577 111.29,211.203 116.872,210.805C116.872,210.805 112.087,210.805 110.891,213.197C110.891,213.197 88.161,209.21 77.793,197.247C67.425,185.284 78.192,178.903 78.192,178.903L83.774,182.492Z" style="fill:rgb(204,39,52);fill-rule:nonzero;"/>
        </g>
        <clipPath id="_clip7">
            <path d="M106.792,140.814C106.792,140.814 111.672,135.359 110.811,129.234C110.811,129.234 102.378,120.638 105.26,110.381C108.514,98.801 123.635,99.471 123.635,99.471C123.635,99.471 128.42,94.399 132.439,91.623C132.439,91.623 103.282,85.414 94.541,105.309C87.268,121.865 103.825,127.32 106.792,140.814Z"/>
        </clipPath>
        <g clip-path="url(#_clip7)">
            <path d="M90.553,111.514C90.553,111.514 92.547,118.292 98.13,121.881C98.13,121.881 96.535,105.133 107.701,99.95C118.866,94.766 127.24,97.557 127.24,97.557L134.816,91.576L131.227,80.012L101.32,84.398L86.167,101.943L90.553,111.514Z" style="fill:rgb(204,39,52);fill-rule:nonzero;"/>
        </g>
        <clipPath id="_clip8">
            <path d="M122.295,103.299C122.295,103.299 118.658,116.889 129.567,115.07C140.479,113.252 157.227,102.15 163.639,102.725C170.051,103.299 173.592,108.971 173.592,108.971C173.592,108.971 137.332,134.05 121.447,129.092C96.455,121.291 110.811,98.036 122.295,103.299Z"/>
        </clipPath>
        <g clip-path="url(#_clip8)">
            <path d="M114.988,106.866C114.213,107.385 113.56,108.061 113.033,108.829C111.407,111.201 110.492,117.096 112.485,120.286C115.606,125.279 128.835,136.236 166.717,108.722C166.717,108.722 165.919,103.538 159.141,102.342C152.719,101.209 123.821,100.954 114.988,106.866Z" style="fill:rgb(204,39,52);fill-rule:nonzero;"/>
        </g>
        <clipPath id="_clip9">
            <path d="M82.482,130.67C82.482,130.67 84.588,138.996 88.225,144.595C88.225,144.595 84.014,152.873 90.809,162.061C97.604,171.248 113.395,178.616 112.916,200.628C112.916,200.628 97.412,198.522 93.775,193.929C93.775,193.929 95.307,189.048 87.65,182.444C79.994,175.842 75.592,166.654 75.592,166.654L75.592,138.996C75.592,138.996 76.549,134.115 82.482,130.67Z"/>
        </clipPath>
        <g clip-path="url(#_clip9)">
            <path d="M82.578,125.47L82.578,130.654C82.578,130.654 79.787,139.027 83.774,144.61C83.774,144.61 79.787,154.979 90.952,166.542C102.118,178.106 102.916,192.86 94.142,194.057C85.37,195.253 59.051,154.979 59.051,154.979L55.064,133.445L82.578,125.47Z" style="fill:rgb(204,39,52);fill-rule:nonzero;"/>
        </g>
        <clipPath id="_clip10">
            <path d="M162.179,119.354C162.179,119.354 171.582,119.712 172.587,140.814C173.592,161.917 181.2,173.976 181.2,173.976C181.2,173.976 186.895,170.387 188.139,161.582C189.383,152.777 189.483,122.414 174.549,112.869C174.549,112.869 166.889,116.336 162.179,119.354Z"/>
        </clipPath>
        <g clip-path="url(#_clip10)">
            <path d="M166.717,119.888C166.717,119.888 171.104,122.28 172.3,129.856C173.496,137.433 173.895,161.358 181.87,168.536C181.87,168.536 189.446,162.953 189.446,151.39C189.446,139.825 191.041,112.311 174.692,112.71C174.692,112.71 169.109,114.703 166.717,119.888Z" style="fill:rgb(204,39,52);fill-rule:nonzero;"/>
        </g>
        <clipPath id="_clip11">
            <path d="M125.214,103.203C125.214,103.203 123.204,113.539 131.387,112.104C139.569,110.668 165.727,87.548 177.468,110.668C177.468,110.668 180.754,111.878 182.923,115.76C182.923,115.76 185.593,93.939 162.179,88.705C138.421,83.393 125.214,103.203 125.214,103.203Z"/>
        </clipPath>
        <g clip-path="url(#_clip11)">
            <path d="M126.043,99.153L124.847,102.342C124.847,102.342 124.847,108.722 129.233,109.121C133.62,109.52 150.767,88.785 173.496,99.153C196.226,109.52 186.256,86.392 186.256,86.392L139.203,81.208L126.043,99.153Z" style="fill:rgb(204,39,52);fill-rule:nonzero;"/>
        </g>
        <clipPath id="_clip12">
            <path d="M106.792,140.814C106.792,140.814 111.672,135.359 110.811,129.234C110.811,129.234 102.378,120.638 105.26,110.381C108.514,98.801 123.635,99.471 123.635,99.471C123.635,99.471 128.42,94.399 132.439,91.623C132.439,91.623 103.282,85.414 94.541,105.309C87.268,121.865 103.825,127.32 106.792,140.814Z"/>
        </clipPath>
        <g clip-path="url(#_clip12)">
            <path d="M133.221,92.772C133.221,92.772 94.939,84.797 91.75,117.894L87.363,91.975L108.498,84.398L131.626,84.398L133.221,92.772Z" style="fill:white;fill-rule:nonzero;"/>
        </g>
        <clipPath id="_clip13">
            <path d="M190.483,183.784C190.483,183.784 190.244,181.057 189.048,181.104C189.048,181.104 190.733,184.358 188.646,186.655C186.576,188.935 180.584,189.326 182.402,184.428L182.444,184.311L182.402,184.428C182.307,184.745 182.144,185.634 183.114,186.177C184.311,186.847 189.239,178.329 189.239,178.329C189.239,178.329 191.105,179.86 190.483,183.784ZM178.568,193.163C180.291,193.211 182.588,191.823 182.588,191.823C181.152,195.125 178.568,193.163 178.568,193.163ZM190.627,145.785C190.627,145.785 192.541,166.75 187.66,173.162C187.66,173.162 189.957,170.961 194.455,172.396C194.455,172.396 188.426,172.875 184.789,179.765C184.789,179.765 184.789,176.798 186.225,174.98C186.225,174.98 182.588,176.033 181.152,178.138C179.717,180.243 178.86,183.784 175.413,184.741C175.413,184.741 175.362,186.177 176.271,186.942C176.271,186.942 177.324,186.655 178.186,185.268C178.186,185.268 178.329,188.426 175.841,189.048C173.353,189.67 172.874,192.637 172.874,192.637C172.874,192.637 173.305,193.307 174.501,193.881C174.501,193.881 173.735,194.503 172.874,194.407C172.874,194.407 172.156,195.412 172.587,197.374C172.587,197.374 173.113,195.699 175.075,195.651C177.037,195.604 179.382,198.092 182.109,197.039C184.837,195.986 191.44,188.091 191.44,188.091C191.44,188.091 189.239,192.445 188.569,194.79C187.899,197.135 187.421,202.111 185.698,202.446C183.976,202.781 181.535,202.111 180.961,203.26C180.961,203.26 185.268,204.073 186.751,203.26C188.234,202.446 192.254,191.01 194.024,188.856C195.795,186.703 199.191,186.32 196.369,177.229C196.369,177.229 198.521,178.521 198.904,180.674C198.904,180.674 213.308,161.569 190.627,145.785Z"/>
        </clipPath>
        <g clip-path="url(#_clip13)">
            <path d="M186.256,173.321L187.852,173.321C187.852,173.321 191.041,157.77 193.833,156.972C196.624,156.175 202.206,159.764 201.01,166.542C199.813,173.321 196.226,176.91 196.226,176.91C196.226,176.91 197.022,183.688 195.029,185.683C193.035,187.677 191.839,190.069 191.839,190.069C191.839,190.069 193.434,185.683 192.637,184.486C192.637,184.486 185.06,195.651 181.072,195.253C177.085,194.854 175.489,193.658 175.489,193.658L174.692,193.658L171.502,192.86C171.502,192.86 172.698,190.069 173.895,189.271C175.091,188.474 177.085,188.474 177.882,185.284C177.882,185.284 176.287,186.081 174.692,185.683C173.097,185.284 175.574,181.481 175.574,181.481L186.256,169.334L186.256,173.321Z" style="fill:rgb(204,39,52);fill-rule:nonzero;"/>
        </g>
        <clipPath id="_clip14">
            <path d="M184.119,105.5C184.119,105.5 214.36,117.989 204.168,156.031C204.168,156.031 199.627,147.131 192.639,143.686C192.639,143.686 201.974,129.187 185.055,113.683C185.055,113.683 185.938,109.998 184.119,105.5Z"/>
        </clipPath>
        <g clip-path="url(#_clip14)">
            <path d="M183.066,109.121C183.066,109.121 206.194,126.666 192.637,145.807C179.078,164.947 209.384,162.953 209.384,162.953L218.954,119.488L192.637,94.766L181.87,100.349L183.066,109.121Z" style="fill:rgb(204,39,52);fill-rule:nonzero;"/>
        </g>
        <clipPath id="_clip15">
            <path d="M164.883,221.491C164.883,221.491 157.514,222.831 157.131,218.62C156.748,214.409 171.295,200.532 171.295,200.532C171.295,200.532 167.563,193.067 173.4,188.091C173.4,188.091 172.348,184.741 174.357,182.731C176.367,180.722 178.891,178.09 179.334,174.703C179.334,174.703 176.654,172.588 174.07,173.976C174.07,173.976 173.976,184.071 165.744,196.034C157.514,207.997 149.379,212.974 152.633,220.438C155.887,227.903 164.883,221.491 164.883,221.491Z"/>
        </clipPath>
        <g clip-path="url(#_clip15)">
            <path d="M169.508,175.714L173.895,174.119C173.895,174.119 175.091,174.119 176.287,175.714C177.483,177.309 175.489,183.688 175.489,183.688L171.104,196.051C171.104,196.051 153.558,215.19 155.153,218.779C156.748,222.368 164.723,221.571 164.723,221.571L164.723,223.964L151.963,225.16L149.969,203.627L169.508,175.714Z" style="fill:rgb(204,39,52);fill-rule:nonzero;"/>
        </g>
        <clipPath id="_clip16">
            <path d="M125.214,103.203C125.214,103.203 123.204,113.539 131.387,112.104C139.569,110.668 165.727,87.548 177.468,110.668C177.468,110.668 180.754,111.878 182.923,115.76C182.923,115.76 185.593,93.939 162.179,88.705C138.421,83.393 125.214,103.203 125.214,103.203Z"/>
        </clipPath>
        <g clip-path="url(#_clip16)">
            <path d="M122.199,105.5C122.199,105.5 136.411,88.785 154.754,89.183C173.097,89.582 181.471,101.146 181.471,101.146L172.3,80.809L136.411,79.613L122.199,105.5Z" style="fill:white;fill-rule:nonzero;"/>
        </g>
        <path d="M132.423,175.714C132.423,175.714 135.215,172.125 137.607,170.53C140,168.935 143.589,170.929 143.589,170.929L144.785,150.99C144.785,150.99 142.791,152.187 140.798,150.193C140.798,150.193 140.798,152.984 141.994,154.181C141.994,154.181 140.798,165.346 139.601,166.542C138.405,167.738 136.411,167.738 132.423,175.714Z" style="fill:rgb(251,216,187);fill-rule:nonzero;"/>
        <path d="M133.62,137.034C133.62,137.034 136.81,140.224 140,140.224C143.19,140.224 149.969,133.844 149.969,133.844C149.969,133.844 137.607,137.832 133.62,137.034Z" style="fill:rgb(251,216,187);fill-rule:nonzero;"/>
        <path d="M110.891,150.193C110.891,150.193 115.676,145.807 119.265,145.807C119.265,145.807 117.271,143.813 113.682,144.212C110.093,144.61 109.295,148.997 110.891,150.193Z" style="fill:rgb(251,216,187);fill-rule:nonzero;"/>
        <g>
            <clipPath id="_clip17">
                <path d="M137.775,224.793C136.339,224.004 134.832,223.286 134.832,223.286C137.272,223.932 140.255,223.573 140.255,223.573C140.255,223.573 139.21,225.583 137.775,224.793ZM128.157,220.917C128.157,220.917 125.429,222.712 122.558,220.917C119.687,219.123 119.328,216.897 119.328,216.897C119.615,211.012 125.788,213.739 125.788,213.739C121.338,212.734 121.266,216.108 121.266,216.108C125.573,214.673 128.946,218.549 128.946,218.549C130.238,219.123 132.248,218.118 132.248,218.118C131.961,220.702 128.157,220.917 128.157,220.917ZM144.211,223.214C143.732,224.267 142.871,224.075 142.871,224.075C143.732,219.864 135.598,215.653 135.598,215.653C134.258,210.964 130.524,211.442 130.524,211.442C131.77,212.399 132.248,214.601 132.248,214.601C125.836,206.944 101.911,200.724 94.35,198.14C86.789,195.556 85.21,188.799 85.21,188.799C86.889,191.725 89.373,191.728 89.373,191.728C86.119,182.923 81.047,186.655 81.047,186.655C78.272,192.015 78.367,197.757 78.367,197.757C85.258,210.485 112.725,215.462 112.725,215.462C112.916,212.208 116.457,211.251 116.457,211.251C116.457,211.251 113.107,215.271 116.361,221.683C119.615,228.095 128.707,224.649 128.707,224.649C130.047,227.521 134.641,228.765 136.747,229.052C138.852,229.339 139.617,226.659 140.766,225.798C141.914,224.937 141.914,226.276 143.445,226.468C144.977,226.659 144.211,223.214 144.211,223.214Z"/>
            </clipPath>
            <g clip-path="url(#_clip17)">
                <path d="M117.669,219.976C117.669,219.976 114.081,214.792 116.872,210.805C119.663,206.817 124.448,207.614 124.448,207.614L130.429,211.603L132.423,214.792L134.252,214.328C134.252,214.328 135.215,216.786 134.816,217.583C134.816,217.583 139.601,218.381 140.398,221.571C140.398,221.571 133.62,221.97 131.227,220.773C131.227,220.773 131.825,220.176 132.224,218.182C132.224,218.182 130.229,218.58 128.634,217.384C128.634,217.384 125.844,214.991 123.85,214.991C123.85,214.991 123.85,214.593 125.844,213.795C125.844,213.795 117.869,209.409 117.669,219.976Z" style="fill:white;fill-rule:nonzero;"/>
                <path d="M81.382,184.486C81.382,184.486 82.977,198.044 98.13,201.234C113.283,204.425 122.854,210.007 122.854,210.007L124.448,207.614L106.504,200.836C106.504,200.836 82.179,195.651 84.173,184.885C86.167,174.119 81.382,184.088 81.382,184.088" style="fill:white;fill-rule:nonzero;"/>
            </g>
        </g>
        <clipPath id="_clip18">
            <path d="M89.852,114.783C89.852,114.783 90.086,120.122 95.45,126.268C103.229,135.18 110.237,150.193 102.389,169.813C102.389,169.813 93.393,162.635 91.861,160.529C91.861,160.529 95.307,147.992 90.234,140.432C85.162,132.871 79.229,118.229 89.852,114.783Z"/>
        </clipPath>
        <g clip-path="url(#_clip18)">
            <path d="M90.553,111.114L89.756,114.703C89.756,114.703 84.572,115.501 85.768,125.071C86.964,134.642 89.357,140.224 89.357,140.224C89.357,140.224 75.799,119.888 80.585,110.317C85.37,100.747 90.553,111.114 90.553,111.114Z" style="fill:white;fill-rule:nonzero;"/>
        </g>
        <path d="M116.872,169.732C116.872,169.732 116.872,173.72 119.265,174.518C121.657,175.315 126.043,168.536 126.043,168.536C126.043,168.536 118.866,170.53 116.872,169.732Z" style="fill:white;fill-rule:nonzero;"/>
        <path d="M112.087,145.807C112.087,145.807 111.29,147.003 111.29,147.801C111.29,147.801 113.682,145.807 114.878,145.807C114.878,145.807 113.283,144.61 112.087,145.807Z" style="fill:white;fill-rule:nonzero;"/>
        <clipPath id="_clip19">
            <path d="M82.482,130.67C82.482,130.67 84.588,138.996 88.225,144.595C88.225,144.595 84.014,152.873 90.809,162.061C97.604,171.248 113.395,178.616 112.916,200.628C112.916,200.628 97.412,198.522 93.775,193.929C93.775,193.929 95.307,189.048 87.65,182.444C79.994,175.842 75.592,166.654 75.592,166.654L75.592,138.996C75.592,138.996 76.549,134.115 82.482,130.67Z"/>
        </clipPath>
        <g clip-path="url(#_clip19)">
            <path d="M82.578,128.262L82.578,130.654C82.578,130.654 73.805,136.236 75.4,171.727C76.996,207.216 45.095,146.604 45.095,146.604L55.462,125.869L82.977,127.862" style="fill:white;fill-rule:nonzero;"/>
        </g>
        <clipPath id="_clip20">
            <path d="M122.295,103.299C122.295,103.299 118.658,116.889 129.567,115.07C140.479,113.252 157.227,102.15 163.639,102.725C170.051,103.299 173.592,108.971 173.592,108.971C173.592,108.971 137.332,134.05 121.447,129.092C96.455,121.291 110.811,98.036 122.295,103.299Z"/>
        </clipPath>
        <g clip-path="url(#_clip20)">
            <path d="M116.074,110.716C116.074,110.716 116.074,117.894 124.05,118.292C132.025,118.691 156.748,104.734 165.919,102.342C175.091,99.95 142.791,102.342 142.791,102.342L130.429,112.71C130.429,112.71 121.258,118.691 116.074,110.716Z" style="fill:white;fill-rule:nonzero;"/>
        </g>
        <g>
            <clipPath id="_clip21">
                <path d="M190.483,183.784C190.483,183.784 190.244,181.057 189.048,181.104C189.048,181.104 190.733,184.358 188.646,186.655C186.576,188.935 180.584,189.326 182.402,184.428L182.444,184.311L182.402,184.428C182.307,184.745 182.144,185.634 183.114,186.177C184.311,186.847 189.239,178.329 189.239,178.329C189.239,178.329 191.105,179.86 190.483,183.784ZM178.568,193.163C180.291,193.211 182.588,191.823 182.588,191.823C181.152,195.125 178.568,193.163 178.568,193.163ZM190.627,145.785C190.627,145.785 192.541,166.75 187.66,173.162C187.66,173.162 189.957,170.961 194.455,172.396C194.455,172.396 188.426,172.875 184.789,179.765C184.789,179.765 184.789,176.798 186.225,174.98C186.225,174.98 182.588,176.033 181.152,178.138C179.717,180.243 178.86,183.784 175.413,184.741C175.413,184.741 175.362,186.177 176.271,186.942C176.271,186.942 177.324,186.655 178.186,185.268C178.186,185.268 178.329,188.426 175.841,189.048C173.353,189.67 172.874,192.637 172.874,192.637C172.874,192.637 173.305,193.307 174.501,193.881C174.501,193.881 173.735,194.503 172.874,194.407C172.874,194.407 172.156,195.412 172.587,197.374C172.587,197.374 173.113,195.699 175.075,195.651C177.037,195.604 179.382,198.092 182.109,197.039C184.837,195.986 191.44,188.091 191.44,188.091C191.44,188.091 189.239,192.445 188.569,194.79C187.899,197.135 187.421,202.111 185.698,202.446C183.976,202.781 181.535,202.111 180.961,203.26C180.961,203.26 185.268,204.073 186.751,203.26C188.234,202.446 192.254,191.01 194.024,188.856C195.795,186.703 199.191,186.32 196.369,177.229C196.369,177.229 198.521,178.521 198.904,180.674C198.904,180.674 213.308,161.569 190.627,145.785Z"/>
            </clipPath>
            <g clip-path="url(#_clip21)">
                <path d="M187.054,174.518C187.054,174.518 184.263,176.112 182.667,177.707C181.072,179.303 178.68,183.688 178.68,183.688C178.68,183.688 176.287,185.284 175.091,185.284C173.895,185.284 175.889,182.492 175.889,182.492L184.263,173.321L187.054,174.518Z" style="fill:white;fill-rule:nonzero;"/>
                <path d="M177.882,185.284C177.882,185.284 178.68,187.677 177.882,188.474C177.085,189.271 174.293,190.069 173.895,191.664C173.895,191.664 173.895,192.462 174.692,193.658L171.502,193.658L171.9,190.866L176.287,187.677C176.287,187.677 177.882,186.48 177.882,185.284Z" style="fill:white;fill-rule:nonzero;"/>
                <path d="M183.465,187.277L182.294,184.747C182.294,184.747 185.06,184.885 189.048,178.505L188.648,180.1L183.465,187.277Z" style="fill:white;fill-rule:nonzero;"/>
                <path d="M188.648,174.119C188.648,174.119 184.661,177.707 184.661,179.701C184.661,179.701 189.845,173.72 194.63,172.523C194.63,172.523 190.244,172.923 188.648,174.119Z" style="fill:white;fill-rule:nonzero;"/>
                <path d="M190.244,158.168C190.244,158.168 194.231,166.542 187.852,174.119L185.459,172.125L190.244,158.168Z" style="fill:white;fill-rule:nonzero;"/>
            </g>
        </g>
        <path d="M175.489,118.292C175.489,118.292 190.244,134.243 184.263,159.764C184.263,159.764 185.857,134.243 175.489,118.292Z" style="fill:white;fill-rule:nonzero;"/>
        <clipPath id="_clip22">
            <path d="M184.119,105.5C184.119,105.5 214.36,117.989 204.168,156.031C204.168,156.031 199.627,147.131 192.639,143.686C192.639,143.686 201.974,129.187 185.055,113.683C185.055,113.683 185.938,109.998 184.119,105.5Z"/>
        </clipPath>
        <g clip-path="url(#_clip22)">
            <path d="M181.87,104.734L183.066,105.532C183.066,105.532 210.92,124.625 197.79,152.163L201.409,154.579C201.409,154.579 214.967,121.084 181.87,104.734Z" style="fill:white;fill-rule:nonzero;"/>
        </g>
        <path d="M79.388,87.987L79.388,109.52C79.388,109.52 80.983,105.931 84.971,103.538C84.971,103.538 94.939,83.601 110.093,80.809C110.093,80.809 86.964,85.196 79.388,87.987Z" style="fill:white;fill-rule:nonzero;"/>
        <path d="M165.122,81.208C165.122,81.208 179.876,84.398 185.857,95.962C185.857,95.962 195.029,99.153 200.611,105.532L200.611,86.79C200.611,86.79 177.882,81.208 165.122,81.208Z" style="fill:white;fill-rule:nonzero;"/>
    </g>
</svg>
