<?xml version="1.0" encoding="UTF-8" standalone="no"?>
<!DOCTYPE svg PUBLIC "-//W3C//DTD SVG 1.1//EN" "http://www.w3.org/Graphics/SVG/1.1/DTD/svg11.dtd">
<svg width="100%" height="100%" viewBox="0 0 954 1063" version="1.1" xmlns="http://www.w3.org/2000/svg" xmlns:xlink="http://www.w3.org/1999/xlink" xml:space="preserve" xmlns:serif="http://www.serif.com/" style="fill-rule:evenodd;clip-rule:evenodd;stroke-linejoin:round;stroke-miterlimit:2;">
    <g transform="matrix(4.16667,0,0,4.16667,-195.771,-141.122)">
        <g id="Camada-1" serif:id="Camada 1">
            <g transform="matrix(1,0,0,1,1,0.9998)">
                <path d="M161.438,287.988L159.419,287.988L158.58,287.537C149.474,282.638 140.001,277.521 131.539,271.561C128.209,269.216 125.143,266.748 122.185,264.148C111.339,262.781 101.49,260.281 96.723,255.596L96.271,255.152L96.271,244.997C94.194,244.663 92.12,244.3 90.055,243.907L90.001,243.897L89.949,243.882C85.401,242.67 80.033,241.683 78.441,236.506L78.375,236.289L78.375,230.456C68.165,229.987 60.381,227.541 51.1,222.893L49.348,222.016L61.54,208.129L45.985,182.209L50.132,183.848C56.675,186.435 63.205,189.313 70.231,190.297C71.324,190.45 72.419,190.596 73.517,190.734C62.579,158.511 59.795,123.289 58.948,87.937L58.869,84.653L62.11,84.117C66.813,83.338 72.821,80.62 76.802,78.154C87.167,71.735 93.715,62.157 96.413,50.276L96.935,47.981L160.401,32.869L160.428,32.876L160.456,32.869L223.922,47.981L224.443,50.276C227.141,62.157 233.689,71.735 244.054,78.154C248.035,80.62 254.043,83.338 258.747,84.117L261.987,84.653L261.908,87.937C261.061,123.289 258.277,158.511 247.339,190.734C248.437,190.596 249.533,190.45 250.625,190.297C257.651,189.313 264.181,186.435 270.725,183.848L274.872,182.209L259.317,208.129L271.508,222.016L269.756,222.893C260.476,227.541 252.692,229.987 242.482,230.456L242.482,236.289L242.415,236.506C240.823,241.683 235.455,242.67 230.908,243.882L230.855,243.897L230.801,243.907C228.736,244.3 226.662,244.663 224.586,244.997L224.586,255.152L224.133,255.596C219.366,260.281 209.517,262.781 198.671,264.148C195.713,266.748 192.648,269.216 189.317,271.561C180.856,277.521 171.383,282.638 162.276,287.537L161.438,287.988Z"/>
            </g>
            <g transform="matrix(1,0,0,1,1,1.1058)">
                <path d="M160.428,284.101L160.429,284.102L160.486,284.102C176.435,275.522 184.832,270.428 191.986,264.741C179.928,265.775 167.669,265.719 160.472,265.926L160.428,265.927L160.385,265.926C153.187,265.719 140.929,265.775 128.87,264.741C136.024,270.428 144.421,275.522 160.371,284.102L160.427,284.102L160.428,284.101ZM243.167,191.104C254.844,157.837 257.313,121.816 258.129,87.74C258.129,87.74 227.965,82.747 220.757,51.007L160.458,36.649L160.428,36.656L160.399,36.649L100.1,51.007C92.891,82.747 62.727,87.74 62.727,87.74C63.543,121.816 66.012,157.837 77.689,191.104C79.875,191.325 82.065,191.501 84.252,191.61C86.771,191.736 89.296,191.667 91.816,191.821C95.045,192.019 99.251,192.434 101.808,194.589C103.219,195.777 103.746,196.734 103.885,198.585L104.538,207.228C106.687,207.588 108.837,208.012 110.964,208.46C113.473,208.987 116.058,209.556 118.513,210.295C120.545,210.907 122.93,212.062 122.93,214.523L122.93,225.778C125.565,226.13 128.211,226.414 130.859,226.655C140.682,227.55 150.566,227.907 160.428,227.907C170.29,227.907 180.175,227.55 189.998,226.655C192.646,226.414 195.291,226.13 197.927,225.778L197.927,214.523C197.927,212.062 200.312,210.907 202.343,210.295C204.798,209.556 207.384,208.987 209.893,208.46C212.019,208.012 214.169,207.588 216.318,207.228L216.971,198.585C217.111,196.734 217.638,195.777 219.048,194.589C221.605,192.434 225.812,192.019 229.041,191.821C231.561,191.667 234.085,191.736 236.605,191.61C238.792,191.501 240.981,191.325 243.167,191.104" style="fill:rgb(7,69,151);"/>
            </g>
            <g transform="matrix(1,0,0,1,1,1.1058)">
                <path d="M160.428,284.101L160.429,284.102L160.486,284.102C176.435,275.522 184.832,270.428 191.986,264.741C190.137,264.9 188.284,265.033 186.445,265.145C186.099,265.396 185.751,265.645 185.399,265.893C181.919,268.345 178.294,270.597 174.626,272.756C169.956,275.505 165.198,278.123 160.428,280.698C155.658,278.123 150.9,275.505 146.231,272.756C142.563,270.597 138.938,268.345 135.457,265.893C135.105,265.645 134.757,265.396 134.412,265.145C132.572,265.033 130.719,264.9 128.87,264.741C136.024,270.428 144.421,275.522 160.371,284.102L160.427,284.102L160.428,284.101ZM243.167,191.104C254.844,157.837 257.313,121.816 258.129,87.74C258.129,87.74 227.965,82.747 220.757,51.007L160.458,36.649L160.428,36.656L160.399,36.649L100.1,51.007C92.891,82.747 62.727,87.74 62.727,87.74C63.543,121.816 66.012,157.837 77.689,191.104C78.79,191.216 79.893,191.315 80.996,191.401C69.65,159.748 66.737,124.941 65.813,90.153C66.762,89.901 67.703,89.612 68.586,89.322C72.704,87.975 76.702,86.114 80.384,83.833C91.758,76.789 99.243,66.338 102.598,53.521L160.397,39.758L160.428,39.766L160.459,39.758L218.258,53.521C221.613,66.338 229.098,76.789 240.472,83.833C244.155,86.114 248.153,87.975 252.27,89.322C253.154,89.612 254.095,89.901 255.044,90.153C254.119,124.941 251.207,159.748 239.861,191.401C240.963,191.315 242.066,191.216 243.167,191.104ZM160.428,277.26C164.684,274.953 168.92,272.606 173.091,270.15C175.662,268.637 178.208,267.08 180.698,265.437C179.701,265.478 178.716,265.514 177.744,265.546C175.958,266.679 174.147,267.774 172.324,268.847C168.403,271.156 164.426,273.367 160.428,275.539C156.431,273.367 152.453,271.156 148.532,268.847C146.709,267.774 144.899,266.679 143.112,265.546C142.14,265.514 141.155,265.478 140.158,265.437C142.648,267.08 145.195,268.637 147.765,270.15C151.937,272.606 156.172,274.953 160.428,277.26ZM236.566,191.612C247.915,160.661 250.959,126.548 251.956,92.398C251.747,92.332 251.538,92.265 251.33,92.196C246.977,90.772 242.774,88.815 238.88,86.404C227.41,79.301 219.6,68.858 215.823,56.049L160.459,42.867L160.428,42.874L160.398,42.867L105.033,56.049C101.257,68.858 93.447,79.301 81.977,86.404C78.083,88.815 73.879,90.772 69.527,92.196C69.318,92.265 69.11,92.332 68.901,92.398C69.898,126.548 72.942,160.661 84.29,191.612C84.836,191.639 85.381,191.657 85.927,191.67C74.584,161.064 71.478,127.298 70.446,93.485C74.756,92.036 78.908,90.083 82.773,87.689C94.258,80.577 102.239,70.154 106.228,57.319L160.399,44.421L160.428,44.428L160.458,44.421L214.628,57.319C218.617,70.154 226.599,80.577 238.084,87.689C241.949,90.083 246.1,92.036 250.411,93.485C249.378,127.298 246.272,161.064 234.929,191.67C235.475,191.657 236.021,191.639 236.566,191.612ZM247.318,95.592C243.549,94.17 239.915,92.381 236.492,90.26C224.907,83.086 216.652,72.668 212.279,59.868L160.459,47.53L160.428,47.537L160.397,47.53L108.578,59.868C104.204,72.668 95.949,83.086 84.365,90.26C80.941,92.381 77.307,94.17 73.538,95.592C74.64,128.701 77.852,161.785 89.181,191.724C89.727,191.735 90.273,191.749 90.818,191.771C79.489,162.161 76.222,129.402 75.086,96.614C78.584,95.226 81.961,93.528 85.161,91.546C96.764,84.36 105.165,73.958 109.732,61.147L160.398,49.084L160.428,49.091L160.459,49.084L211.124,61.147C215.692,73.958 224.093,84.36 235.695,91.546C238.895,93.528 242.272,95.226 245.77,96.614C244.634,129.402 241.367,162.161 230.038,191.771C230.584,191.749 231.129,191.735 231.675,191.724C243.004,161.785 246.217,128.701 247.318,95.592ZM149.164,265.708L150.066,266.241C153.485,268.254 156.947,270.192 160.428,272.095C163.909,270.192 167.371,268.254 170.79,266.241L171.692,265.708C170.632,265.73 169.602,265.749 168.606,265.767C165.901,267.338 163.171,268.867 160.428,270.372C157.685,268.867 154.955,267.338 152.25,265.767C151.254,265.749 150.224,265.73 149.164,265.708" style="fill:rgb(233,163,29);"/>
            </g>
            <g transform="matrix(1,0,0,1,1,130.15)">
                <path d="M220.023,66.701C222.258,64.817 226.308,64.459 229.133,64.286C231.647,64.133 234.164,64.202 236.68,64.076C241.313,63.845 246.254,63.286 250.835,62.644C258.033,61.637 264.573,58.756 271.28,56.104L257.452,79.147L269.08,92.391C259.585,97.146 251.844,99.555 240.97,99.848L240.97,106.912C239.621,111.3 234.754,112.141 230.518,113.272C228.161,113.72 225.469,114.184 223.074,114.554L223.074,125.368C212.659,135.602 175.053,134.952 160.428,135.37C145.804,134.952 108.197,135.602 97.783,125.368L97.783,114.554C95.387,114.184 92.696,113.72 90.338,113.272C86.102,112.141 81.236,111.3 79.887,106.912L79.887,99.848C69.012,99.555 61.271,97.146 51.777,92.391L63.404,79.147L49.576,56.104C56.284,58.756 62.823,61.637 70.021,62.644C74.603,63.286 79.543,63.845 84.176,64.076C86.692,64.202 89.209,64.133 91.724,64.286C94.549,64.459 98.599,64.817 100.834,66.701C101.931,67.625 102.268,68.209 102.378,69.654L103.12,79.487C107.039,80.096 114.302,81.562 118.077,82.699C119.973,83.269 121.418,84.094 121.418,85.479L121.418,98.052C125.044,98.568 128.416,98.907 130.722,99.117C140.54,100.012 150.566,100.375 160.428,100.375C170.29,100.375 180.317,100.012 190.135,99.117C192.44,98.907 195.812,98.568 199.439,98.052L199.439,85.479C199.439,84.094 200.884,83.269 202.78,82.699C206.554,81.562 213.818,80.096 217.736,79.487L218.479,69.654C218.588,68.209 218.925,67.625 220.023,66.701ZM219.191,96.628L219.191,123.706C208.947,130.846 172.545,131.526 160.428,131.611C148.312,131.526 111.909,130.846 101.665,123.706L101.665,96.628C111.909,103.768 148.312,104.448 160.428,104.533C172.545,104.448 208.947,103.768 219.191,96.628ZM101.665,95.262C107.355,98.538 117.26,99.926 117.26,99.926L117.26,90.599C113.064,93.147 102.922,93.536 101.665,95.262ZM98.748,72.995L98.748,81.603C98.748,81.603 89.5,79.707 87.096,78.995C84.691,78.283 83.651,77.94 83.715,77.055C83.78,76.17 86.42,75.012 90.18,74.782C93.95,74.332 96.822,73.812 98.748,72.995ZM83.713,79.49L83.713,106.171C83.713,106.171 85.206,108.061 91.116,109.187C97.027,110.313 99.859,110.693 99.859,110.693L99.859,95.092C99.859,95.092 100.428,92.958 103.355,92.495C106.282,92.031 113.619,90.493 115.439,89.623C117.26,88.754 116.954,87.743 116.954,87.743C116.954,87.743 116.77,86.805 110.526,85.369C104.282,83.933 86.853,82.058 83.713,79.49ZM81.951,95.721L81.951,77.299C81.951,77.299 81.865,75.378 83.937,74.493C86.009,73.609 89.117,73.004 92.247,72.659C95.376,72.314 98.291,71.982 98.748,71.102C99.206,70.222 97.815,69.4 96.311,69.073C94.806,68.746 89.019,68.481 83.969,68.229C78.918,67.977 73.285,67.771 69.445,67.233C65.604,66.695 59.036,64.314 59.036,64.314L68.254,79.062C68.254,79.062 68.44,79.353 68.44,79.526C68.44,79.7 67.977,80.241 67.977,80.241L58.448,91.095C66.784,94.524 73.037,95.721 81.951,95.721ZM219.191,95.262C213.502,98.538 203.597,99.926 203.597,99.926L203.597,90.599C207.793,93.147 217.934,93.536 219.191,95.262ZM222.353,73.171L222.108,81.603C222.108,81.603 231.357,79.707 233.761,78.995C236.165,78.283 237.205,77.94 237.141,77.055C237.077,76.17 234.437,75.012 230.676,74.782C226.907,74.332 224.279,73.988 222.353,73.171ZM237.144,79.49L237.144,106.171C237.144,106.171 235.65,108.061 229.74,109.187C223.83,110.313 220.998,110.693 220.998,110.693L220.998,95.092C220.998,95.092 220.429,92.958 217.502,92.495C214.574,92.031 207.238,90.493 205.417,89.623C204.644,89.254 203.127,88.141 204.295,87.367C204.902,86.965 206.44,86.264 210.33,85.369C216.574,83.933 234.003,82.058 237.144,79.49ZM238.905,95.721L238.905,77.299C238.905,77.299 238.991,75.378 236.919,74.493C234.847,73.609 231.739,73.004 228.61,72.659C225.48,72.314 222.787,71.982 222.33,71.102C221.872,70.222 223.041,69.4 224.546,69.073C226.05,68.746 231.837,68.481 236.888,68.229C246.619,67.742 252.43,67.719 261.82,64.314L252.602,79.062C252.602,79.062 252.416,79.353 252.416,79.526C252.416,79.7 252.88,80.241 252.88,80.241L262.408,91.095C254.072,94.524 247.819,95.721 238.905,95.721" style="fill:rgb(233,163,29);"/>
            </g>
            <g transform="matrix(1,0,0,1,1,170.529)">
                <path d="M176.414,76.215C176.942,76.46 179.365,80.517 179.947,81.293L181.209,81.139L181.269,73.31C178.746,73.493 180.702,73.665 180.177,78.25C179.844,78.053 177.534,74.277 177.177,73.655C176.545,73.639 175.394,73.724 174.895,73.918C174.936,74.776 175.387,74.09 175.407,75.517C175.431,77.329 175.252,80.022 175.325,81.537L176.483,81.505C176.607,80.973 176.379,77.216 176.414,76.215ZM118.253,70.283C117.82,69.984 116.482,69.825 116.057,70.046L116.444,70.756C116.707,71.241 116.612,73.05 116.613,73.655C116.616,74.771 116.505,76.653 116.624,77.719L117.842,77.934C117.79,76.242 117.495,74.485 117.597,72.611C118.125,73.104 119.201,75.208 119.696,76.062C121.077,78.447 120.914,78.861 122.473,78.838C122.513,77.695 122.375,76.226 122.366,74.991C122.36,74.004 122.48,71.837 122.354,70.991L121.116,70.81C121.206,72.401 121.329,73.785 121.358,75.457C120.543,75.004 118.744,70.623 118.253,70.283ZM108.16,68.257C108.346,69.451 108.736,68.041 108.751,70.58C108.769,73.61 108.37,75.789 110.999,76.749C112.762,77.393 114.284,76.925 114.406,75C114.493,73.642 114.499,70.864 114.437,69.549L113.022,69.195C113.135,70.759 114.138,76.434 111.742,75.863C109.502,75.33 110.629,70.744 110.35,68.581C109.944,68.467 108.471,68.094 108.16,68.257ZM207.639,77.004C207.74,74.412 208.008,74.486 209.035,74.254C210.65,73.89 210.182,73.772 210.756,76.285C211.202,76.323 212.337,76.072 212.696,75.793C212.677,75.593 210.655,68.799 210.495,68.44C208.849,68.57 208.685,69.152 208.501,69.845L206.162,77.355L207.639,77.004ZM135.605,77.267C135.605,76.781 136.111,74.719 136.409,74.426C136.716,74.706 137.161,76.91 137.185,77.436L135.605,77.267ZM134.859,80.548C134.843,79.556 134.92,79.06 135.244,78.227C138.652,77.875 137.253,79.592 138.162,80.934L140,81.094L137.617,72.845L135.903,72.891C135.241,74.299 134.376,77.801 133.657,79.464C133.138,80.666 133.343,80.485 134.859,80.548ZM184.927,80.793C186.721,80.869 186.464,80.794 186.856,79.451C187.295,77.949 189.061,73.211 189.146,72.441L187.696,72.661L187.569,73.123C187.355,74.38 186.506,78.401 185.944,78.965L184.547,73.107C184.368,73.019 184.583,73.068 184.253,73.028L183.45,73.077C182.831,73.143 182.779,73.134 182.35,73.331C182.487,74.128 182.496,73.582 182.889,74.228C183.268,74.854 184.483,80.159 184.927,80.793ZM154.221,74.15C153.213,74.124 150.273,73.916 149.611,74.158C149.746,74.582 149.6,74.29 149.775,74.585C149.868,74.742 149.912,74.71 150.014,74.882C150.394,75.526 150.085,80.783 150.117,81.674C150.616,81.986 153.819,82.034 154.319,81.983C154.563,81.579 154.6,80.973 154.605,80.46C153.067,81.066 151.495,82.171 151.844,78.251C152.449,78.024 153.159,78.21 153.838,78.212L153.839,77.206L151.945,77.13C151.685,76.609 151.763,75.513 151.923,75C153.249,74.859 153.137,75.207 153.98,75.523L154.221,74.15ZM199.362,72.748C199.588,72.372 199.813,71.394 199.63,70.966C197.466,70.206 193.741,71.987 193.92,76.057C194.046,78.926 196.063,79.912 198.553,78.869C199.354,78.534 199.422,78.077 199.534,77.082C198.833,77.43 197.968,78.547 196.806,77.814C195.464,76.969 195.369,73.567 196.819,72.311C198.131,71.174 198.96,72.588 199.362,72.748ZM155.817,81.908C159.059,83.287 161.173,80.249 159.81,78.329C159.205,77.477 157.581,76.846 157.339,76.24C157.057,75.532 157.479,74.948 158.191,74.973C158.922,74.999 159.014,75.506 159.517,75.76C159.702,75.43 159.845,74.828 159.795,74.325C157.727,73.593 155.584,74.316 155.767,76.725C155.957,79.215 158.958,78.438 158.562,80.866C158.24,81.166 157.819,81.529 157.082,81.188C156.597,80.963 156.648,80.586 155.985,80.281C155.895,80.779 155.713,81.349 155.817,81.908ZM140.959,81.031C143.786,82.755 146.461,80.164 144.992,77.772C144.397,76.805 143.016,76.436 142.585,75.628C142.267,75.032 142.538,74.347 143.227,74.32C144.053,74.289 144.068,74.861 144.696,75.156C144.93,74.73 145.013,74.297 144.965,73.784C141.195,72.201 139.934,75.754 141.692,77.459C142.271,78.021 143.933,78.757 143.854,79.789C143.805,80.426 143.201,80.794 142.475,80.567C141.765,80.345 141.881,79.833 141.183,79.489L140.959,81.031ZM166.989,74.179L161.135,74.296C160.92,74.664 160.868,75.205 160.851,75.688C161.487,75.547 162.154,74.765 163.031,75.245C163.416,76.277 162.874,80.584 163.061,82.046L164.813,82.021C164.908,81.255 164.608,77.047 164.785,75.159C165.992,74.896 166.028,75.283 166.788,75.57L166.989,74.179ZM127.463,73.245C128.235,73.139 129.676,72.151 129.693,73.774L129.693,79.797C129.992,79.997 131.097,80.139 131.426,80.169C131.505,79.618 131.338,78.13 131.334,77.397L131.354,73.274C132.421,73.219 132.655,73.717 133.377,73.968L133.458,72.649L127.594,71.915L127.463,73.245ZM206.415,69.539L202.142,70.4C200.614,70.671 200.48,70.367 200.384,72.107C201.157,71.832 201.37,71.213 202.611,71.23L202.477,78.03L204.246,77.664C204.267,76.513 204.182,75.253 204.195,74.055C204.219,71.842 203.587,69.817 206.228,70.995L206.415,69.539ZM170.874,74.157C171.003,75.061 171.382,74.353 171.416,75.649C171.462,77.405 171.268,80.315 171.367,81.674C171.782,81.853 172.599,81.768 173.149,81.672L173.039,73.929C172.355,73.919 171.4,73.939 170.874,74.157ZM190.05,72.585C190.29,73.272 190.607,72.678 190.624,74.046L190.479,79.986C191.068,79.974 191.858,79.944 192.291,79.669C192.314,78.443 192.231,77.064 192.235,75.793C192.239,74.675 192.363,73.077 192.274,72.038C191.595,72.034 190.442,72.106 190.05,72.585ZM126.245,75.526C126.241,74.346 126.335,72.755 126.251,71.641C122.839,71.118 124.251,71.517 124.532,72.404C124.736,73.044 124.462,77.627 124.61,79.147L126.394,79.416C126.391,78.252 126.249,76.833 126.245,75.526ZM208.489,73.469L209.952,73.152C209.939,72.531 209.529,70.728 209.253,70.344C209.013,70.724 208.398,72.976 208.489,73.469" style="fill:rgb(233,163,29);"/>
            </g>
            <g transform="matrix(1,0,0,1,1,-26.9597)">
                <path d="M148.476,161.379L148.998,255.803C142.942,255.617 136.889,255.27 130.859,254.721C128.583,254.514 126.31,254.275 124.042,253.988L131.202,242.645L131.297,131.547C129.338,129.377 127.563,127.409 124.94,125.743L124.94,92.987C124.94,92.987 133.923,96.216 139.592,102.618C145.26,109.019 151.079,115.689 157.429,128.782C163.78,141.876 170.631,164.162 170.631,164.162L170.631,96.066L197.492,96.066L188.745,107.584L188.745,254.832C182.829,255.343 176.893,255.663 170.954,255.829C170.473,250.942 169.563,242.736 168.215,234.838C166.107,222.491 162.189,202.1 157.025,184.938C151.861,167.775 148.476,161.379 148.476,161.379" style="fill:rgb(233,163,29);"/>
            </g>
            <g transform="matrix(1,0,0,1,1,-93.4713)">
                <path d="M216.511,195.288L218.246,204.119L223.756,200.418L220.056,205.929L228.887,207.664L220.056,209.399L223.756,214.91L218.246,211.209L216.511,220.04L214.775,211.209L209.265,214.91L212.966,209.399L204.135,207.664L212.966,205.929L209.265,200.418L214.776,204.119L216.511,195.288Z" style="fill:rgb(233,163,29);"/>
            </g>
            <g transform="matrix(1,0,0,1,1,26.2334)">
                <path d="M108.284,136.677C114.433,136.677 119.418,141.662 119.418,147.812C119.418,153.961 114.433,158.946 108.284,158.946C102.135,158.946 97.15,153.961 97.15,147.812C97.15,141.662 102.135,136.677 108.284,136.677ZM105.098,138.705C108.081,140.471 110.102,143.887 110.102,147.812C110.102,151.736 108.081,155.152 105.098,156.919C101.336,155.603 98.638,152.023 98.638,147.812C98.638,143.601 101.336,140.021 105.098,138.705" style="fill:rgb(233,163,29);"/>
            </g>
            <g transform="matrix(1,0,0,1,1,-81.5956)">
                <path d="M113.313,206.486C112.957,206.312 112.715,205.897 112.546,205.563C113.118,205.666 113.288,205.881 113.313,206.486ZM114.471,192.791C114.104,192.784 111.171,191.685 110.574,191.445C109.064,190.837 108.275,190.349 107.132,189.638C107.69,190.963 109.814,192.95 111.133,193.757C111.548,194.011 111.66,194.002 111.745,194.365C110.373,194.361 109.4,194.512 108.104,194.624C106.427,194.769 105.815,194.393 104.439,194.24L104.992,194.692C106.024,195.253 107.255,195.553 108.387,195.862C108.826,195.982 109.578,196.095 109.847,196.36C108.753,197.018 107.291,197.195 105.873,197.271C106.438,198.018 107.494,198.037 108.477,198.115C108.306,198.709 107.696,198.585 107.256,199.092C107.539,199.524 108.081,199.847 108.474,200.369C108.008,200.126 107.745,199.876 107.223,199.618C105.128,198.579 104.736,199.008 104.082,196.127C103.412,193.177 103.522,191.446 100.734,190.62C97.304,189.603 93.196,189.555 89.693,188.536C89.139,188.375 88.58,188.163 88.079,187.92C87.575,187.675 87.139,187.263 86.707,187.154C86.977,187.894 88.65,189.772 89.278,190.237C90.564,191.189 93.081,191.053 93.775,191.546C93.254,191.931 90.267,192.236 89.398,192.209C87.136,192.138 86.837,191.54 85.225,191.094C85.702,192.154 88.237,193.419 89.246,193.913C92,195.258 92.704,194.287 95.02,194.134C94.771,194.612 93.333,195.433 92.658,195.72C91.093,196.387 90.659,196.025 89.034,196.091C89.589,196.573 90.769,196.808 91.613,196.926C93.14,197.139 93.461,196.751 94.597,196.475C94.041,197.18 92.984,197.143 91.83,197.069C92.074,197.638 92.4,197.603 93.024,197.816C93.525,197.986 94.021,198.132 94.606,198.13C96.193,198.124 96.444,197.004 97.162,196.894C97.084,198.051 96.496,200.18 96.947,201.201C97.514,201.106 97.467,200.931 97.834,200.574C97.576,201.322 96.674,201.513 97.207,202.477C97.813,202.473 97.641,202.288 98.083,201.969C97.695,202.792 96.647,203.409 99.27,203.697C99.954,203.773 100.681,203.814 101.228,204.039C100.98,204.651 100.83,204.45 100.485,204.84C99.847,205.559 100.625,207.178 97.596,207.035C96.683,206.992 95.557,206.739 94.783,206.473C94.047,206.219 92.902,205.558 92.431,205.496C93.001,206.613 94.396,207.105 95.586,207.891C94.178,208.032 93.252,207.198 92.105,206.824C92.647,208.104 94.223,209.154 95.555,209.588L96.168,209.891C95.712,210.109 95.106,209.997 94.606,210.09L94.036,210.333C97.621,211.65 96.661,211.142 98.772,210.662C98.551,211.093 98.273,211.311 97.909,211.631L96.776,212.52C98.464,212.386 98.956,211.886 100.07,211.334C99.977,212.077 99.291,212.162 98.912,212.861C99.968,212.901 100.467,211.941 101.384,211.693C101.122,212.341 100.84,212.178 100.591,212.712C102.06,212.631 102.946,211.679 103.689,210.645C104.063,210.124 104.053,210.053 104.847,210.316C104.982,210.973 104.798,211.084 104.677,211.582C105.516,212.578 105.573,212.127 106.052,213.796C106.579,215.633 105.943,215.592 105.954,216.88C107.207,216.279 106.719,215.4 107.226,214.895C107.637,215.265 107.417,215.74 107.381,216.389C107.583,216.294 108.15,215.715 108.369,215.485C108.999,214.07 104.642,212.046 106.445,210.433C106.753,210.505 106.961,210.685 107.191,210.834C107.319,211.868 107.163,212.422 108.272,212.645C108.16,212.09 107.99,212.108 108.04,211.482C108.829,211.579 108.616,212.43 109.06,212.757C109.282,212.09 109.083,211.865 109.026,211.161C109.809,211.406 109.674,211.776 109.998,212.451C110.762,211.787 110.464,211.044 109.769,210.467C108.744,209.617 107.751,211.264 107.484,209.891C107.879,209.641 108.127,209.807 108.657,209.874C108.976,209.253 108.529,209.593 109.089,209.311C109.587,209.061 109.444,209.143 109.698,208.752C111.01,208.538 110.309,208.221 111.211,207.877C112.57,207.359 114.091,209.15 114.647,210.146C114.9,210.599 114.761,210.567 115.153,210.764C115.813,209.424 114.796,208.237 114.499,207.312C114.255,206.552 114.594,206.211 114.168,205.42C113.924,204.969 113.565,204.505 113.339,204.035C113.015,203.362 113.201,202.844 113.548,202.293C115.391,199.362 118.325,198.612 118.893,196.446C119.77,193.101 117.845,190.759 116.37,188.127C116.115,187.672 115.882,186.989 115.59,186.644C115.457,187.592 116.278,190.152 116.374,191.335C115.829,191.005 114.773,189.411 113.034,188.341C112.163,187.805 109.478,186.73 108.339,186.572L108.714,186.934C110.345,188.234 111.719,189.545 113.091,191.147C113.517,191.645 114.234,192.318 114.471,192.791" style="fill:rgb(233,163,29);"/>
            </g>
            <g transform="matrix(1,0,0,1,1,26.2474)">
                <path d="M210.513,142.923L204.986,142.923L204.986,142.547L206.915,142.547L206.915,133.482C206.915,133.254 206.864,133.106 206.757,133.035C206.651,132.967 206.387,132.932 205.967,132.932L204.907,132.932L204.907,132.556L208.649,132.36L208.649,142.547L210.513,142.547L210.513,142.923ZM213.258,135.614L212.832,135.614L213.721,132.588L219.455,132.588L219.455,132.886C219.332,133.087 219.188,133.354 219.022,133.687C218.858,134.019 218.646,134.477 218.39,135.058L217.558,136.93C217.291,137.538 217.084,138.094 216.94,138.601C216.792,139.105 216.719,139.522 216.719,139.846C216.719,140.154 216.79,140.56 216.926,141.062C217.065,141.561 217.133,141.926 217.133,142.155C217.133,142.479 217.049,142.733 216.88,142.913C216.708,143.095 216.473,143.185 216.171,143.185C215.808,143.185 215.533,143.079 215.342,142.869C215.152,142.659 215.056,142.354 215.056,141.956C215.056,141.544 215.323,140.751 215.86,139.574C215.997,139.26 216.105,139.018 216.187,138.849L218.245,134.245L218.245,134.109L214.241,134.109C214.01,134.109 213.833,134.196 213.704,134.368C213.576,134.54 213.426,134.957 213.258,135.614ZM209.224,157.725C209.243,157.48 209.259,157.216 209.27,156.935C209.281,156.652 209.286,156.335 209.286,155.984C209.286,154.76 209.166,153.918 208.924,153.457C208.682,152.997 208.267,152.767 207.681,152.767C207.185,152.767 206.809,152.969 206.55,153.375C206.291,153.779 206.163,154.362 206.163,155.123L206.163,156.624C206.163,157.412 206.275,157.979 206.496,158.328C206.716,158.676 207.073,158.851 207.569,158.851C207.867,158.851 208.136,158.772 208.376,158.611C208.616,158.453 208.897,158.156 209.224,157.725ZM204.953,163.25L204.953,162.89C206.182,162.683 207.158,162.192 207.883,161.421C208.605,160.65 209.041,159.633 209.191,158.371C208.908,158.687 208.616,158.922 208.314,159.077C208.008,159.232 207.689,159.309 207.354,159.309C206.455,159.309 205.708,159.001 205.111,158.387C204.514,157.771 204.217,156.995 204.217,156.057C204.217,155.062 204.55,154.207 205.212,153.496C205.874,152.781 206.678,152.424 207.621,152.424C208.66,152.424 209.51,152.836 210.172,153.662C210.834,154.487 211.167,155.567 211.167,156.902C211.167,158.567 210.586,159.998 209.423,161.195C208.259,162.389 206.768,163.075 204.953,163.25ZM218.834,162.988L213.307,162.988L213.307,162.612L215.236,162.612L215.236,153.547C215.236,153.318 215.184,153.171 215.078,153.1C214.972,153.032 214.707,152.997 214.288,152.997L213.227,152.997L213.227,152.62L216.969,152.424L216.969,162.612L218.834,162.612L218.834,162.988Z" style="fill:rgb(233,163,29);fill-rule:nonzero;"/>
            </g>
        </g>
    </g>
</svg>
