<?xml version="1.0" encoding="UTF-8" standalone="no"?>
<!DOCTYPE svg PUBLIC "-//W3C//DTD SVG 1.1//EN" "http://www.w3.org/Graphics/SVG/1.1/DTD/svg11.dtd">
<svg width="100%" height="100%" viewBox="0 0 319 456" version="1.1" xmlns="http://www.w3.org/2000/svg" xmlns:xlink="http://www.w3.org/1999/xlink" xml:space="preserve" xmlns:serif="http://www.serif.com/" style="fill-rule:evenodd;clip-rule:evenodd;stroke-miterlimit:2.6;">
    <g id="layer4" transform="matrix(-1,0,0,1,321.031,0)">
        <path id="path3974-2" d="M166.982,50.511C166.86,48.621 165.872,46.565 164.044,44.042L161.326,40.721L160.513,39.564L159.669,40.846L156.982,44.042C155.155,46.565 154.166,48.621 154.044,50.511C153.923,52.402 154.687,54.084 156.263,55.761C157.767,57.362 159.132,58.2 160.513,58.167C161.895,58.2 163.259,57.362 164.763,55.761C166.339,54.084 167.104,52.402 166.982,50.511Z" style="fill:white;fill-rule:nonzero;stroke:black;stroke-width:0.5px;"/>
        <path id="path3249" d="M167.156,31.031C168.192,31.736 169.333,32.672 170.719,34.031C176.005,40.318 178.867,45.413 179.219,50.125C179.386,52.37 178.939,54.496 177.969,56.563C179.97,55.656 182.047,55.275 184.219,55.438C188.931,55.789 194.057,58.651 200.344,63.938C202,65.275 202.984,66.631 203.719,67.969C201.019,48.977 186.086,33.924 167.156,31.031ZM203.719,67.969L203.719,67.969M203.75,80.156C202.996,81.358 201.997,82.689 200.344,84.375C194.057,89.661 188.931,92.523 184.219,92.875C182.157,93.029 180.188,92.682 178.281,91.875C179.062,93.751 179.37,95.691 179.219,97.719C178.867,102.431 176.005,107.557 170.719,113.844C168.885,115.642 167.468,116.663 166.187,117.438C185.638,114.904 201.082,99.565 203.75,80.156M154.781,117.438C153.286,116.675 151.777,115.695 150.281,113.844C144.995,107.557 142.164,102.431 141.812,97.719C141.642,95.432 142.084,93.259 143.094,91.156C141.069,92.087 139.012,92.508 136.812,92.344C132.1,91.992 126.974,89.13 120.687,83.844C118.98,82.465 117.992,81.098 117.25,79.719C119.744,99.319 135.204,114.875 154.781,117.438ZM117.406,67.438C118.146,66.287 119.126,64.999 120.688,63.406C126.974,58.12 132.1,55.258 136.813,54.906C138.888,54.751 140.833,55.116 142.75,55.938C141.983,54.071 141.662,52.14 141.813,50.125C142.164,45.413 144.995,40.318 150.281,34.031C151.377,32.675 152.498,31.78 153.594,31.094C134.976,34.065 120.293,48.795 117.406,67.438Z" style="fill:white;fill-rule:nonzero;stroke:black;stroke-width:0.5px;"/>
        <path id="path3974-2-3" d="M166.982,97.338C166.86,99.228 165.872,101.284 164.044,103.806L161.326,107.128L160.513,108.285L159.669,107.003L156.982,103.806C155.155,101.284 154.166,99.228 154.044,97.338C153.923,95.447 154.687,93.765 156.263,92.088C157.767,90.487 159.132,89.649 160.513,89.681C161.895,89.649 163.259,90.487 164.763,92.088C166.339,93.765 167.104,95.447 166.982,97.338Z" style="fill:white;fill-rule:nonzero;stroke:black;stroke-width:0.5px;"/>
        <path id="path3974-2-0" d="M136.641,67.694C134.75,67.815 132.694,68.804 130.172,70.631L126.85,73.35L125.694,74.162L126.975,75.006L130.172,77.694C132.694,79.521 134.75,80.51 136.641,80.631C138.531,80.753 140.213,79.988 141.891,78.412C143.492,76.908 144.33,75.544 144.297,74.162C144.33,72.781 143.492,71.416 141.891,69.912C140.213,68.337 138.531,67.572 136.641,67.694Z" style="fill:white;fill-rule:nonzero;stroke:black;stroke-width:0.5px;"/>
        <path id="path3974-2-01" d="M184.388,81.166C186.279,81.044 188.335,80.056 190.857,78.229L194.179,75.51L195.335,74.697L194.054,73.854L190.857,71.166C188.335,69.339 186.279,68.35 184.388,68.229C182.498,68.107 180.816,68.871 179.138,70.447C177.537,71.951 176.699,73.316 176.732,74.697C176.699,76.079 177.537,77.443 179.138,78.947C180.816,80.523 182.498,81.288 184.388,81.166Z" style="fill:white;fill-rule:nonzero;stroke:black;stroke-width:0.5px;"/>
        <path id="path4086" d="M297,390.957L297,372.767M297,359.537L296.985,353.856" style="fill:white;fill-rule:nonzero;stroke:black;stroke-width:0.5px;"/>
        <path id="path4084" d="M296.985,353.856L296.985,350.322" style="fill:none;fill-rule:nonzero;stroke:black;stroke-width:0.5px;"/>
        <path id="path3557-2" d="M297,432.656L297,432.5" style="fill:white;fill-rule:nonzero;stroke:black;stroke-width:0.5px;"/>
        <path id="path3125" d="M160.513,10.963C156.855,13.007 154.728,14.304 151.267,16.658C150.811,16.932 149.367,18.022 148.947,18.287C156.875,16.746 164.691,16.78 172.079,18.287C171.659,18.022 169.667,16.63 169.211,16.356C165.859,14.249 163.898,13.006 160.513,10.963Z" style="fill:white;fill-rule:nonzero;stroke:black;stroke-width:0.5px;"/>
        <path id="path4011" d="M134.815,79.72C133.904,79.405 132.54,78.738 131.782,78.237C129.979,77.045 126.784,74.468 126.756,74.184C126.714,73.765 131.677,70.085 133.568,69.132C135.818,67.999 137.698,67.899 139.498,68.818C141.081,69.625 142.964,71.536 143.56,72.939C143.969,73.903 143.962,74.181 143.499,75.393C142.898,76.967 140.98,78.83 139.068,79.699C137.437,80.439 136.905,80.442 134.815,79.72C134.815,79.72 134.815,79.72 134.815,79.72Z" style="fill:white;fill-opacity:0.44;fill-rule:nonzero;"/>
    </g>
    <g id="layer1" transform="matrix(-1,0,0,1,321.031,0)">
        <path id="path3120" d="M103.95,83.672C103.185,79.97 103.123,77.927 103.123,74.001C103.123,70.075 103.525,66.242 104.289,62.54M160.513,17.132C164.475,17.132 168.343,17.53 172.079,18.287M216.737,62.54C217.502,66.242 217.903,70.075 217.903,74.001C217.903,77.927 217.841,79.97 217.077,83.672M191.018,122.021C184.582,126.246 179.056,128.273 172.079,129.715C168.343,130.473 164.475,130.871 160.513,130.871C156.551,130.871 152.683,130.473 148.947,129.715C145.211,128.958 141.607,127.841 138.174,126.402C134.741,124.963 132.821,123.911 129.768,121.867M103.95,83.672C103.95,83.672 103.23,82.587 102.956,82.218L98.439,75.88L96.946,73.953C99.057,70.474 99.996,68.608 102.259,65.425C102.533,65.056 104.024,62.881 104.289,62.54M217.077,83.672C217.342,83.331 217.797,82.587 218.07,82.218L222.588,75.88L224.081,73.953C221.969,70.474 221.03,68.608 218.767,65.425C218.493,65.056 217.003,62.881 216.737,62.54M129.768,121.867C150.108,156.415 160.513,189.378 160.513,189.378C160.513,189.378 170.678,156.569 191.018,122.021" style="fill:white;fill-rule:nonzero;stroke:black;stroke-width:0.5px;"/>
        <path id="path3169" d="M297,390.957C297,389.854 294.019,389.351 291.592,386.547C289.911,384.604 288.949,383.353 288.949,383.353L286.264,380.901C286.264,380.901 287.287,381.586 292.144,381.586C297,381.586 296.538,380.561 295.508,379.268C293.762,377.077 293.409,376.498 292.306,375.12C291.204,373.742 288.836,372.215 288.836,372.215C288.836,372.215 290.766,372.767 292.419,373.042C294.073,373.318 297,373.593 297,372.767L297,390.957Z" style="fill:white;fill-rule:nonzero;stroke:black;stroke-width:0.5px;"/>
        <path id="path4072" d="M290.214,353.474L289.14,352.244C289.14,352.244 291.041,353.199 292.695,353.75C294.348,354.301 296.985,353.856 296.985,353.856L297,359.5C294.348,356.468 293.642,356.633 292.539,355.806C291.434,354.975 289.916,353.107 290.214,353.474" style="fill:white;fill-rule:nonzero;stroke:black;stroke-width:0.5px;"/>
        <path id="path3171" d="M296.985,350.322L297,261.836L297,205C282.774,143.317 247.339,98.772 235.844,85.531L233.375,82.719L231.406,84.938C220.127,97.801 184.101,142.541 169.688,204.688L169.688,256.736C174.838,257.563 174.459,257.838 178.318,258.941C182.176,260.043 185.833,262.269 188.515,263.902C191.051,265.445 199.303,270.993 203.949,275.477C209.533,280.866 214.422,286.226 217.178,288.431C219.935,290.636 223.426,292.579 225.722,293.667C231.448,296.38 234.724,298.267 238.513,300.416C243.77,303.398 246.269,304.009 249.7,305.518C255.566,308.098 253.424,308.282 255.078,309.384C256.732,310.486 259.037,313.144 262.654,314.889C264.878,315.963 262.378,316.818 262.378,316.818C262.378,316.818 256.866,317.094 252.732,316.543C248.598,315.992 246.393,314.614 246.393,314.614C246.393,314.614 247.495,316.267 248.873,316.818C250.251,317.37 255.763,320.952 258.244,322.055C260.724,323.157 270.371,328.118 272.851,329.496C275.332,330.874 281.395,335.835 284.427,338.316C287.458,340.796 291.868,345.757 294.348,347.962C296.829,350.167 296.985,350.322 296.985,350.322" style="fill:white;fill-rule:nonzero;stroke:black;stroke-width:0.5px;"/>
        <path id="path3173" d="M252.764,432.656C251.257,432.118 250.426,431.445 249.451,430.47C248.477,429.496 244.687,427.387 244.687,427.387C244.687,427.387 245.266,428.733 245.991,430.08C246.406,430.853 246.723,432.655 246.528,432.655C246.333,432.655 242.046,432.029 239.707,431.055C237.368,430.08 232.938,426.699 229.573,423.844C228.043,422.546 223.727,418.193 222.557,417.413C221.388,416.633 219.634,415.074 218.854,415.074C218.075,415.074 216.39,414.988 216.39,414.988C216.39,414.988 217.88,416.049 218.854,416.828C219.829,417.608 222.012,418.925 222.207,419.704C221.327,419.812 219.439,419.946 218.465,419.557C217.49,419.167 215.347,417.608 215.347,417.608C215.347,417.608 215.563,418.387 216.187,419.973C214.662,419.544 213.398,419.752 213.398,419.752L209.5,416.633L210.474,418.582L211.852,420.081C211.852,420.081 209.305,420.531 208.136,419.946C206.967,419.362 204.628,418.777 203.653,418.193C202.679,417.608 199.171,416.633 199.171,416.633C199.171,416.633 200.73,417.218 201.705,418.193C202.679,419.167 203.653,419.946 204.628,421.116C205.602,422.285 205.663,424.186 208.114,425.369C207.52,426.485 206.147,426.928 204.454,427.426C204.454,427.426 203.636,427.937 201.102,427.157C198.569,426.378 197.162,424.727 196.317,424.242C197.551,427.015 196.875,426.456 198.002,427.547C199.06,428.572 199.4,428.595 200.562,429.106C199.977,429.886 197.417,430.86 195.858,430.665C194.299,430.47 190.207,429.106 190.207,429.106C190.207,429.106 190.503,432.635 192.062,432.635L252.764,432.656Z" style="fill:white;fill-rule:nonzero;stroke:black;stroke-width:0.5px;"/>
        <path id="path4114" d="M150.844,428.569L150.844,419.947" style="fill:none;fill-rule:nonzero;stroke:black;stroke-width:0.5px;"/>
        <path id="path4133" d="M115.58,432.668C116.359,432.668 115.385,431.057 117.139,430.278C118.893,429.498 120.842,428.914 122.401,427.744C123.96,426.575 124.739,424.821 125.519,424.042C126.299,423.262 125.519,422.482 127.858,422.677C130.196,422.872 129.806,421.898 131.366,422.288C132.925,422.677 132.73,423.067 133.899,423.652C136.452,425.486 139.592,426.594 141.205,427.099C143.154,427.684 144.912,428.242 146.385,428.645C148.452,429.211 148.328,428.766 150.858,428.571M150.858,428.571L150.858,419.949C142.084,412.349 139.356,410.01 136.822,406.112C134.289,402.215 134.679,404.163 131.171,399.096C127.663,394.029 127.273,393.055 127.273,393.055C127.273,393.055 127.315,394.514 128.053,397.148C128.516,398.802 128.341,398.929 128.966,400.556C129.941,403.089 130.746,405.172 130.746,405.172C130.746,405.172 127.45,404.132 125.891,403.158C124.332,402.184 122.701,400.779 122.011,399.876C120.755,398.23 119.807,396.468 119.283,394.029C118.985,392.642 119.283,389.742 117.724,388.183C116.165,386.624 111.639,381.077 110.318,379.023C108.075,375.537 106.958,373.472 105.641,371.033C104.894,369.651 103.839,368.197 102.523,364.992C101.515,362.54 101.353,361.094 100.379,358.171C99.405,355.248 98.235,353.689 96.871,352.519C95.507,351.35 95.433,350.934 95.433,350.934C95.433,350.934 95.783,352.929 95.615,354.087C95.212,356.867 92.834,358.426 92.834,358.426C93.665,354.466 92.733,354.708 91.609,349.791C90.918,347.752 91.219,345.309 90.245,342.97C89.271,340.631 86.153,337.708 85.373,336.734C84.593,335.759 84.399,334.785 84.204,333.81C84.009,332.836 84.009,335.175 84.399,336.734C84.788,338.293 84.686,339.288 85.568,340.631C87.032,342.862 89.115,344.871 89.115,344.871C89.115,344.871 88.612,344.919 87.833,345.114C87.053,345.309 85.568,344.724 85.568,344.724L88.349,347.613C86.246,347.577 84.154,347.004 83.043,346.365C81.678,345.585 79.554,343.385 78.747,341.996C77.686,340.168 77.04,337.795 76.651,336.236C76.261,334.677 76.3,332.217 75.044,329.913C74.334,328.61 73.632,327.347 73.095,325.43C71.612,320.137 71.656,319.131 71.476,316.137C71.37,314.375 71.073,311.061 71.597,307.938C71.597,307.938 69.917,308.341 68.942,309C67.091,308.96 65.864,308.158 64.594,306.587C64.594,306.587 67.275,305.418 68.054,304.054C68.834,302.69 70.461,301.687 70.562,299.511C70.596,298.771 70.562,298.342 70.562,298.342C70.562,298.342 70.172,299.121 67.833,301.07C65.495,303.019 65.243,303.268 62.961,304.188C60.915,305.014 59.548,304.141 59.548,304.141L61.415,302.421C61.415,302.421 59.904,302.3 58.345,303.079C56.786,303.859 57.578,303.348 56.725,304.383C55.894,305.392 56.067,305.534 55.811,307.124C54.884,305.76 54.581,305.747 54.581,303.993C54.581,302.239 54.902,301.442 56.461,298.908C58.02,296.375 58.263,296.07 59.843,294.834C62.429,292.811 64.592,290.465 65.885,289.572C67.47,288.476 68.139,288.134 68.613,286.454C69.084,284.784 68.223,283.141 68.223,283.141C68.223,283.141 67.782,285.656 66.859,286.259C63.528,288.435 62.572,288.792 61.207,289.572C59.843,290.351 58.431,290.862 57.067,290.278C55.703,289.693 53.252,290.572 52.667,290.377C53.022,288.974 53.936,287.887 51.706,289.814C50.147,290.399 47.574,288.827 47.574,288.827C47.574,288.827 49.744,288.086 51.06,286.514C51.963,285.437 52.559,284.452 53.399,283.188C54.801,281.078 56.335,279.438 57.505,278.463C58.674,277.489 58.674,276.904 58.869,275.54C59.064,274.176 59.259,275.54 58.089,276.515C56.92,277.489 55.436,278.792 54.252,278.853C52.814,278.927 51.853,278.853 50.879,278.463C49.904,278.074 49.319,277.576 49.319,277.576L48.587,275.735C48.587,275.735 52.205,275.737 53.17,274.687C54.857,272.849 54.655,270.984 54.655,270.984C54.655,270.984 53.022,273.202 51.853,273.591C50.684,273.981 48.185,274.31 48.185,274.31C48.185,274.31 48.843,273.128 48.843,271.569C48.843,270.01 48.561,269.486 49.428,268.256C50.283,267.043 51.658,265.406 52.827,264.822C53.997,264.237 56.786,262.254 56.786,262.254C56.786,262.254 58.089,260.729 58.479,259.949C58.869,259.17 59.064,255.857 59.064,255.857C59.064,255.857 58.284,258.39 57.31,259.56C56.335,260.729 53.802,260.339 53.802,260.339L52.035,260.352C52.035,260.352 53.997,259.365 54.776,257.611C55.556,255.857 56.335,255.467 55.751,253.518C55.166,251.569 55.02,251.631 54.413,249.997C53.633,247.9 53.889,246.39 52.33,244.844C50.77,242.895 51.081,243.609 48.722,241.994C44.92,239.392 43.486,239.313 41.732,238.339C39.502,236.572 37.804,236.168 36.605,235.489C34.837,234.489 34.695,234.407 32.72,233.432C31.355,232.759 30.476,232.752 29.186,232.289C27.707,231.758 26.176,230.985 26.176,230.985C27.648,229.956 27.539,228.832 30.221,228.378C32.608,227.975 34.461,228.196 35.825,228.586C37.189,228.976 40.355,229.548 42.499,229.742C44.642,229.937 49.319,230.327 50.489,230.327C51.658,230.327 55.166,229.937 56.53,229.548C57.894,229.158 58.674,228.378 58.674,228.378C58.674,228.378 53.217,219.998 51.073,217.855C48.93,215.711 46.006,212.788 44.837,211.423C43.668,210.059 38.991,207.916 37.432,207.331C35.873,206.746 32.655,206.82 31.875,206.625L24.045,205.002L24.045,432.659L115.576,432.659" style="fill:white;fill-rule:nonzero;stroke:black;stroke-width:0.5px;"/>
        <path id="path4131" d="M24.031,205L31.875,206.625M31.875,206.625C31.875,206.625 31.664,205.053 32.531,203.813C33.105,202.992 33.797,201.678 36.375,200.375C37.954,199.577 39.809,199.046 41.563,198.656C43.316,198.266 44.174,198.502 46.344,198.563C47.721,198.601 53.192,200.098 54.75,201.094C56.504,202.216 58.224,203.079 59.344,203.469L61.656,204.281C61.656,204.281 64.121,203.823 65.875,205.188C67.629,206.552 69.956,208.68 71.125,208.875C72.294,209.07 73.674,210.632 74.844,210.438C76.013,210.243 77.566,210.632 79.125,210.438C80.684,210.243 82.057,209.461 83.031,209.656C84.006,209.851 86.125,210.25 86.125,210.25L84.594,211.219C84.594,211.219 85.347,211.024 86.906,211.219C88.465,211.414 87.5,212.781 87.5,212.781C87.5,212.781 90.411,212.796 92.75,212.406C95.089,212.017 98.219,212.781 98.219,212.781L101.938,212.406C101.938,212.406 101.732,213.947 100.563,214.531C99.393,215.116 101.917,214.329 103.281,214.719C104.645,215.109 109.511,216.697 110.875,217.281C112.239,217.866 116.917,221.175 118.281,222.344C119.645,223.513 122.401,225.636 123.375,227C124.349,228.364 125.706,230.338 126.875,231.313C128.044,232.287 128.316,232.427 130,233.625C131.81,234.913 133.126,236.004 134.906,236.125C137.133,237.012 138.377,236.629 141.031,236.438C141.031,236.438 141.302,237.728 139.938,238.313C138.573,238.897 136.989,238.899 135.625,239.094C134.261,239.289 132.719,239.688 132.719,239.688C132.719,239.688 133.693,239.884 136.031,240.469C138.37,241.053 140.127,241.619 140.906,242.594C141.686,243.568 144.033,245.346 144.813,246.125C145.592,246.905 145.98,247.079 147.344,247.469C148.708,247.859 149.656,247.875 149.656,247.875C149.656,247.875 149.826,249.079 148.656,249.469C146.422,250.556 146.651,250.724 144.031,250.594C144.031,250.594 147.572,253.33 147.622,253.396L150.844,253.438L150.844,204.781C136.727,143.913 101.827,99.676 94.594,91.344C94.594,91.344 91.449,87.653 89.813,85.781C89.028,84.884 87.219,82.844 87.219,82.844L84.313,86C79.436,91.318 71.834,101.599 62.875,115.375C48.794,137.027 32.576,167.95 24.031,205" style="fill:white;fill-rule:nonzero;stroke:black;stroke-width:0.5px;"/>
        <path id="path4129" d="M150.844,253.438C150.844,253.438 150.526,253.45 150.094,253.438L150.844,253.719L150.844,253.438Z" style="fill:white;fill-rule:nonzero;stroke:black;stroke-width:0.5px;"/>
        <path id="path3179" d="M95.493,228.376C95.493,228.376 94.324,225.453 92.765,224.478C91.206,223.504 89.062,222.724 87.698,222.529C86.333,222.334 84.19,222.919 84.19,222.919C84.19,222.919 85.487,223.851 86.299,225.5C86.736,226.388 87.676,227.912 88.625,228.376C90.21,229.151 91.206,229.545 92.57,229.545C93.934,229.545 95.493,228.376 95.493,228.376Z" style="fill:white;fill-rule:nonzero;stroke:black;stroke-width:0.5px;"/>
        <path id="path4025" d="M201.483,64.433C200.56,63.535 200.503,63.395 201.058,63.395C201.411,63.395 201.766,63.216 201.847,62.996C202.037,62.487 202.771,64.304 202.645,64.97C202.573,65.35 202.295,65.222 201.483,64.433Z" style="fill:white;fill-opacity:0.44;fill-rule:nonzero;"/>
        <path id="path4027" d="M169.989,32.749C169.426,32.127 169.432,32.111 170.229,32.111C170.89,32.111 171.015,32.234 170.88,32.749C170.788,33.1 170.68,33.388 170.64,33.388C170.6,33.388 170.307,33.1 169.989,32.749Z" style="fill:white;fill-opacity:0.44;fill-rule:nonzero;"/>
    </g>
    <g id="path4085" transform="matrix(-1,0,0,1,315.7,5.33117)">
        <path d="M160.513,68.831C160.513,71.775 158.126,74.162 155.182,74.162C152.238,74.162 149.851,71.775 149.851,68.831C149.851,65.887 152.238,63.5 155.182,63.5C158.126,63.5 160.513,65.887 160.513,68.831Z" style="fill:white;fill-rule:nonzero;stroke:black;stroke-width:0.5px;"/>
    </g>
</svg>
