<?xml version="1.0" encoding="UTF-8" standalone="no"?>
<!DOCTYPE svg PUBLIC "-//W3C//DTD SVG 1.1//EN" "http://www.w3.org/Graphics/SVG/1.1/DTD/svg11.dtd">
<svg width="100%" height="100%" viewBox="0 0 308 332" version="1.1" xmlns="http://www.w3.org/2000/svg" xmlns:xlink="http://www.w3.org/1999/xlink" xml:space="preserve" xmlns:serif="http://www.serif.com/" style="fill-rule:evenodd;clip-rule:evenodd;stroke-linejoin:round;stroke-miterlimit:2;">
    <g transform="matrix(1,0,0,1,-775.382,-0.0032)">
        <g transform="matrix(1,0,0,1,904.687,58.4302)">
            <path d="M0,214.309C-1.027,215.184 -2.054,215.739 -2.585,216.599C-3.143,217.503 -3.111,218.75 -3.551,219.755C-3.929,220.617 -4.628,221.333 -5.146,222.138C-6.097,223.615 -7.08,225.075 -7.941,226.603C-10.334,230.848 -12.731,235.092 -15.011,239.398C-17.144,243.427 -18.025,247.621 -15.896,251.97C-15.196,253.397 -15.102,254.857 -15.261,256.403C-15.43,258.037 -15.474,259.683 -15.572,261.323C-14.614,261.006 -13.921,260.565 -13.554,259.934C-11.941,257.165 -9.532,255.241 -7.028,253.36C-4.609,251.542 -2.462,249.305 0.11,247.763C2.546,246.302 3.823,244.146 5.114,241.871C5.429,241.318 5.662,240.717 5.904,240.126C7.935,235.175 9.965,230.224 11.979,225.267C12.272,224.544 12.481,223.788 12.729,223.047C12.438,223.261 12.147,223.475 11.857,223.689C10.838,222.247 9.865,220.768 8.773,219.382C8.409,218.919 7.778,218.5 7.208,218.397C5.363,218.063 3.973,217.023 2.789,215.706C1.918,214.737 0.954,214.224 0,214.309M78.469,9.793C79.511,8.592 80.617,7.44 81.587,6.182C93.17,-8.85 105.897,-22.885 118.962,-36.621C125.313,-43.298 132.209,-49.372 139.883,-54.516C140.703,-55.066 141.652,-55.423 142.581,-55.89C143.349,-54.548 142.687,-53.722 142.204,-52.961C139.383,-48.506 136.576,-44.04 133.632,-39.667C131.759,-36.884 129.64,-34.267 127.664,-31.551C127.204,-30.919 126.879,-30.187 126.493,-29.503C126.494,-29.504 126.395,-29.423 126.395,-29.423L126.472,-29.462C134.251,-36.247 142.291,-42.715 150.914,-48.386C155.645,-51.497 160.674,-54.162 165.633,-56.911C166.901,-57.614 168.415,-57.874 170.088,-58.427C170.043,-56.356 169.06,-55.216 168.064,-54.143C165.726,-51.625 163.354,-49.134 160.939,-46.689C153.973,-39.635 146.976,-32.613 140.003,-25.567C139.45,-25.008 138.986,-24.36 138.482,-23.754C138.334,-23.595 138.187,-23.437 138.037,-23.278C138.036,-23.278 138.005,-23.295 138.005,-23.295C138.151,-23.461 138.297,-23.626 138.443,-23.791C139.14,-24.143 139.898,-24.41 140.524,-24.858C146.91,-29.424 153.713,-33.31 160.767,-36.696C165.428,-38.935 170.36,-40.614 175.199,-42.473C175.922,-42.751 176.794,-42.641 177.927,-42.739C177.255,-40.553 175.992,-39.339 174.7,-38.202C170.144,-34.193 165.615,-30.146 160.942,-26.274C151.596,-18.529 142.155,-10.896 132.769,-3.198C132.046,-2.606 131.436,-1.878 130.773,-1.213C130.427,-1.07 130.081,-0.927 129.736,-0.785C129.738,-0.786 129.735,-0.696 129.735,-0.696L129.771,-0.824C130.108,-0.95 130.446,-1.075 130.783,-1.201C132.372,-1.919 134.012,-2.542 135.54,-3.37C142.219,-6.991 149.13,-10.116 156.309,-12.56C160.978,-14.149 165.816,-15.244 170.595,-16.503C171.573,-16.761 172.636,-16.848 173.562,-16.025C172.958,-14.067 171.494,-12.979 169.989,-11.933C164.422,-8.06 158.85,-4.193 153.283,-0.321C153.287,-0.318 153.283,-0.222 153.283,-0.222L153.243,-0.364C154.889,-0.585 156.538,-0.787 158.181,-1.031C160.394,-1.36 162.595,-1.778 164.815,-2.043C165.705,-2.149 166.633,-1.947 167.729,-1.873C167.026,0.321 165.599,1.468 164.082,2.463C160.406,4.875 156.675,7.204 152.971,9.574C152.321,9.989 151.695,10.443 150.671,11.145C154.901,11.34 158.603,9.666 162.55,10.613C162.115,12.343 161.143,13.342 159.935,14.125C156.178,16.559 152.403,18.966 148.632,21.376C147.897,21.846 147.139,22.282 146.075,22.926C148.818,23.584 151.368,22.555 153.846,23.46C153.83,25.19 152.686,26.096 151.527,26.87C149.136,28.469 146.719,30.043 144.217,31.459C140.322,33.664 136.349,35.728 132.41,37.856C131.735,38.22 131.07,38.603 130.421,39.175C133.041,39.684 135.833,39.229 138.506,41.019C137.784,41.986 137.326,42.95 136.574,43.537C134.88,44.858 133.084,46.062 131.248,47.182C129.552,48.216 127.751,49.077 125.734,50.154C126.123,50.477 126.316,50.665 126.536,50.817C128.851,52.411 129.096,53.708 127.091,55.581C125.646,56.931 124.011,58.173 122.263,59.081C118.507,61.032 114.623,62.737 110.791,64.538C110.006,64.907 109.214,65.26 108.39,65.638C111.409,69.222 111.454,70.812 108.614,74.555C107.799,75.631 106.827,76.588 105.802,77.742C109.172,79.125 109.039,81.882 108.43,84.83C107.586,88.913 106.797,90.359 104.118,92.435C105.614,94.718 104.81,96.956 103.735,99.141C102.64,101.37 100.671,102.538 98.134,103.248C98.501,103.514 98.645,103.667 98.821,103.739C100.886,104.58 101.461,105.996 100.259,107.831C98.694,110.219 97.433,112.924 94.501,113.909C94.482,117.233 92.204,118.89 90.155,120.643C89.301,121.375 88.492,121.972 88.139,123.162C87.911,123.931 87.202,124.653 86.536,125.174C85.601,125.906 84.53,126.481 83.472,127.034C81.586,128.017 79.565,128.647 78.143,130.506C77.391,131.489 75.883,131.943 74.654,132.501C72.553,133.456 70.476,134.347 68.603,135.812C67.215,136.897 65.355,137.487 63.616,137.987C61.538,138.584 59.564,139.235 57.648,140.331C55.892,141.337 53.762,141.701 51.783,142.306C50.572,142.676 49.323,142.923 48.116,143.305C43.365,144.811 41.117,145.348 37.399,144.355C37.438,144.772 37.472,145.123 37.519,145.612C36.332,145.612 35.147,145.694 33.98,145.589C32.879,145.489 31.794,145.191 30.331,144.91C30.904,145.739 31.308,146.322 31.792,147.022C30.01,148.256 28.356,147.122 26.717,147.032C26.664,147.067 26.614,147.115 26.558,147.126C26.532,147.13 26.493,147.06 26.46,147.023C26.559,147.036 26.658,147.047 26.757,147.059C30.046,148.799 33.224,150.81 36.646,152.226C44.902,155.639 53.299,158.709 61.588,162.044C66.469,164.008 71.265,166.187 76.073,168.328C77.158,168.81 78.292,169.371 79.123,170.184C80.093,171.131 80.754,172.392 81.393,173.701C77.767,172.225 74.07,171.53 70.312,171.099C70.313,171.101 70.23,171.066 70.23,171.066L70.336,171.121C70.503,171.354 70.67,171.586 70.918,171.931C70.444,171.996 70.149,172.037 69.854,172.079C69.763,172.009 69.673,171.94 69.648,171.922C69.68,171.936 69.787,171.988 69.894,172.039C68.581,172.715 67.196,172.702 65.875,172.216C63.934,171.503 61.998,170.738 60.153,169.81C58.769,169.114 57.34,168.918 55.865,168.6C53.337,168.056 51.618,168.517 50.48,170.908C50.118,171.668 49.587,172.371 49.032,173.013C48.169,174.012 47.22,174.937 46.307,175.893L46.326,175.937C46.264,175.737 46.201,175.537 46.138,175.337C46.023,175.537 45.908,175.737 45.793,175.937L45.813,175.893C45.181,176.543 44.548,177.192 43.916,177.842L43.926,177.857C43.876,177.726 43.825,177.594 43.775,177.463C43.647,177.593 43.52,177.724 43.392,177.854L43.402,177.832C43.111,177.542 42.82,177.252 42.527,176.96C42.693,176.484 42.861,176.01 43.027,175.536C42.988,175.486 42.935,175.441 42.921,175.386C42.915,175.358 42.982,175.313 43.017,175.276C43.011,175.376 43.006,175.477 43,175.579C42.855,176.053 42.71,176.528 42.564,177.003C40.652,177.635 39.645,179.219 38.547,180.741C37.834,181.731 36.979,182.619 36.187,183.553L36.229,183.588C36.227,183.115 36.223,182.641 36.218,182.167C36.216,182.167 36.255,182.097 36.255,182.097L36.208,182.194C35.332,183.563 34.48,184.87 32.855,185.606C31.936,186.022 31.304,187.076 30.54,187.845C30.539,187.847 30.459,187.851 30.459,187.851L30.59,187.86C29.589,188.516 28.588,189.172 27.587,189.828L27.567,189.828C27.557,189.508 27.546,189.187 27.535,188.866C27.536,188.866 27.575,188.907 27.575,188.907C26.608,189.681 25.643,190.455 24.676,191.23L24.713,191.263C23.817,190.167 23.266,191.101 22.295,191.652C25.564,193.755 27.929,196.327 28.997,199.893L29.024,199.876L29.027,200.433L28.991,200.419C29.171,200.859 29.35,201.298 29.527,201.733C29.187,202.118 28.493,202.621 28.574,202.853C29.12,204.419 28.152,205.713 27.704,206.953C27.124,208.553 25.831,209.9 24.814,211.333C24.543,211.715 24.152,212.013 23.822,212.354C22.373,213.86 20.803,215.136 18.726,215.75C16.777,216.326 16.262,217.21 17.1,218.929C18.375,221.546 17.935,223.821 16.466,226.161C15.664,227.437 15.041,228.849 14.498,230.262C12.292,235.997 10.165,241.763 7.965,247.501C7.521,248.657 7.608,249.572 8.374,250.592C9.565,252.179 10.594,253.889 11.682,255.553C12.029,256.084 12.454,256.597 12.657,257.183C13.313,259.068 13.924,260.971 14.471,262.89C15.074,265.01 14.24,266.961 12.044,268.402C13.165,266.809 12.249,265.523 11.645,264.154C10.714,262.048 10.017,259.827 8.946,257.798C8.267,256.51 7.092,255.483 5.789,253.92C4.769,259.494 2.043,263.742 0.192,268.376C-0.121,268.226 -0.355,268.177 -0.364,268.102C-0.688,265.214 -1.363,262.334 0.207,259.527C1.166,257.814 2.104,256.017 1.918,253.684C1.384,253.855 0.923,253.895 0.602,254.127C-0.435,254.874 -1.379,255.752 -2.431,256.474C-5.944,258.882 -7.92,262.402 -9.593,266.164C-10.203,267.538 -10.991,268.837 -11.524,270.236C-11.815,270.997 -11.742,271.898 -11.832,272.736C-13.952,271.21 -14.27,268.593 -12.79,264.839C-14.549,264.935 -14.549,264.935 -14.988,267.918C-16.929,266.741 -15.201,264.678 -16.346,263.175C-17.448,263.545 -18.652,263.949 -19.857,264.353C-19.972,264.235 -20.085,264.117 -20.199,263.999C-18.952,263.28 -18.673,262.31 -18.807,260.996C-18.942,259.667 -18.664,258.292 -18.526,256.941C-18.188,253.626 -19.61,250.853 -21.308,248.214C-22.43,246.468 -23.884,246.087 -25.608,247.197C-27.675,248.527 -29.568,250.127 -31.534,251.615C-32.034,251.994 -32.5,252.423 -33.021,252.77C-34.088,253.48 -35.181,254.15 -36.407,254.928C-36.715,253.505 -35.373,252.345 -35.225,250.921C-35.044,249.198 -33.431,248.817 -32.338,247.955C-32.34,247.956 -32.322,247.874 -32.322,247.874L-32.375,247.987C-34.164,247.848 -35.697,248.444 -36.91,249.731C-38.277,251.181 -39.571,252.699 -40.885,254.198C-41.253,254.618 -41.502,255.18 -41.938,255.494C-43.061,256.302 -44.074,257.076 -42.692,258.772C-44.599,257.63 -45.421,255.065 -44.56,253.571C-43.573,251.859 -42.755,249.973 -40.844,248.994C-40.704,248.922 -40.576,248.812 -40.47,248.695C-35.855,243.58 -29.521,242.228 -23.239,240.641C-21.81,240.28 -20.131,239.288 -19.394,238.082C-15.477,231.678 -11.823,225.114 -8.084,218.601C-8.052,218.545 -8.087,218.45 -8.092,218.373C-11.236,215.32 -14.393,212.278 -17.521,209.209C-19.835,206.939 -21.596,204.259 -22.864,201.304C-23.515,199.79 -24.406,199.374 -25.986,199.438C-27.471,199.498 -29.064,199.359 -30.45,198.863C-34.954,197.249 -39.384,195.43 -43.843,193.693C-44.88,193.288 -45.952,192.958 -46.953,192.48C-48.606,191.691 -50.395,191.036 -51.803,189.917C-54.386,187.865 -57.409,186.6 -60.118,184.798C-61.125,184.128 -62.172,183.948 -63.313,184.206C-64.636,184.505 -65.996,184.716 -67.26,185.183C-72.445,187.101 -77.712,188.652 -83.204,189.444C-85.33,189.75 -87.395,190.462 -89.51,190.875C-91.713,191.306 -93.43,192.408 -95.058,193.947C-98.542,197.241 -102.131,200.434 -105.811,203.508C-107.577,204.983 -109.605,206.167 -111.597,207.346C-113.103,208.237 -114.76,208.83 -116.9,208.782C-116.255,203.712 -113.452,199.737 -111.244,195.372C-114.486,197.103 -117.729,198.835 -121.265,200.723C-121.597,197.163 -120.848,194.296 -119.482,191.56C-116.569,185.723 -112.256,181.043 -107.257,176.951C-105.649,175.635 -103.563,174.685 -102.443,173.055C-101.385,171.513 -101.465,169.237 -100.766,167.39C-99.241,163.366 -97.807,159.269 -95.814,155.476C-94.512,152.998 -92.755,150.697 -90.802,148.535C-88.32,145.789 -85.095,143.984 -82.61,141.274C-81.872,140.468 -80.303,140.384 -79.09,140.066C-77.879,139.749 -76.58,139.703 -75.42,139.271C-73.111,138.411 -70.75,138.818 -68.141,138.928C-69.104,136.701 -70.551,135.229 -72.051,133.825C-74.677,131.364 -77.463,129.066 -79.992,126.511C-85.389,121.057 -90.807,115.616 -95.463,109.48C-97.492,106.805 -99.719,104.279 -101.747,101.603C-109.689,91.126 -115.493,79.497 -120.001,67.2C-120.681,65.347 -120.947,63.334 -121.316,61.378C-122.058,57.458 -122.696,53.518 -123.453,49.601C-124.861,42.307 -126.459,35.047 -127.73,27.73C-129.45,17.831 -129.85,7.852 -128.487,-2.127C-128.201,-4.219 -127.338,-6.276 -126.473,-8.233C-125.789,-9.78 -124.675,-9.874 -123.783,-8.455C-122.729,-6.779 -121.986,-4.902 -121.18,-3.082C-120.669,-1.929 -120.289,-0.72 -119.42,0.456C-119.085,-2.085 -118.726,-4.622 -118.422,-7.166C-117.793,-12.423 -116.657,-17.568 -114.906,-22.562C-114.447,-23.871 -114.105,-25.327 -112.79,-26.234C-111.262,-25.568 -111.083,-24.115 -110.779,-22.853C-109.58,-17.867 -108.852,-12.804 -108.666,-7.674C-108.604,-5.939 -108.656,-4.199 -108.656,-2.462C-108.483,-2.43 -108.311,-2.399 -108.137,-2.367C-107.892,-2.887 -107.609,-3.395 -107.405,-3.931C-105.467,-9.008 -103.642,-14.131 -101.572,-19.155C-100.542,-21.653 -99.127,-24.002 -97.773,-26.354C-97.285,-27.202 -96.467,-27.86 -95.877,-28.518C-94.429,-28.034 -94.358,-27.037 -94.209,-26.096C-93.474,-21.46 -93.826,-16.844 -94.498,-12.239C-94.885,-9.596 -95.311,-6.959 -95.718,-4.318C-95.57,-4.264 -95.423,-4.21 -95.275,-4.155C-94.46,-5.596 -93.713,-7.082 -92.812,-8.468C-91.463,-10.541 -90.083,-12.603 -88.565,-14.552C-87.793,-15.543 -86.749,-16.355 -85.727,-17.109C-83.909,-18.45 -83.001,-18.027 -82.859,-15.72C-82.768,-14.214 -82.728,-12.642 -83.051,-11.186C-84.21,-5.963 -85.528,-0.775 -86.801,4.422C-87.048,5.429 -87.359,6.419 -87.64,7.417L-87.688,7.501L-87.619,7.395C-86.44,6.328 -85.338,5.158 -84.064,4.218C-82.474,3.044 -80.84,1.845 -79.05,1.047C-76.674,-0.012 -75.727,0.746 -76.059,3.387C-76.316,5.431 -76.966,7.427 -77.449,9.443C-77.592,10.037 -77.762,10.623 -77.975,11.423L-75.228,11.423C-74.245,12.88 -74.556,14.313 -74.866,15.682C-75.181,17.067 -75.697,18.407 -76.113,19.728C-74.113,20.995 -73.793,21.673 -74.212,23.908C-74.374,24.768 -74.672,25.603 -74.932,26.443C-75.19,27.281 -75.479,28.11 -75.752,28.936C-75.173,29.583 -74.332,30.124 -74.135,30.841C-73.873,31.789 -73.918,32.931 -74.185,33.892C-74.695,35.729 -75.432,37.506 -76.121,39.29C-76.463,40.174 -76.908,41.018 -77.307,41.88C-73.355,44.174 -75.278,47.405 -75.777,50.556C-73.848,52.044 -73.794,54.181 -74.434,56.345C-75.084,58.551 -75.982,60.684 -76.835,63.02C-76.368,63.279 -75.758,63.625 -75.142,63.961C-71.119,66.156 -70.245,68.711 -72.098,72.845C-72.16,72.984 -72.151,73.154 -72.204,73.493C-71.563,73.83 -70.874,74.197 -70.18,74.556C-66.485,76.463 -63.667,79.11 -62.45,83.26C-62.237,83.985 -61.441,84.611 -60.789,85.124C-58.536,86.898 -56.163,88.527 -53.964,90.364C-52.728,91.396 -52.106,92.801 -53.311,94.489C-48.855,96.165 -45.578,99.038 -43.306,103.106C-42.906,103.822 -42.062,104.323 -41.354,104.828C-38.945,106.548 -36.496,108.2 -34.763,110.699C-34.381,111.249 -33.653,111.582 -33.045,111.947C-30.091,113.72 -27.07,115.393 -25.515,118.741C-25.31,119.18 -24.695,119.465 -24.221,119.734C-23.317,120.247 -22.355,120.657 -21.462,121.184C-20.709,121.626 -19.676,122.019 -19.363,122.705C-18.281,125.082 -16.194,126.055 -14.066,127.08C-13.577,127.315 -13.047,127.693 -12.794,128.149C-11.665,130.187 -9.502,130.579 -7.659,131.449C-7.17,131.68 -6.408,131.598 -5.862,131.404C2.225,128.52 8.978,123.673 14.688,117.314C14.899,117.079 15.097,116.818 15.248,116.54C18.229,111.071 21.447,105.714 24.116,100.097C28.104,91.707 30.782,82.815 33.353,73.897C34.934,68.413 37.358,63.299 40.593,58.565C41.53,57.193 42.217,55.633 42.905,54.108C46.982,45.073 50.873,35.951 55.122,26.997C59.891,16.946 65.404,7.285 71.912,-1.757C77.094,-8.958 81.982,-16.396 88.075,-22.897C90.261,-25.228 92.582,-27.436 94.911,-29.625C95.556,-30.232 96.45,-30.573 97.298,-31.075C98.118,-29.421 97.651,-28.135 97.172,-26.876C94.75,-20.519 91.991,-14.311 88.665,-8.371C85.58,-2.861 82.426,2.609 79.312,8.103C79,8.654 78.762,9.246 78.489,9.819C78.49,9.82 78.469,9.793 78.469,9.793" style="fill:white;fill-rule:nonzero;"/>
        </g>
        <g transform="matrix(-0.697553,-0.716534,-0.716534,0.697553,929.123,249.871)">
            <path d="M-0.016,-0.319C-0.048,-0.202 -0.078,-0.084 -0.109,0.033C-0.076,-0.013 -0.018,-0.059 -0.016,-0.108C-0.013,-0.177 -0.048,-0.251 -0.066,-0.322L-0.016,-0.319Z" style="fill:white;fill-rule:nonzero;"/>
        </g>
        <g transform="matrix(-0.738485,-0.674269,-0.674269,0.738485,940.562,242.246)">
            <path d="M-0.052,-0.404C-0.128,-0.3 -0.205,-0.197 -0.281,-0.093L-0.052,-0.031C-0.071,-0.156 -0.09,-0.282 -0.108,-0.407L-0.052,-0.404" style="fill:white;fill-rule:nonzero;"/>
        </g>
        <g transform="matrix(-1,0,0,1,950.5,234.368)">
            <rect x="-0.494" y="-0.044" width="0.514" height="0.043" style="fill:white;"/>
        </g>
        <g transform="matrix(-0.0248015,-0.999692,-0.999692,0.0248015,948.337,236.018)">
            <path d="M-0.26,-0.26L-0.26,0.264L-0.26,-0.26Z" style="fill:white;"/>
        </g>
        <g transform="matrix(1,0,0,1,932.274,248.346)">
            <path d="M0,-0.088L-0.072,0C-0.072,0 -0.018,-0.088 -0.019,-0.088L0,-0.088Z" style="fill:white;fill-rule:nonzero;"/>
        </g>
        <g transform="matrix(-0.998356,0.057313,0.057313,0.998356,933.724,258.845)">
            <path d="M0.01,-0.523L0.01,0.018L0.01,-0.523Z" style="fill:white;"/>
        </g>
    </g>
</svg>
