<?xml version="1.0" encoding="UTF-8" standalone="no"?>
<!DOCTYPE svg PUBLIC "-//W3C//DTD SVG 1.1//EN" "http://www.w3.org/Graphics/SVG/1.1/DTD/svg11.dtd">
<svg width="100%" height="100%" viewBox="0 0 11322 7850" version="1.1" xmlns="http://www.w3.org/2000/svg" xmlns:xlink="http://www.w3.org/1999/xlink" xml:space="preserve" xmlns:serif="http://www.serif.com/" style="fill-rule:evenodd;clip-rule:evenodd;stroke-linecap:round;stroke-linejoin:round;stroke-miterlimit:1.5;">
    <g transform="matrix(4.16667,0,0,4.16667,-1630.71,-3366.68)">
        <path d="M2091.86,1058.44C2096.55,1046.84 2101.56,1035.38 2106.86,1024.12C2126.09,983.309 2153.07,938.237 2200.62,927.729C2235.82,919.95 2270.26,933.875 2301.46,948.857C2325.99,960.639 2366.54,981.732 2394.23,981.111C2404.17,980.89 2413.11,978.139 2421.96,973.717C2434.88,967.255 2447.22,959.015 2460.05,952.164C2480.39,941.309 2500.9,933.535 2523.5,928.728C2597.29,913.031 2685.71,930.792 2757.17,949.997C2832.66,970.287 2917.17,994.789 2986.61,1031.06C3036.75,1057.26 3086.18,1094.18 3102.85,1150.93C3107.02,1165.14 3108.88,1179.9 3108.6,1194.69C3108.04,1224.94 3102.18,1252.56 3092.43,1281.08C3083.31,1307.74 3071.7,1333.39 3063.31,1360.34C3053.21,1392.8 3048.69,1424.47 3048.47,1458.48C3048.28,1486.95 3049.32,1515.09 3050.99,1543.49C3052.29,1565.62 3053.88,1587.82 3053.53,1610C3052.82,1655.37 3043.04,1695.69 3028.45,1738.48C3008,1798.47 2975.29,1842.26 2941.12,1891.69L3047.95,2048.16L2850.08,2295.5L2590.07,2229.31C2584.29,2229.32 2578.5,2229.22 2572.72,2229.02C2525.98,2280.06 2469.38,2321.79 2409.06,2355.39C2365.26,2379.79 2320.27,2402.05 2274.8,2423.17C2183.55,2465.54 2090.2,2503.06 1998.7,2544.83C1922.69,2579.53 1841.56,2619.54 1775.83,2671.56L1750,2692L1724.17,2671.56C1658.44,2619.54 1577.31,2579.53 1501.3,2544.83C1409.8,2503.06 1316.45,2465.54 1225.2,2423.17C1179.73,2402.05 1134.74,2379.79 1090.94,2355.39C1030.62,2321.79 974.021,2280.06 927.276,2229.02C921.497,2229.22 915.714,2229.32 909.933,2229.31L649.922,2295.5L452.053,2048.16L558.882,1891.69C524.709,1842.26 491.999,1798.47 471.548,1738.48C456.959,1695.69 447.181,1655.37 446.471,1610C446.125,1587.82 447.712,1565.62 449.012,1543.49C450.682,1515.09 451.716,1486.95 451.533,1458.48C451.313,1424.47 446.789,1392.8 436.688,1360.34C428.302,1333.39 416.688,1307.74 407.571,1281.08C397.82,1252.56 391.957,1224.94 391.397,1194.69C391.125,1179.9 392.982,1165.14 397.154,1150.93C413.822,1094.18 463.246,1057.26 513.392,1031.06C582.829,994.789 667.343,970.287 742.832,949.997C814.287,930.792 902.714,913.031 976.502,928.728C999.096,933.535 1019.61,941.309 1039.95,952.164C1052.78,959.015 1065.12,967.255 1078.04,973.717C1086.89,978.139 1095.83,980.89 1105.77,981.111C1133.46,981.732 1174.01,960.639 1198.54,948.857C1229.74,933.875 1264.18,919.95 1299.38,927.729C1346.93,938.237 1373.91,983.309 1393.14,1024.12C1398.44,1035.38 1403.45,1046.84 1408.14,1058.44C1410.69,1053.78 1413.24,1049.13 1415.8,1044.47C1429.98,1018.66 1447.86,995.043 1468,973.603C1516.17,922.338 1578.55,881.957 1641.52,851.199C1671.61,836.496 1705.54,821.793 1737.67,811.828L1750,808.003L1762.33,811.828C1794.46,821.793 1828.4,836.501 1858.5,851.206C1921.46,881.963 1983.83,922.34 2032,973.603C2052.15,995.043 2070.02,1018.66 2084.2,1044.47C2086.76,1049.13 2089.31,1053.78 2091.86,1058.44Z" style="fill:rgb(136,111,132);"/>
    </g>
    <g transform="matrix(4.16667,0,0,4.16667,-1630.71,-3366.68)">
        <path d="M2819.21,1391.34L2820.29,1391.05C2826.59,1389.39 2828.09,1387.66 2828.35,1387.29C2829.48,1384.97 2831.81,1383.33 2834.57,1383.21C2838.57,1383.04 2841.96,1386.14 2842.13,1390.15C2842.14,1390.19 2842.65,1404.08 2832.46,1415.38C2827.69,1420.68 2821.51,1423.42 2815.09,1426.26C2809.18,1428.88 2803,1431.61 2799.38,1436.37C2798.17,1438.14 2796.2,1439.36 2793.9,1439.53C2789.9,1439.83 2786.41,1436.83 2786.11,1432.82C2786.1,1432.78 2784.71,1417.77 2789.58,1408.15C2794.84,1397.78 2807.75,1394.37 2819.21,1391.34ZM680.793,1391.34C692.247,1394.37 705.164,1397.78 710.415,1408.15C715.289,1417.77 713.896,1432.78 713.892,1432.82L713.882,1432.82C713.729,1434.87 712.717,1436.83 710.934,1438.14C707.699,1440.51 703.149,1439.81 700.779,1436.58C697.176,1431.69 690.909,1428.91 684.911,1426.26C678.494,1423.42 672.309,1420.68 667.536,1415.38C657.351,1404.08 657.864,1390.19 657.867,1390.15L657.875,1390.15C657.987,1387.6 659.438,1385.2 661.877,1383.98C665.459,1382.19 669.817,1383.64 671.607,1387.22C671.609,1387.22 672.624,1389.18 679.706,1391.05L680.793,1391.34ZM873.345,1342.87C873.346,1342.95 874.291,1368.8 854.977,1390.24C846.061,1400.13 833.781,1405.57 821.034,1411.21C807.412,1417.24 793.18,1423.55 784.276,1435.62L784.267,1435.61C783.078,1437.23 781.228,1438.36 779.07,1438.55C775.081,1438.91 771.55,1435.97 771.19,1431.98C771.183,1431.89 768.458,1402.15 777.647,1384.01C787.098,1365.34 812.533,1358.63 835.085,1352.68L837.346,1352.08C854.722,1347.49 859.137,1340.57 859.614,1339.74C860.789,1337.42 863.171,1335.81 865.947,1335.76C869.954,1335.68 873.266,1338.87 873.345,1342.87ZM2645.02,1390.24C2625.71,1368.8 2626.65,1342.95 2626.66,1342.87C2626.71,1340.31 2628.12,1337.85 2630.55,1336.58C2634.1,1334.73 2638.49,1336.11 2640.34,1339.66C2640.35,1339.68 2644.17,1347.19 2662.65,1352.08L2664.91,1352.68C2687.47,1358.63 2712.9,1365.34 2722.35,1384.01C2730.91,1400.91 2729.13,1427.87 2728.84,1431.55C2728.78,1433.71 2727.75,1435.81 2725.88,1437.19C2722.64,1439.56 2718.1,1438.86 2715.72,1435.62C2706.82,1423.55 2692.59,1417.24 2678.97,1411.21C2666.22,1405.57 2653.94,1400.13 2645.02,1390.24Z" style="fill:white;"/>
    </g>
    <g transform="matrix(4.16667,0,0,4.16667,-1630.71,-3366.68)">
        <path d="M2483.39,1146.05C2506.68,1121 2534.06,1103.36 2558.57,1091.19C2550.34,1093.55 2541.32,1096.85 2531.49,1100.45C2499.01,1112.35 2458.1,1127.33 2400.91,1125.81C2331.68,1123.99 2253.52,1093.09 2230.18,1083.2C2224.39,1089.81 2213.2,1104.76 2198.32,1134.79C2175.81,1180.23 2168.02,1235.91 2168,1236.07L2167.99,1236.07C2167.36,1240.7 2163.77,1244.56 2158.91,1245.33C2152.98,1246.27 2147.4,1242.22 2146.45,1236.28C2142.81,1213.71 2144.34,1180.47 2149.83,1147.3C2155.07,1115.66 2163.96,1083.7 2175.44,1060.73C2187.84,1035.94 2195.5,1023.06 2207.11,1017.8C2219.66,1012.11 2231.95,1016.4 2253.53,1025.96C2258.71,1028.26 2264.03,1030.8 2269.92,1033.61C2309.76,1052.6 2376.48,1084.41 2434.32,1063.4C2456.56,1055.33 2473.08,1046.93 2487.78,1039.47C2520.78,1022.7 2545.2,1010.31 2602.96,1013.63C2644.38,1016.02 2708.8,1029.21 2771.08,1046.42C2832.75,1063.45 2892.68,1084.53 2926.5,1103.05C2961.97,1122.48 2984.83,1141.28 2995.2,1167.01C3005.54,1192.65 3002.81,1223.72 2987.02,1267.49C2972.59,1307.47 2965.57,1346.34 2962.98,1390.14C2960.37,1434.42 2962.26,1483.84 2965.63,1544.45C2972.38,1665.89 2937.97,1713.06 2905.23,1757.95L2902.21,1762.1C2902.06,1762.33 2901.91,1762.57 2901.74,1762.8C2869.58,1807.07 2847.17,1851.05 2847.11,1851.18L2847.1,1851.18C2845.12,1855.01 2840.96,1857.46 2836.4,1857.03C2830.41,1856.46 2826.02,1851.15 2826.58,1845.16C2826.6,1845.02 2831.04,1797.12 2873.6,1719.8C2893.75,1683.22 2906.89,1650.22 2912.39,1613.73C2915.71,1591.71 2916.28,1568.26 2913.95,1541.83C2912.83,1543.58 2911.2,1545.03 2909.16,1545.93C2903.65,1548.35 2897.21,1545.85 2894.78,1540.34C2856.52,1453.82 2860.4,1388.92 2863.57,1335.7C2865.02,1311.35 2866.32,1289.55 2863.09,1270.01C2853.86,1214.25 2747.92,1202.05 2747.62,1202.02L2747.62,1202C2742.67,1201.42 2738.6,1197.49 2738.06,1192.33C2737.42,1186.35 2741.76,1180.97 2747.74,1180.34C2775.07,1177.42 2801.47,1178.07 2824.41,1180.28C2825.37,1180.37 2826.32,1180.47 2827.26,1180.57C2807.1,1174.36 2781.6,1170.11 2750.08,1171.14C2701.07,1172.76 2670.78,1181.43 2646.59,1199.18C2622,1217.22 2602.5,1245.42 2575.82,1285.34C2555.02,1316.46 2535.58,1352.01 2519.53,1383.98C2531.15,1367.11 2542.65,1349.41 2552.22,1332.73C2588.81,1268.92 2627.32,1253.57 2627.43,1253.53L2627.44,1253.54C2632.1,1251.62 2637.63,1253.16 2640.58,1257.5C2643.95,1262.47 2642.65,1269.24 2637.67,1272.61C2637.61,1272.65 2613.18,1288.92 2586.07,1338.69C2571.7,1365.08 2552.89,1395 2530.23,1428.96C2507.9,1462.44 2481.4,1500.42 2451.59,1543.02C2394.16,1625.06 2390.88,1730.42 2390.87,1730.73L2390.86,1730.73C2390.69,1735.5 2387.37,1739.77 2382.5,1740.93C2376.66,1742.32 2370.79,1738.7 2369.4,1732.86C2357.47,1683.39 2361.09,1632.1 2367.61,1593.39C2336.05,1657.58 2331.59,1722.4 2331.57,1722.64C2331.24,1727.37 2327.82,1731.51 2322.95,1732.54C2317.06,1733.79 2311.27,1730.03 2310.02,1724.14C2309.97,1723.9 2292.42,1643.19 2314.64,1580.97C2323.66,1555.7 2337.44,1527.14 2352.49,1495.96C2372.85,1453.76 2395.59,1406.65 2411.55,1356.84C2427.18,1308.03 2451.61,1273.17 2470.87,1251.35C2448.2,1258.82 2420.81,1272.66 2406.4,1297.82L2406.35,1297.91C2374.69,1353.2 2327.01,1436.49 2287,1427.55C2280.32,1426.05 2274.56,1422.05 2269.84,1416.05C2262.56,1406.78 2257.49,1392.06 2255.56,1374.6C2253.74,1358.08 2254.63,1338.67 2259.05,1318.9C2266.35,1286.26 2283.29,1252.51 2313.52,1228.75C2349.36,1200.6 2378.34,1193.68 2405.29,1187.26C2431.95,1180.9 2456.42,1175.06 2483.39,1146.05ZM941.429,1091.19C965.943,1103.36 993.32,1121 1016.61,1146.05C1043.58,1175.06 1068.05,1180.9 1094.71,1187.26C1121.66,1193.68 1150.64,1200.6 1186.48,1228.75C1216.71,1252.51 1233.65,1286.26 1240.95,1318.9C1245.38,1338.67 1246.26,1358.08 1244.44,1374.6C1242.51,1392.06 1237.44,1406.78 1230.16,1416.05C1225.44,1422.05 1219.68,1426.05 1213,1427.55C1173,1436.49 1125.31,1353.2 1093.65,1297.91L1093.6,1297.82C1079.19,1272.66 1051.8,1258.82 1029.13,1251.35C1048.39,1273.17 1072.82,1308.03 1088.45,1356.84C1104.41,1406.65 1127.15,1453.76 1147.51,1495.96C1162.56,1527.14 1176.34,1555.7 1185.36,1580.97C1206.77,1640.93 1191.25,1718.05 1190.05,1723.78C1189.2,1728.59 1185.17,1732.4 1180.08,1732.76C1174.07,1733.18 1168.85,1728.65 1168.43,1722.64C1168.41,1722.4 1163.95,1657.58 1132.39,1593.39C1138.88,1631.96 1142.49,1683.01 1130.73,1732.31C1129.82,1737.24 1125.6,1741.04 1120.4,1741.23C1114.39,1741.44 1109.34,1736.74 1109.13,1730.73C1109.12,1730.42 1105.84,1625.06 1048.41,1543.02C1018.6,1500.42 992.1,1462.44 969.768,1428.96C947.106,1395 928.304,1365.08 913.93,1338.69C888.62,1292.23 865.654,1274.96 862.658,1272.84C858.23,1270.08 856.307,1264.45 858.356,1259.46C860.642,1253.9 867.007,1251.24 872.568,1253.53C872.679,1253.57 911.193,1268.92 947.782,1332.73C957.348,1349.41 968.851,1367.11 980.468,1383.98C964.424,1352.01 944.983,1316.46 924.182,1285.34C897.504,1245.42 878.002,1217.22 853.405,1199.18C829.216,1181.43 798.933,1172.76 749.916,1171.14C718.425,1170.11 692.944,1174.36 672.786,1180.56L675.593,1180.28C698.372,1178.09 724.56,1177.43 751.672,1180.28C756.889,1180.54 761.311,1184.54 761.943,1189.9C762.649,1195.88 758.37,1201.31 752.384,1202.02C752.082,1202.05 646.143,1214.25 636.911,1270.01C633.677,1289.55 634.978,1311.35 636.43,1335.7C639.604,1388.92 643.477,1453.82 605.221,1540.34L605.212,1540.33C603.124,1545.09 597.854,1547.81 592.632,1546.53C589.802,1545.83 587.504,1544.09 586.05,1541.81C583.722,1568.25 584.286,1591.7 587.609,1613.73C593.112,1650.22 606.253,1683.22 626.395,1719.8C666.022,1791.78 672.608,1838.26 673.339,1844.45C674.07,1848.98 671.871,1853.66 667.572,1855.87C662.223,1858.63 655.649,1856.53 652.892,1851.18C652.828,1851.05 630.422,1807.07 598.258,1762.8L598.286,1762.77L594.772,1757.95C562.034,1713.06 527.623,1665.89 534.369,1544.45C537.737,1483.84 539.634,1434.42 537.015,1390.14C534.426,1346.34 527.411,1307.47 512.982,1267.49C497.192,1223.72 494.459,1192.65 504.796,1167.01C515.171,1141.28 538.03,1122.48 573.498,1103.05C607.317,1084.53 667.246,1063.45 728.918,1046.42C791.201,1029.21 855.619,1016.02 897.038,1013.63C954.801,1010.31 979.215,1022.7 1012.22,1039.47C1026.92,1046.93 1043.44,1055.33 1065.68,1063.4C1123.52,1084.41 1190.24,1052.6 1230.08,1033.61C1235.97,1030.8 1241.29,1028.26 1246.47,1025.96C1268.05,1016.4 1280.34,1012.11 1292.89,1017.8C1304.5,1023.06 1312.16,1035.94 1324.56,1060.73C1336.04,1083.7 1344.93,1115.66 1350.17,1147.3C1355.62,1180.21 1357.16,1213.19 1353.63,1235.75C1353.11,1240.61 1349.34,1244.67 1344.29,1245.37C1338.32,1246.2 1332.82,1242.03 1332,1236.07C1331.98,1235.91 1324.19,1180.23 1301.68,1134.79C1286.8,1104.76 1275.61,1089.81 1269.82,1083.2C1246.48,1093.09 1168.32,1123.99 1099.09,1125.81C1041.9,1127.33 1000.99,1112.35 968.509,1100.45C958.676,1096.85 949.661,1093.55 941.429,1091.19ZM1663.75,921.3C1721.17,892.708 1745.28,887.648 1747.85,887.164C1749.15,886.9 1750.53,886.873 1751.92,887.121C1751.99,887.133 1775.45,891.022 1836.25,921.3C1897.11,951.609 1941.3,992.826 1941.43,992.943L1941.42,992.946C1944.91,996.191 1945.98,1001.48 1943.69,1005.92C1940.93,1011.27 1934.35,1013.37 1929.01,1010.61C1918.04,1004.95 1906.14,999.895 1894.21,995.433C1935.02,1022.34 1968.86,1051.97 1997,1082.49C2042.13,1131.42 2072.59,1182.65 2093.73,1228.61C2135.92,1320.34 2158.19,1509.77 2158.26,1510.31L2158.22,1510.32C2158.84,1515.53 2155.61,1520.56 2150.41,1522.05C2144.63,1523.7 2138.61,1520.36 2136.96,1514.58C2136.9,1514.36 2121.47,1460.95 2100.28,1400.07C2101.2,1403.51 2102.12,1407 2103.05,1410.58C2125.25,1496.54 2151.54,1566.79 2176.76,1622.55C2201.9,1678.14 2225.95,1719.22 2243.8,1747.06C2262.46,1776.17 2277.91,1802.27 2284.2,1832.03C2290.56,1862.18 2287.3,1895.07 2268.13,1936.73C2230.08,2019.43 2100.53,2066.57 2100.16,2066.7L2100.14,2066.66C2095.34,2068.45 2089.8,2066.63 2087.05,2062.1C2083.94,2056.96 2085.59,2050.27 2090.72,2047.16C2090.95,2047.02 2168.37,2000.47 2190.66,1938.61C2201.75,1907.82 2204.61,1882.48 2199.58,1856.65C2194.46,1830.37 2181.06,1802.89 2159.8,1768.31C2141.49,1738.53 2122.58,1704.38 2106.75,1674.64C2122.44,1720.58 2142.15,1751.87 2142.23,1752.01C2144.95,1756.37 2144.27,1762.19 2140.35,1765.79C2135.92,1769.87 2129.02,1769.58 2124.95,1765.15C2106.86,1745.44 2086.97,1715.88 2068.39,1676.97C2052.69,1644.09 2037.8,1604.25 2025.6,1557.68C2021.13,1540.64 2017,1524.11 2012.78,1507.2L2012.66,1506.76C1990.62,1418.47 1965.96,1319.67 1926.17,1265.06C1908.15,1240.33 1887.27,1223.56 1868.43,1212.3C1874,1219.23 1876.3,1223.47 1876.32,1223.5C1877.87,1226.29 1878.18,1229.74 1876.87,1232.93C1874.59,1238.49 1868.22,1241.15 1862.66,1238.86C1847.57,1232.68 1830.08,1227.99 1811.32,1224.79C1791.79,1221.46 1770.93,1219.79 1750,1219.79C1729.07,1219.79 1708.21,1221.46 1688.68,1224.79C1669.93,1227.99 1652.43,1232.68 1637.34,1238.86C1634.38,1240.07 1630.92,1239.98 1627.91,1238.31C1622.65,1235.38 1620.76,1228.75 1623.68,1223.5C1623.7,1223.47 1626,1219.23 1631.57,1212.3C1612.73,1223.56 1591.85,1240.33 1573.83,1265.06C1534.04,1319.67 1509.38,1418.47 1487.34,1506.76L1487.33,1506.76C1483.07,1523.82 1478.91,1540.5 1474.4,1557.68C1462.2,1604.25 1447.31,1644.09 1431.62,1676.97C1413.11,1715.73 1393.3,1745.21 1375.26,1764.92C1371.81,1768.9 1365.88,1769.9 1361.27,1767.03C1356.15,1763.85 1354.59,1757.12 1357.77,1752.01C1357.85,1751.87 1377.56,1720.58 1393.25,1674.64C1377.42,1704.38 1358.51,1738.53 1340.2,1768.31C1318.94,1802.89 1305.54,1830.37 1300.42,1856.65C1295.39,1882.48 1298.25,1907.82 1309.34,1938.61C1330.32,1996.84 1400.15,2041.51 1408.46,2046.66C1413.43,2049.09 1415.85,2054.95 1413.88,2060.26C1411.79,2065.92 1405.5,2068.8 1399.84,2066.7C1399.47,2066.57 1269.92,2019.43 1231.87,1936.73C1212.7,1895.07 1209.44,1862.18 1215.8,1832.03C1222.09,1802.27 1237.54,1776.17 1256.2,1747.06C1274.05,1719.22 1298.1,1678.14 1323.24,1622.55C1348.46,1566.79 1374.75,1496.54 1396.95,1410.58C1397.88,1407 1398.8,1403.51 1399.72,1400.07C1380.04,1456.6 1365.33,1506.69 1363.29,1513.73C1362.19,1519.26 1357,1523.11 1351.3,1522.43C1345.31,1521.73 1341.04,1516.3 1341.74,1510.31C1341.81,1509.77 1364.08,1320.34 1406.27,1228.61C1427.41,1182.65 1457.88,1131.42 1503,1082.49C1531.14,1051.97 1564.98,1022.34 1605.8,995.433C1593.95,999.86 1582.14,1004.88 1571.25,1010.48C1566.98,1012.83 1561.49,1012.08 1558.02,1008.35C1553.92,1003.94 1554.17,997.044 1558.57,992.943C1558.7,992.826 1602.89,951.609 1663.75,921.3ZM1464.74,2181.81C1414.44,2160.29 1374.13,2139.53 1342.27,2120.93C1438.09,2163.07 1539.89,2197.68 1540.32,2197.83C1546.02,2199.76 1552.22,2196.7 1554.15,2191C1556.02,2185.47 1553.2,2179.47 1547.82,2177.36C1535.4,2171.52 1331.43,2075.1 1231.85,1992.65C1133.46,1911.19 1160.33,1794.14 1160.41,1793.8C1161.68,1787.91 1157.94,1782.1 1152.04,1780.83C1147.42,1779.83 1142.84,1781.92 1140.48,1785.72C1115.53,1818.78 1089.1,1864.41 1078.96,1916.11C1071.25,1955.43 1072.9,1998.16 1091.53,2041.51C1118.59,2104.43 1246.69,2196.54 1337.62,2256C1106.51,2160.72 1049.01,2075.56 1048.82,2075.29C1045.37,2070.36 1038.59,2069.16 1033.67,2072.6C1030.48,2074.83 1028.85,2078.45 1029.03,2082.07L1029.01,2082.07C1029.03,2082.48 1033.17,2222.05 1353.93,2347.01C1667.47,2469.15 1744.95,2507.9 1745.18,2508.01C1748.34,2509.57 1751.89,2509.46 1754.82,2508.01C1755.05,2507.9 1832.53,2469.15 2146.07,2347.01C2466.83,2222.05 2470.97,2082.48 2470.99,2082.07C2471.29,2076.06 2466.67,2070.94 2460.66,2070.64C2456.55,2070.43 2452.86,2072.52 2450.84,2075.78C2445.87,2082.72 2383.83,2164.71 2162.38,2256C2253.31,2196.54 2381.41,2104.43 2408.47,2041.51C2427.1,1998.16 2428.75,1955.43 2421.04,1916.11C2410.82,1864 2384.05,1818.04 2358.92,1784.92C2355.29,1780.14 2348.47,1779.2 2343.69,1782.83C2340.21,1785.47 2338.77,1789.79 2339.63,1793.79L2339.59,1793.8C2339.67,1794.14 2366.54,1911.19 2268.15,1992.65C2165.56,2077.59 1952.19,2177.35 1951.57,2177.64C1946.13,2180.19 1943.78,2186.67 1946.32,2192.11C1948.69,2197.18 1954.49,2199.57 1959.67,2197.81L1959.68,2197.83C1960.11,2197.68 2061.92,2163.07 2157.73,2120.93C2125.87,2139.53 2085.56,2160.29 2035.26,2181.81C1885.52,2245.86 1778.24,2334.67 1750,2359.33C1721.76,2334.67 1614.48,2245.86 1464.74,2181.81ZM1638.76,2169.19C1638.89,2169.21 1682.1,2173.55 1750,2218.9C1817.9,2173.55 1861.11,2169.21 1861.24,2169.19L1861.24,2169.21C1864.98,2168.79 1868.83,2170.31 1871.23,2173.55C1874.81,2178.38 1873.8,2185.2 1868.97,2188.78C1815.42,2228.6 1761.95,2297.28 1758.77,2301.39C1758.19,2302.19 1757.48,2302.92 1756.66,2303.55C1751.9,2307.23 1745.05,2306.35 1741.38,2301.59C1741.22,2301.38 1686.48,2230.19 1631.51,2189.14C1628.19,2186.95 1626.2,2183.01 1626.68,2178.79C1627.36,2172.81 1632.77,2168.51 1638.76,2169.19Z" style="fill:rgb(205,99,166);"/>
    </g>
    <g transform="matrix(4.16667,0,0,4.16667,-1630.71,-3366.68)">
        <path d="M1750,1023.7C1750,1023.7 1684.93,1050.68 1635.79,1080.06C1586.65,1109.45 1569.31,1135.47 1569.31,1135.47C1569.31,1135.47 1609.78,1118.61 1647.83,1108.97C1685.89,1099.34 1727.81,1100.3 1727.81,1100.3C1727.81,1100.3 1675.78,1112.83 1655.54,1122.46C1635.31,1132.1 1590.99,1170.64 1590.99,1170.64C1590.99,1170.64 1632.42,1149.44 1665.18,1143.18C1697.94,1136.91 1750,1134.99 1750,1134.99C1750,1134.99 1802.06,1136.91 1834.82,1143.18C1867.58,1149.44 1909.01,1170.64 1909.01,1170.64C1909.01,1170.64 1864.69,1132.1 1844.46,1122.46C1824.22,1112.83 1772.19,1100.3 1772.19,1100.3C1772.19,1100.3 1814.11,1099.34 1852.17,1108.97C1890.22,1118.61 1930.69,1135.47 1930.69,1135.47C1930.69,1135.47 1913.35,1109.45 1864.21,1080.06C1815.07,1050.68 1750,1023.7 1750,1023.7ZM1422.08,2162.66L1360.11,2143.45C1360.11,2143.45 1486.08,2222.19 1585.32,2281.45C1684.57,2340.71 1750,2413.94 1750,2413.94C1750,2413.94 1815.43,2340.71 1914.68,2281.45C2013.92,2222.19 2139.89,2143.45 2139.89,2143.45L2077.92,2162.66C2064.57,2168.95 2050.37,2175.34 2035.26,2181.81C2025.5,2185.98 2015.92,2190.26 2006.53,2194.63C2096.57,2150.93 2211.95,2098.19 2265.78,2055.89C2330.33,2005.17 2333.1,1926.87 2333.1,1926.87L2284.79,1953.98C2199.25,2089.87 1913.84,2154.87 1913.84,2154.87C1913.84,2154.87 1864.7,2266.64 1956.43,2219.5L1956.58,2219.43C1848.45,2276.59 1773,2339.24 1750,2359.33C1727,2339.24 1651.55,2276.59 1543.42,2219.43L1543.57,2219.5C1635.3,2266.64 1586.16,2154.87 1586.16,2154.87C1586.16,2154.87 1300.75,2089.87 1215.21,1953.98L1166.9,1926.87C1166.9,1926.87 1169.67,2005.17 1234.22,2055.89C1288.05,2098.19 1403.43,2150.93 1493.47,2194.63C1484.08,2190.26 1474.5,2185.98 1464.74,2181.81C1449.63,2175.34 1435.43,2168.95 1422.08,2162.66ZM925.699,1013.32L929.935,1024.51C929.935,1024.51 846.579,1031.41 743.963,1070.43C641.349,1109.46 553.671,1132.58 533.437,1174.5C513.202,1216.41 547.027,1285.29 545.05,1357.07C544.804,1366.08 541.459,1371.82 535.91,1374.85C532.668,1337.16 525.707,1302.76 512.982,1267.49C497.191,1223.72 494.458,1192.65 504.796,1167.01C515.171,1141.28 538.03,1122.48 573.498,1103.05C607.317,1084.53 667.246,1063.45 728.918,1046.42C791.201,1029.21 855.619,1016.02 897.038,1013.63C907.627,1013.02 917.093,1012.94 925.699,1013.32ZM2574.3,1013.32L2570.07,1024.51C2570.07,1024.51 2653.42,1031.41 2756.04,1070.43C2858.65,1109.46 2946.33,1132.58 2966.56,1174.5C2986.8,1216.41 2952.97,1285.29 2954.95,1357.07C2955.2,1366.08 2958.54,1371.82 2964.09,1374.85C2967.33,1337.16 2974.29,1302.76 2987.02,1267.49C3002.81,1223.72 3005.54,1192.65 2995.2,1167.01C2984.83,1141.28 2961.97,1122.48 2926.5,1103.05C2892.68,1084.53 2832.75,1063.45 2771.08,1046.42C2708.8,1029.21 2644.38,1016.02 2602.96,1013.63C2592.37,1013.02 2582.91,1012.94 2574.3,1013.32Z" style="fill:rgb(237,177,208);"/>
    </g>
    <g transform="matrix(4.16667,0,0,4.16667,-1630.71,-3366.68)">
        <path d="M2440.32,1293.2C2450.64,1276.02 2461.38,1262.1 2470.87,1251.35C2448.2,1258.82 2420.81,1272.66 2406.4,1297.82L2406.35,1297.91C2374.69,1353.2 2327.01,1436.49 2287,1427.55C2280.32,1426.05 2274.56,1422.05 2269.84,1416.05C2262.56,1406.78 2257.49,1392.06 2255.56,1374.6C2253.74,1358.08 2254.63,1338.67 2259.05,1318.9C2266.35,1286.26 2283.29,1252.51 2313.52,1228.75C2349.36,1200.6 2378.34,1193.68 2405.29,1187.26C2431.95,1180.9 2456.42,1175.06 2483.39,1146.05C2506.68,1121 2534.06,1103.36 2558.57,1091.19C2550.34,1093.55 2541.32,1096.85 2531.49,1100.45C2499.01,1112.35 2458.1,1127.33 2400.91,1125.81C2331.68,1123.99 2253.52,1093.09 2230.18,1083.2C2224.39,1089.81 2213.2,1104.76 2198.32,1134.79C2175.81,1180.23 2168.02,1235.91 2168,1236.07L2167.99,1236.07C2167.36,1240.7 2163.77,1244.56 2158.91,1245.33C2152.98,1246.27 2147.4,1242.22 2146.45,1236.28C2142.81,1213.71 2144.34,1180.47 2149.83,1147.3C2155.07,1115.66 2163.96,1083.7 2175.44,1060.73C2187.84,1035.94 2195.5,1023.06 2207.11,1017.8C2219.66,1012.11 2231.95,1016.4 2253.53,1025.96C2258.71,1028.26 2264.03,1030.8 2269.92,1033.61C2304.2,1049.95 2358.36,1075.77 2409.66,1069.29C2417.39,1072.81 2426.73,1074.53 2438.03,1073.65C2509.11,1068.08 2533.99,1042 2606.74,1051.64C2679.49,1061.28 2717.07,1090.18 2717.07,1090.18C2717.07,1090.18 2608.19,1099.81 2573.02,1157.14C2537.85,1214.47 2557.12,1198.09 2506.63,1232.25C2478.44,1251.32 2455.28,1275.53 2440.32,1293.2ZM2112.04,1684.54C2100.69,1658.24 2088.44,1627.24 2078.05,1594.93C2049.74,1506.92 2020.83,1397.55 2006.86,1358.04C1992.89,1318.54 1976.03,1297.82 1976.03,1297.82C1976.03,1297.82 2008.61,1364.18 2031.67,1537.66C2035.46,1566.11 2034.87,1578.03 2031.25,1578.14C2042.28,1616.02 2055.04,1649.01 2068.39,1676.97C2086.97,1715.88 2106.86,1745.44 2124.95,1765.15C2129.02,1769.58 2135.92,1769.87 2140.35,1765.79C2144.27,1762.19 2144.95,1756.37 2142.23,1752.01C2142.15,1751.87 2122.44,1720.58 2106.75,1674.64C2108.48,1677.89 2110.25,1681.2 2112.04,1684.54ZM1059.68,1293.2C1049.36,1276.02 1038.62,1262.1 1029.13,1251.35C1051.8,1258.82 1079.19,1272.66 1093.6,1297.82L1093.65,1297.91C1125.31,1353.2 1172.99,1436.49 1213,1427.55C1219.68,1426.05 1225.44,1422.05 1230.16,1416.05C1237.44,1406.78 1242.51,1392.06 1244.44,1374.6C1246.26,1358.08 1245.37,1338.67 1240.95,1318.9C1233.65,1286.26 1216.71,1252.51 1186.48,1228.75C1150.64,1200.6 1121.66,1193.68 1094.71,1187.26C1068.05,1180.9 1043.58,1175.06 1016.61,1146.05C993.32,1121 965.943,1103.36 941.429,1091.19C949.661,1093.55 958.676,1096.85 968.509,1100.45C1000.99,1112.35 1041.9,1127.33 1099.09,1125.81C1168.32,1123.99 1246.48,1093.09 1269.82,1083.2C1275.61,1089.81 1286.8,1104.76 1301.68,1134.79C1324.19,1180.23 1331.98,1235.91 1332,1236.07L1332.01,1236.07C1332.64,1240.7 1336.23,1244.56 1341.09,1245.33C1347.02,1246.27 1352.61,1242.22 1353.55,1236.28C1357.19,1213.71 1355.66,1180.47 1350.17,1147.3C1344.93,1115.66 1336.04,1083.7 1324.56,1060.73C1312.16,1035.94 1304.5,1023.06 1292.89,1017.8C1280.34,1012.11 1268.05,1016.4 1246.47,1025.96C1241.29,1028.26 1235.97,1030.8 1230.08,1033.61C1195.8,1049.95 1141.64,1075.77 1090.34,1069.29C1082.61,1072.81 1073.27,1074.53 1061.97,1073.65C990.887,1068.08 966.008,1042 893.261,1051.64C820.514,1061.28 782.934,1090.18 782.934,1090.18C782.934,1090.18 891.812,1099.81 926.982,1157.14C962.152,1214.47 942.876,1198.09 993.373,1232.25C1021.56,1251.32 1044.72,1275.53 1059.68,1293.2ZM1157.22,1841.26C1157.22,1841.26 1116.07,1943.86 1156.91,2049.85C1197.75,2155.84 1462.35,2269.53 1526.91,2306.15C1591.46,2342.76 1648.31,2375.52 1648.31,2375.52C1648.31,2375.52 1541.84,2342.76 1510.04,2337.46C1478.25,2332.16 1445.97,2323.97 1445.97,2323.97C1445.97,2323.97 1551.47,2379.85 1639.15,2420.32C1726.84,2460.79 1750,2469.46 1750,2469.46C1750,2469.46 1773.16,2460.79 1860.85,2420.32C1948.53,2379.85 2054.03,2323.97 2054.03,2323.97C2054.03,2323.97 2021.75,2332.16 1989.96,2337.46C1958.16,2342.76 1851.69,2375.52 1851.69,2375.52C1851.69,2375.52 1908.54,2342.76 1973.09,2306.15C2037.65,2269.53 2302.25,2155.84 2343.09,2049.85C2383.93,1943.86 2342.78,1841.26 2342.78,1841.26L2342.78,1841.19C2343.31,1829.02 2342.79,1818.54 2342.03,1810.55L2341.41,1785.18C2342.03,1784.31 2342.79,1783.52 2343.69,1782.83C2348.47,1779.2 2355.29,1780.14 2358.92,1784.92C2384.05,1818.04 2410.82,1864 2421.04,1916.11C2428.75,1955.43 2427.1,1998.16 2408.47,2041.51C2381.41,2104.43 2253.31,2196.54 2162.38,2256C2383.83,2164.71 2445.87,2082.72 2450.84,2075.78C2452.86,2072.52 2456.55,2070.43 2460.66,2070.64C2466.67,2070.94 2471.29,2076.06 2470.99,2082.07C2470.97,2082.48 2466.83,2222.05 2146.07,2347.01C1832.53,2469.15 1755.05,2507.9 1754.82,2508.01C1753.33,2508.75 1751.68,2509.14 1750,2509.14C1748.32,2509.14 1746.67,2508.75 1745.18,2508.01C1744.95,2507.9 1667.47,2469.15 1353.93,2347.01C1033.17,2222.05 1029.03,2082.48 1029.01,2082.07C1028.71,2076.06 1033.33,2070.94 1039.34,2070.64C1043.45,2070.43 1047.14,2072.52 1049.16,2075.78C1054.13,2082.72 1116.17,2164.71 1337.62,2256C1246.69,2196.54 1118.59,2104.43 1091.53,2041.51C1072.9,1998.16 1071.25,1955.43 1078.96,1916.11C1089.18,1864 1115.95,1818.04 1141.08,1784.92C1144.71,1780.14 1151.53,1779.2 1156.31,1782.83C1157.21,1783.52 1157.97,1784.31 1158.59,1785.18L1157.97,1810.55C1157.21,1818.54 1156.69,1829.02 1157.22,1841.19L1157.22,1841.26ZM1629.03,1213.84C1629.88,1213.32 1630.73,1212.8 1631.57,1212.3C1626,1219.23 1623.7,1223.47 1623.68,1223.5C1622.13,1226.29 1621.82,1229.74 1623.13,1232.93C1625.41,1238.49 1631.78,1241.15 1637.34,1238.86C1652.43,1232.68 1669.92,1227.99 1688.68,1224.79C1708.21,1221.46 1729.07,1219.79 1750,1219.79C1770.93,1219.79 1791.79,1221.46 1811.32,1224.79C1830.08,1227.99 1847.57,1232.68 1862.66,1238.86C1868.22,1241.15 1874.59,1238.49 1876.87,1232.93C1878.18,1229.74 1877.87,1226.29 1876.32,1223.5C1876.3,1223.47 1874,1219.23 1868.43,1212.3C1869.27,1212.8 1870.12,1213.32 1870.97,1213.84C1852.03,1197.78 1830.17,1183.05 1815.73,1179.65C1787.65,1173.05 1750,1172.57 1750,1172.57C1750,1172.57 1712.35,1173.05 1684.27,1179.65C1669.83,1183.05 1647.97,1197.78 1629.03,1213.84ZM1387.96,1684.54C1389.75,1681.2 1391.52,1677.89 1393.25,1674.64C1377.56,1720.58 1357.85,1751.87 1357.77,1752.01C1355.05,1756.37 1355.73,1762.19 1359.65,1765.79C1364.08,1769.87 1370.98,1769.58 1375.05,1765.15C1393.14,1745.44 1413.03,1715.88 1431.62,1676.97C1444.96,1649.01 1457.72,1616.02 1468.75,1578.14C1465.13,1578.03 1464.54,1566.11 1468.33,1537.66C1491.39,1364.18 1523.97,1297.82 1523.97,1297.82C1523.97,1297.82 1507.11,1318.54 1493.14,1358.04C1479.17,1397.55 1450.26,1506.92 1421.95,1594.93C1411.56,1627.24 1399.31,1658.24 1387.96,1684.54ZM1750,981.794C1750,981.794 1611.64,1029.97 1536,1101.75C1460.36,1173.53 1433.38,1244.35 1433.38,1244.35C1433.38,1244.35 1460.85,1211.59 1492.64,1199.55C1524.44,1187.5 1555.75,1180.76 1555.75,1180.76C1555.75,1180.76 1471.93,1258.33 1434.35,1391.29C1396.77,1524.26 1349.4,1645.66 1281.16,1750.69C1212.92,1855.72 1259.45,1888.96 1307.4,1933.04C1308.02,1934.88 1308.66,1936.74 1309.34,1938.61C1331.63,2000.47 1409.05,2047.02 1409.28,2047.16C1414.41,2050.27 1416.06,2056.96 1412.95,2062.1C1410.2,2066.63 1404.66,2068.45 1399.86,2066.66L1399.84,2066.7C1399.47,2066.57 1269.92,2019.43 1231.87,1936.73C1212.7,1895.07 1209.44,1862.18 1215.8,1832.03C1222.09,1802.27 1237.54,1776.17 1256.2,1747.06C1274.05,1719.22 1298.1,1678.14 1323.24,1622.55C1348.46,1566.79 1374.75,1496.54 1396.95,1410.58C1397.88,1407 1398.8,1403.51 1399.72,1400.07C1378.53,1460.95 1363.1,1514.36 1363.04,1514.58C1361.39,1520.36 1355.37,1523.7 1349.59,1522.05C1344.39,1520.56 1341.16,1515.53 1341.78,1510.32L1341.74,1510.31C1341.81,1509.77 1364.08,1320.34 1406.27,1228.61C1427.41,1182.65 1457.87,1131.42 1503,1082.49C1531.14,1051.97 1564.98,1022.34 1605.79,995.433C1593.86,999.895 1581.96,1004.95 1570.99,1010.61C1565.65,1013.37 1559.07,1011.27 1556.31,1005.92C1554.02,1001.48 1555.09,996.191 1558.58,992.946L1558.57,992.943C1558.7,992.826 1602.89,951.609 1663.75,921.3C1724.55,891.022 1748.01,887.133 1748.08,887.121C1748.73,887.006 1749.37,886.95 1750,886.95C1750.63,886.95 1751.27,887.006 1751.92,887.121C1751.99,887.133 1775.45,891.022 1836.25,921.3C1897.11,951.609 1941.3,992.826 1941.43,992.943L1941.42,992.946C1944.91,996.191 1945.98,1001.48 1943.69,1005.92C1940.93,1011.27 1934.35,1013.37 1929.01,1010.61C1918.04,1004.95 1906.14,999.895 1894.21,995.433C1935.02,1022.34 1968.86,1051.97 1997,1082.49C2042.13,1131.42 2072.59,1182.65 2093.73,1228.61C2135.92,1320.34 2158.19,1509.77 2158.26,1510.31L2158.22,1510.32C2158.84,1515.53 2155.61,1520.56 2150.41,1522.05C2144.63,1523.7 2138.61,1520.36 2136.96,1514.58C2136.9,1514.36 2121.47,1460.95 2100.28,1400.07C2101.2,1403.51 2102.12,1407 2103.05,1410.58C2125.25,1496.54 2151.54,1566.79 2176.76,1622.55C2201.9,1678.14 2225.95,1719.22 2243.8,1747.06C2262.46,1776.17 2277.91,1802.27 2284.2,1832.03C2290.56,1862.18 2287.3,1895.07 2268.13,1936.73C2230.08,2019.43 2100.53,2066.57 2100.16,2066.7L2100.14,2066.66C2095.34,2068.45 2089.8,2066.63 2087.05,2062.1C2083.94,2056.96 2085.59,2050.27 2090.72,2047.16C2090.95,2047.02 2168.37,2000.47 2190.66,1938.61C2191.34,1936.74 2191.98,1934.88 2192.6,1933.04C2240.55,1888.96 2287.08,1855.72 2218.84,1750.69C2150.6,1645.66 2103.23,1524.26 2065.65,1391.29C2028.07,1258.33 1944.25,1180.76 1944.25,1180.76C1944.25,1180.76 1975.56,1187.5 2007.36,1199.55C2039.15,1211.59 2066.62,1244.35 2066.62,1244.35C2066.62,1244.35 2039.64,1173.53 1964,1101.75C1888.36,1029.97 1750,981.794 1750,981.794ZM542.447,1655.82L552.204,1649.4C552.204,1649.4 542.767,1588.8 560.109,1492.44C577.453,1396.09 575.524,1328.17 565.408,1271.32C555.292,1214.47 554.807,1174.01 609.727,1146.06C664.649,1118.12 759.556,1113.79 759.556,1113.79C759.556,1113.79 679.584,1132.09 629.48,1163.65C629.48,1163.65 742.451,1125.59 828.687,1149.19C914.923,1172.8 960.211,1277.82 1004.05,1363.1C1047.89,1448.37 1065.72,1498.95 1083.06,1536.05C1100.41,1573.15 1105.71,1585.67 1105.71,1585.67C1105.71,1585.67 1087.4,1498.47 1071.98,1453.67C1056.57,1408.86 1040.19,1375.62 1040.19,1375.62C1040.19,1375.62 1070.54,1407.18 1104.75,1460.17C1125.55,1492.39 1147.59,1513.75 1161.67,1525.54C1171.02,1545.38 1179.27,1563.92 1185.36,1580.97C1207.58,1643.19 1190.03,1723.9 1189.98,1724.14C1188.73,1730.03 1182.94,1733.79 1177.05,1732.54C1172.18,1731.51 1168.76,1727.37 1168.43,1722.64C1168.41,1722.4 1163.95,1657.58 1132.39,1593.39C1138.91,1632.1 1142.53,1683.39 1130.6,1732.86C1129.21,1738.7 1123.34,1742.32 1117.5,1740.93C1112.63,1739.77 1109.31,1735.5 1109.14,1730.73L1109.13,1730.73C1109.12,1730.42 1105.84,1625.06 1048.41,1543.02C1018.6,1500.42 992.102,1462.44 969.768,1428.96C947.106,1395 928.303,1365.08 913.93,1338.69C886.82,1288.92 862.395,1272.65 862.326,1272.61C857.354,1269.24 856.054,1262.47 859.423,1257.5C862.365,1253.16 867.897,1251.62 872.564,1253.54L872.568,1253.53C872.679,1253.57 911.193,1268.92 947.782,1332.73C957.348,1349.41 968.851,1367.11 980.468,1383.98C964.424,1352.01 944.983,1316.46 924.182,1285.34C897.503,1245.42 878.002,1217.22 853.405,1199.18C829.215,1181.43 798.934,1172.76 749.916,1171.14C718.401,1170.11 692.903,1174.36 672.736,1180.57C673.683,1180.47 674.634,1180.37 675.593,1180.28C698.534,1178.07 724.934,1177.42 752.257,1180.34C758.242,1180.97 762.579,1186.35 761.943,1192.33C761.395,1197.49 757.329,1201.42 752.383,1202L752.384,1202.02C752.082,1202.05 646.143,1214.25 636.911,1270.01C633.677,1289.55 634.978,1311.35 636.43,1335.7C639.604,1388.92 643.477,1453.82 605.221,1540.34C602.794,1545.85 596.353,1548.35 590.839,1545.93C588.796,1545.03 587.167,1543.58 586.049,1541.83C583.723,1568.26 584.288,1591.71 587.609,1613.73C593.112,1650.22 606.253,1683.22 626.395,1719.8C668.96,1797.12 673.404,1845.02 673.417,1845.16C673.983,1851.15 669.588,1856.46 663.602,1857.03C659.044,1857.46 654.877,1855.01 652.899,1851.18L652.892,1851.18C652.828,1851.05 630.422,1807.07 598.258,1762.8C598.092,1762.57 597.938,1762.33 597.792,1762.1L594.772,1757.95C574.644,1730.35 553.887,1701.88 542.447,1655.82ZM2957.55,1655.82L2947.8,1649.4C2947.8,1649.4 2957.23,1588.8 2939.89,1492.44C2922.55,1396.09 2924.48,1328.17 2934.59,1271.32C2944.71,1214.47 2945.19,1174.01 2890.27,1146.06C2835.35,1118.12 2740.44,1113.79 2740.44,1113.79C2740.44,1113.79 2820.42,1132.09 2870.52,1163.65C2870.52,1163.65 2757.55,1125.59 2671.31,1149.19C2585.08,1172.8 2539.79,1277.82 2495.95,1363.1C2452.11,1448.37 2434.28,1498.95 2416.94,1536.05C2399.59,1573.15 2394.29,1585.67 2394.29,1585.67C2394.29,1585.67 2412.6,1498.47 2428.02,1453.67C2443.43,1408.86 2459.81,1375.62 2459.81,1375.62C2459.81,1375.62 2429.46,1407.18 2395.25,1460.17C2374.45,1492.39 2352.41,1513.75 2338.33,1525.54C2328.98,1545.38 2320.73,1563.92 2314.64,1580.97C2292.42,1643.19 2309.97,1723.9 2310.02,1724.14C2311.27,1730.03 2317.06,1733.79 2322.95,1732.54C2327.82,1731.51 2331.24,1727.37 2331.57,1722.64C2331.59,1722.4 2336.05,1657.58 2367.61,1593.39C2361.09,1632.1 2357.47,1683.39 2369.4,1732.86C2370.79,1738.7 2376.66,1742.32 2382.5,1740.93C2387.37,1739.77 2390.69,1735.5 2390.86,1730.73L2390.87,1730.73C2390.88,1730.42 2394.16,1625.06 2451.59,1543.02C2481.4,1500.42 2507.9,1462.44 2530.23,1428.96C2552.89,1395 2571.7,1365.08 2586.07,1338.69C2613.18,1288.92 2637.61,1272.65 2637.67,1272.61C2642.65,1269.24 2643.95,1262.47 2640.58,1257.5C2637.63,1253.16 2632.1,1251.62 2627.44,1253.54L2627.43,1253.53C2627.32,1253.57 2588.81,1268.92 2552.22,1332.73C2542.65,1349.41 2531.15,1367.11 2519.53,1383.98C2535.58,1352.01 2555.02,1316.46 2575.82,1285.34C2602.5,1245.42 2622,1217.22 2646.59,1199.18C2670.78,1181.43 2701.07,1172.76 2750.08,1171.14C2781.6,1170.11 2807.1,1174.36 2827.26,1180.57C2826.32,1180.47 2825.37,1180.37 2824.41,1180.28C2801.47,1178.07 2775.07,1177.42 2747.74,1180.34C2741.76,1180.97 2737.42,1186.35 2738.06,1192.33C2738.6,1197.49 2742.67,1201.42 2747.62,1202L2747.62,1202.02C2747.92,1202.05 2853.86,1214.25 2863.09,1270.01C2866.32,1289.55 2865.02,1311.35 2863.57,1335.7C2860.4,1388.92 2856.52,1453.82 2894.78,1540.34C2897.21,1545.85 2903.65,1548.35 2909.16,1545.93C2911.2,1545.03 2912.83,1543.58 2913.95,1541.83C2916.28,1568.26 2915.71,1591.71 2912.39,1613.73C2906.89,1650.22 2893.75,1683.22 2873.6,1719.8C2831.04,1797.12 2826.6,1845.02 2826.58,1845.16C2826.02,1851.15 2830.41,1856.46 2836.4,1857.03C2840.96,1857.46 2845.12,1855.01 2847.1,1851.18L2847.11,1851.18C2847.17,1851.05 2869.58,1807.07 2901.74,1762.8C2901.91,1762.57 2902.06,1762.33 2902.21,1762.1L2905.23,1757.95C2925.36,1730.35 2946.11,1701.88 2957.55,1655.82Z" style="fill:rgb(184,54,148);"/>
    </g>
    <g transform="matrix(4.16667,0,0,4.16667,-1630.71,-3366.68)">
        <path d="M2739,1195.75C2740.58,1199.16 2743.84,1201.56 2747.62,1202L2747.62,1202.02C2747.92,1202.05 2853.86,1214.25 2863.09,1270.01C2866.32,1289.55 2865.02,1311.35 2863.57,1335.7C2860.4,1388.92 2856.52,1453.82 2894.78,1540.34C2897.21,1545.85 2903.65,1548.35 2909.16,1545.93C2910.84,1545.19 2912.24,1544.08 2913.31,1542.73C2911,1520.41 2902.46,1494.13 2903.94,1500.65C2906.35,1511.25 2895.27,1429.82 2890.35,1374.77C2885.43,1319.72 2906.59,1269.16 2875.75,1235.91C2844.92,1202.67 2748.9,1191.18 2748.9,1191.18L2739,1195.75ZM2232.47,1084.17L2227.72,1070.24C2227.72,1070.24 2185.82,1070.01 2149.83,1147.3C2144.34,1180.47 2142.81,1213.71 2146.45,1236.28C2147.4,1242.22 2152.98,1246.27 2158.91,1245.33C2163.77,1244.56 2167.36,1240.7 2167.99,1236.07L2168,1236.07C2168.02,1235.91 2175.81,1180.23 2198.32,1134.79C2213.2,1104.76 2224.39,1089.81 2230.18,1083.2L2232.47,1084.17ZM2316.57,2180.96L2316.51,2181C2225.04,2246.42 2063.13,2305.05 2063.13,2305.05C2063.13,2305.05 2225.55,2282.5 2354.41,2237.2C2468.87,2152.17 2470.97,2082.36 2470.99,2082.07C2471.29,2076.06 2466.67,2070.94 2460.66,2070.64C2456.55,2070.43 2452.86,2072.52 2450.84,2075.78C2447.3,2080.72 2414.83,2123.68 2316.57,2180.96ZM2153.16,1520.83C2151.3,1518.16 2149.38,1515.1 2147.42,1511.59C2114.8,1453.41 2076.79,1308.1 2076.79,1308.1C2076.79,1308.1 2108.92,1348.37 2138.92,1388.5C2151.65,1454.18 2158.22,1510.02 2158.26,1510.31L2158.22,1510.32C2158.72,1514.53 2156.7,1518.63 2153.16,1520.83ZM760.999,1195.75C759.424,1199.16 756.161,1201.56 752.383,1202L752.384,1202.02C752.082,1202.05 646.143,1214.25 636.911,1270.01C633.677,1289.55 634.978,1311.35 636.43,1335.7C639.604,1388.92 643.477,1453.82 605.221,1540.34C602.794,1545.85 596.353,1548.35 590.839,1545.93C589.159,1545.19 587.759,1544.08 586.692,1542.73C589.005,1520.41 597.542,1494.13 596.06,1500.65C593.65,1511.25 604.732,1429.82 609.652,1374.77C614.571,1319.72 593.411,1269.16 624.246,1235.91C655.078,1202.67 751.104,1191.18 751.104,1191.18L760.999,1195.75ZM1267.53,1084.17L1272.28,1070.24C1272.28,1070.24 1314.18,1070.01 1350.17,1147.3C1355.66,1180.47 1357.19,1213.71 1353.55,1236.28C1352.61,1242.22 1347.02,1246.27 1341.09,1245.33C1336.23,1244.56 1332.64,1240.7 1332.01,1236.07L1332,1236.07C1331.98,1235.91 1324.19,1180.23 1301.68,1134.79C1286.8,1104.76 1275.61,1089.81 1269.82,1083.2L1267.53,1084.17ZM1183.43,2180.96L1183.49,2181C1274.96,2246.42 1436.87,2305.05 1436.87,2305.05C1436.87,2305.05 1274.45,2282.5 1145.59,2237.2C1031.13,2152.17 1029.03,2082.36 1029.01,2082.07C1028.71,2076.06 1033.33,2070.94 1039.34,2070.64C1043.45,2070.43 1047.14,2072.52 1049.16,2075.78C1052.7,2080.72 1085.17,2123.68 1183.43,2180.96ZM1346.84,1520.83C1348.7,1518.16 1350.62,1515.1 1352.58,1511.59C1385.2,1453.41 1423.21,1308.1 1423.21,1308.1C1423.21,1308.1 1391.08,1348.37 1361.08,1388.5C1348.35,1454.18 1341.78,1510.02 1341.74,1510.31L1341.78,1510.32C1341.28,1514.53 1343.3,1518.63 1346.84,1520.83ZM1062.12,1266.45L1058.74,1252.11C1058.74,1252.11 1099.97,1277.58 1147.18,1323.83C1194.4,1370.08 1194.4,1278.07 1194.4,1278.07C1194.4,1278.07 1184.52,1318.05 1153.93,1308.42C1153.93,1308.42 1177.06,1295.17 1154.89,1259.76C1132.73,1224.35 1042.16,1180.55 1042.16,1180.55C1042.16,1180.55 1046.9,1177.8 1055.46,1175C1068.39,1180.98 1081.27,1184.05 1094.71,1187.26C1121.66,1193.68 1150.64,1200.6 1186.48,1228.75C1216.71,1252.51 1233.65,1286.26 1240.95,1318.9C1245.37,1338.67 1246.26,1358.08 1244.44,1374.6C1242.51,1392.06 1237.44,1406.78 1230.16,1416.05C1225.44,1422.05 1219.68,1426.05 1213,1427.55C1172.99,1436.49 1125.31,1353.2 1093.65,1297.91L1093.6,1297.82C1085.91,1284.39 1074.52,1274.18 1062.12,1266.45ZM2437.88,1266.45L2441.26,1252.11C2441.26,1252.11 2400.03,1277.58 2352.82,1323.83C2305.6,1370.08 2305.6,1278.07 2305.6,1278.07C2305.6,1278.07 2315.48,1318.05 2346.07,1308.42C2346.07,1308.42 2322.94,1295.17 2345.11,1259.76C2367.27,1224.35 2457.84,1180.55 2457.84,1180.55C2457.84,1180.55 2453.1,1177.8 2444.54,1175C2431.61,1180.98 2418.73,1184.05 2405.29,1187.26C2378.34,1193.68 2349.36,1200.6 2313.52,1228.75C2283.29,1252.51 2266.35,1286.26 2259.05,1318.9C2254.63,1338.67 2253.74,1358.08 2255.56,1374.6C2257.49,1392.06 2262.56,1406.78 2269.84,1416.05C2274.56,1422.05 2280.32,1426.05 2287,1427.55C2327.01,1436.49 2374.69,1353.2 2406.35,1297.91L2406.4,1297.82C2414.09,1284.39 2425.48,1274.18 2437.88,1266.45Z" style="fill:rgb(128,29,104);"/>
    </g>
    <g transform="matrix(4.16667,0,0,4.16667,-1630.71,-3366.68)">
        <path d="M1846,1784.23C1845.83,1783.99 1844.52,1784.98 1842.63,1786.4C1844.54,1786.2 1845.89,1785.82 1846.68,1785.32C1846.55,1785.04 1846.33,1784.68 1846,1784.23ZM1653.32,1785.32C1654.11,1785.82 1655.46,1786.2 1657.37,1786.4C1655.48,1784.98 1654.18,1783.99 1654,1784.23C1653.67,1784.68 1653.45,1785.05 1653.32,1785.32ZM1732.1,1836.99C1740.78,1840.27 1748.29,1841.14 1750,1841.3C1751.71,1841.14 1759.22,1840.27 1767.9,1836.99C1758.24,1838.39 1752.06,1838.09 1750,1837.92C1747.94,1838.09 1741.76,1838.39 1732.1,1836.99ZM1683.02,1272.04C1703.83,1265.99 1726.95,1262.96 1750,1262.96C1773.05,1262.96 1796.17,1265.99 1816.98,1272.04C1836.77,1277.8 1854.49,1286.31 1868.11,1297.57C1887.89,1313.92 1899.55,1338.22 1906.43,1361.47C1903.36,1329.7 1895.98,1312.08 1895.95,1312C1895.18,1310.08 1895.55,1307.81 1897.06,1306.21C1899.13,1304.03 1902.59,1303.95 1904.76,1306.02C1904.8,1306.05 1915.62,1316.34 1925.69,1346.3C1935.28,1374.83 1933.36,1443.46 1933.2,1448.49C1933.24,1450.57 1932.08,1452.58 1930.08,1453.53C1919.6,1458.51 1905.12,1466.7 1890.05,1475.89C1873.86,1485.77 1857.04,1496.76 1843.83,1506.15C1831.11,1515.18 1819.73,1518.75 1811.1,1519.96C1818.94,1525.19 1829.51,1529.49 1838.24,1523.29C1862.94,1505.73 1922.47,1462.88 1924.63,1461.33C1925.59,1460.62 1926.78,1460.21 1928.06,1460.26C1931.07,1460.36 1933.42,1462.89 1933.31,1465.89L1932.24,1493.55C1932.29,1496.26 1930.31,1498.65 1927.55,1499.04C1927.41,1499.06 1877.01,1506.26 1846.97,1535.14C1842.88,1539.08 1839.32,1542.81 1836.23,1546.31C1838.85,1544.55 1840.41,1543.75 1840.42,1543.74C1840.9,1543.49 1841.42,1543.31 1841.98,1543.21C1844.94,1542.66 1847.78,1544.62 1848.32,1547.58C1848.73,1549.81 1849.45,1552.49 1850.59,1555.17C1852.13,1558.81 1854.42,1562.44 1857.65,1564.79C1860.68,1567 1864.76,1568.14 1870.2,1567.13C1872.3,1566.75 1874.6,1566.05 1877.1,1564.99C1896.82,1556.63 1889.6,1531.94 1888.9,1529.68C1887.93,1526.99 1889.23,1523.97 1891.9,1522.83C1904.02,1517.64 1919.58,1513.31 1919.62,1513.3C1919.75,1513.27 1919.88,1513.24 1920.01,1513.22C1922.96,1512.66 1925.81,1514.61 1926.37,1517.57C1929.69,1535.05 1925.12,1549.26 1917.89,1560.3C1922.85,1555.49 1925.38,1551.68 1925.4,1551.65L1925.41,1551.66C1926.36,1550.26 1927.95,1549.31 1929.77,1549.26C1932.77,1549.18 1935.28,1551.55 1935.36,1554.55C1937.17,1613.28 1960.06,1664.76 1962.17,1669.41C1962.82,1670.6 1963.03,1672.02 1962.65,1673.42C1962.59,1673.65 1941.7,1752.63 1896.76,1815.15C1875.18,1845.18 1851.8,1867.83 1827.5,1883.08C1802.33,1898.88 1776.18,1906.78 1750,1906.78C1723.82,1906.78 1697.67,1898.88 1672.5,1883.08C1648.2,1867.83 1624.82,1845.18 1603.24,1815.15C1558.3,1752.63 1537.41,1673.65 1537.35,1673.42L1537.36,1673.42C1537.05,1672.24 1537.12,1670.95 1537.67,1669.75C1537.74,1669.6 1562.65,1616.25 1564.63,1554.9C1564.56,1553.08 1565.41,1551.27 1567.03,1550.18C1569.53,1548.5 1572.92,1549.16 1574.6,1551.65C1574.62,1551.68 1577.15,1555.49 1582.11,1560.3C1574.91,1549.3 1570.35,1535.16 1573.6,1517.77C1573.63,1517.58 1573.67,1517.38 1573.72,1517.19C1574.49,1514.28 1577.47,1512.54 1580.38,1513.3C1580.42,1513.31 1595.98,1517.64 1608.1,1522.83L1608.1,1522.84C1610.67,1523.92 1612.02,1526.81 1611.16,1529.51C1611.13,1529.59 1602.26,1556.24 1622.9,1564.99C1625.4,1566.05 1627.7,1566.75 1629.8,1567.13C1635.24,1568.14 1639.32,1567 1642.35,1564.79C1645.58,1562.43 1647.87,1558.81 1649.41,1555.17C1650.51,1552.58 1651.22,1549.99 1651.64,1547.81C1651.72,1547.2 1651.91,1546.6 1652.22,1546.02C1653.62,1543.36 1656.92,1542.34 1659.58,1543.74C1659.59,1543.75 1661.15,1544.55 1663.77,1546.31C1660.68,1542.81 1657.12,1539.08 1653.03,1535.14C1622.99,1506.26 1572.59,1499.06 1572.45,1499.04L1572.45,1499.03C1569.89,1498.67 1567.87,1496.51 1567.78,1493.83L1566.69,1465.89C1566.65,1464.73 1566.98,1463.54 1567.71,1462.52C1569.47,1460.08 1572.87,1459.53 1575.31,1461.28C1575.5,1461.42 1636.64,1505.43 1661.76,1523.29C1670.49,1529.49 1681.06,1525.19 1688.89,1519.96C1680.27,1518.75 1668.89,1515.18 1656.17,1506.15C1642.96,1496.76 1626.14,1485.77 1609.95,1475.89C1594.88,1466.7 1580.4,1458.51 1569.92,1453.53L1569.93,1453.52C1568.15,1452.68 1566.88,1450.9 1566.81,1448.79C1566.8,1448.58 1564.37,1375.88 1574.31,1346.3C1583.51,1318.94 1593.33,1307.99 1594.99,1306.27C1596.48,1304.66 1598.86,1304.05 1601.02,1304.91C1603.81,1306.03 1605.17,1309.2 1604.05,1312C1604.02,1312.08 1596.64,1329.7 1593.57,1361.47C1600.45,1338.22 1612.11,1313.92 1631.89,1297.57C1645.51,1286.31 1663.23,1277.8 1683.02,1272.04Z" style="fill:rgb(159,128,129);"/>
    </g>
    <g transform="matrix(4.16667,0,0,4.16667,-1630.71,-3366.68)">
        <path d="M1700.46,1687.8C1700.46,1687.8 1709.85,1681.3 1710.58,1671.42C1711.3,1661.55 1708.17,1645.65 1708.17,1645.65C1708.17,1645.65 1703.59,1665.4 1689.86,1677.2C1676.13,1689.01 1673.24,1698.16 1676.85,1715.75C1680.46,1733.33 1688.41,1736.22 1712.74,1741.28C1737.07,1746.34 1750,1752.12 1750,1752.12C1750,1752.12 1762.93,1746.34 1787.26,1741.28C1811.59,1736.22 1819.54,1733.33 1823.15,1715.75C1826.76,1698.16 1823.87,1689.01 1810.14,1677.2C1796.41,1665.4 1791.83,1645.65 1791.83,1645.65C1791.83,1645.65 1788.7,1661.55 1789.42,1671.42C1790.15,1681.3 1799.54,1687.8 1799.54,1687.8C1799.54,1687.8 1808.82,1691.42 1810.98,1697.07C1813.15,1702.74 1811.47,1715.62 1799.54,1709.24C1787.62,1702.86 1773.77,1708.76 1768.47,1719.84C1763.17,1730.92 1750,1728.75 1750,1728.75C1750,1728.75 1736.83,1730.92 1731.53,1719.84C1726.23,1708.76 1712.38,1702.86 1700.46,1709.24C1688.53,1715.62 1686.85,1702.74 1689.02,1697.07C1691.18,1691.42 1700.46,1687.8 1700.46,1687.8ZM1750,1262.96C1773.05,1262.96 1796.17,1265.99 1816.98,1272.04C1836.77,1277.8 1854.49,1286.31 1868.11,1297.57C1887.89,1313.92 1899.55,1338.22 1906.43,1361.47C1903.36,1329.7 1895.98,1312.08 1895.95,1312C1895.18,1310.08 1895.55,1307.81 1897.06,1306.21C1899.13,1304.03 1902.59,1303.95 1904.76,1306.02C1904.8,1306.05 1915.62,1316.34 1925.69,1346.3C1935.28,1374.83 1933.36,1443.46 1933.2,1448.49C1933.24,1450.57 1932.08,1452.58 1930.08,1453.53C1919.6,1458.51 1905.12,1466.7 1890.05,1475.89C1873.86,1485.77 1857.04,1496.76 1843.83,1506.15C1831.11,1515.18 1819.73,1518.75 1811.1,1519.96C1818.94,1525.19 1829.51,1529.49 1838.24,1523.29C1862.94,1505.73 1922.47,1462.88 1924.63,1461.33C1925.59,1460.62 1926.78,1460.21 1928.06,1460.26C1931.07,1460.36 1933.42,1462.89 1933.31,1465.89L1932.24,1493.55C1932.29,1496.26 1930.31,1498.65 1927.55,1499.04C1927.41,1499.06 1877.01,1506.26 1846.97,1535.14C1842.88,1539.08 1839.32,1542.81 1836.23,1546.31C1838.85,1544.55 1840.41,1543.75 1840.42,1543.74C1840.9,1543.49 1841.42,1543.31 1841.98,1543.21C1844.94,1542.66 1847.78,1544.62 1848.32,1547.58C1848.73,1549.81 1849.45,1552.49 1850.59,1555.17C1852.13,1558.81 1854.42,1562.44 1857.65,1564.79C1860.68,1567 1864.76,1568.14 1870.2,1567.13C1872.3,1566.75 1874.6,1566.05 1877.1,1564.99C1896.82,1556.63 1889.6,1531.94 1888.9,1529.68C1887.93,1526.99 1889.23,1523.97 1891.9,1522.83C1904.02,1517.64 1919.58,1513.31 1919.62,1513.3C1919.75,1513.27 1919.88,1513.24 1920.01,1513.22C1922.96,1512.66 1925.81,1514.61 1926.37,1517.57C1929.69,1535.05 1925.12,1549.26 1917.89,1560.3C1922.85,1555.49 1925.38,1551.68 1925.4,1551.65L1925.41,1551.66C1926.36,1550.26 1927.95,1549.31 1929.77,1549.26C1932.77,1549.18 1935.28,1551.55 1935.36,1554.55C1937.17,1613.28 1960.06,1664.76 1962.17,1669.41C1962.82,1670.6 1963.03,1672.02 1962.65,1673.42C1962.59,1673.65 1941.7,1752.63 1896.76,1815.15C1875.18,1845.18 1851.8,1867.83 1827.5,1883.08C1822.38,1886.29 1817.22,1889.18 1812.02,1891.74C1812.02,1891.74 1888.2,1842.69 1909.4,1750.19C1930.6,1657.69 1903.14,1618.67 1887.73,1595.55C1872.31,1572.43 1811.13,1593.86 1810.2,1581.08C1809.26,1568.3 1818.12,1545.45 1818.12,1545.45C1818.12,1545.45 1806.79,1540.87 1795.95,1529.79C1785.12,1518.71 1782.72,1507.99 1782.72,1507.99C1782.72,1507.99 1783.2,1507.75 1795.87,1514.24C1808.54,1520.72 1851.61,1513.75 1863.65,1465.47C1875.7,1417.2 1853.78,1379.72 1853.78,1379.72C1853.78,1379.72 1866.07,1386.94 1875.7,1406.94C1885.34,1426.93 1882.45,1465.23 1882.45,1465.23C1882.45,1465.23 1906.3,1413.68 1869.2,1366.95C1832.11,1320.22 1750,1326.97 1750,1326.97C1750,1326.97 1667.89,1320.22 1630.8,1366.95C1593.7,1413.68 1617.55,1465.23 1617.55,1465.23C1617.55,1465.23 1614.66,1426.93 1624.3,1406.94C1633.93,1386.94 1646.22,1379.72 1646.22,1379.72C1646.22,1379.72 1624.3,1417.2 1636.35,1465.47C1648.39,1513.75 1691.46,1520.72 1704.13,1514.24C1716.8,1507.75 1717.28,1507.99 1717.28,1507.99C1717.28,1507.99 1714.88,1518.71 1704.05,1529.79C1693.21,1540.87 1681.88,1545.45 1681.88,1545.45C1681.88,1545.45 1690.74,1568.3 1689.8,1581.08C1688.87,1593.86 1627.69,1572.43 1612.27,1595.55C1596.86,1618.67 1569.4,1657.69 1590.6,1750.19C1611.8,1842.69 1687.98,1891.74 1687.98,1891.74C1682.78,1889.18 1677.62,1886.29 1672.5,1883.08C1648.2,1867.83 1624.82,1845.18 1603.24,1815.15C1558.3,1752.63 1537.41,1673.65 1537.35,1673.42C1536.97,1672.02 1537.18,1670.6 1537.83,1669.41C1539.94,1664.76 1562.83,1613.28 1564.64,1554.55C1564.72,1551.55 1567.23,1549.18 1570.23,1549.26C1572.05,1549.31 1573.64,1550.26 1574.59,1551.66L1574.6,1551.65C1574.62,1551.68 1577.15,1555.49 1582.11,1560.3C1574.88,1549.26 1570.31,1535.05 1573.63,1517.57C1574.19,1514.61 1577.04,1512.66 1579.99,1513.22C1580.12,1513.24 1580.25,1513.27 1580.38,1513.3C1580.42,1513.31 1595.98,1517.64 1608.1,1522.83C1610.77,1523.97 1612.07,1526.99 1611.1,1529.68C1610.4,1531.94 1603.18,1556.63 1622.9,1564.99C1625.4,1566.05 1627.7,1566.75 1629.8,1567.13C1635.24,1568.14 1639.32,1567 1642.35,1564.79C1645.58,1562.44 1647.87,1558.81 1649.41,1555.17C1650.55,1552.49 1651.27,1549.81 1651.68,1547.58C1652.22,1544.62 1655.06,1542.66 1658.02,1543.21C1658.58,1543.31 1659.1,1543.49 1659.58,1543.74C1659.59,1543.75 1661.15,1544.55 1663.77,1546.31C1660.68,1542.81 1657.12,1539.08 1653.03,1535.14C1622.99,1506.26 1572.59,1499.06 1572.45,1499.04C1569.69,1498.65 1567.71,1496.26 1567.76,1493.55L1566.69,1465.89C1566.58,1462.89 1568.93,1460.36 1571.94,1460.26C1573.22,1460.21 1574.41,1460.62 1575.37,1461.33C1577.53,1462.88 1637.06,1505.73 1661.76,1523.29C1670.49,1529.49 1681.06,1525.19 1688.9,1519.96C1680.27,1518.75 1668.89,1515.18 1656.17,1506.15C1642.96,1496.76 1626.14,1485.77 1609.95,1475.89C1594.88,1466.7 1580.4,1458.51 1569.92,1453.53C1567.92,1452.58 1566.76,1450.57 1566.8,1448.49C1566.64,1443.46 1564.72,1374.83 1574.31,1346.3C1584.38,1316.34 1595.2,1306.05 1595.24,1306.02C1597.41,1303.95 1600.87,1304.03 1602.94,1306.21C1604.45,1307.81 1604.82,1310.08 1604.05,1312C1604.02,1312.08 1596.64,1329.7 1593.57,1361.47C1600.45,1338.22 1612.11,1313.92 1631.89,1297.57C1645.51,1286.31 1663.23,1277.8 1683.02,1272.04C1703.83,1265.99 1726.95,1262.96 1750,1262.96Z" style="fill:rgb(140,103,104);"/>
    </g>
    <g transform="matrix(4.16667,0,0,4.16667,-1630.71,-3366.68)">
        <path d="M1838.03,1789.34C1838.03,1789.34 1822.86,1790.18 1797.44,1779.22C1772.03,1768.26 1770.37,1765.62 1750,1779.22C1729.63,1765.62 1727.97,1768.26 1702.56,1779.22C1677.14,1790.18 1661.97,1789.34 1661.97,1789.34L1665.59,1791.15C1665.59,1791.15 1682.45,1812.22 1703.56,1824.25C1714.22,1830.32 1725.95,1834.61 1734.97,1837.37C1742.98,1838.33 1748.15,1838.07 1750,1837.92C1751.85,1838.07 1757.02,1838.33 1765.03,1837.37C1774.05,1834.61 1785.78,1830.32 1796.44,1824.25C1817.55,1812.22 1834.41,1791.15 1834.41,1791.15L1838.03,1789.34Z" style="fill:rgb(241,116,170);"/>
    </g>
    <g transform="matrix(4.16667,0,0,4.16667,-1630.71,-3366.68)">
        <path d="M1838.03,1789.34C1838.03,1789.34 1831.92,1789.68 1820.96,1787.13C1819.06,1788.98 1815.39,1790.78 1808.19,1790.9C1793.62,1791.14 1781.58,1789.45 1768.81,1790.9C1756.04,1792.34 1750,1794.51 1750,1794.51C1750,1794.51 1743.96,1792.34 1731.19,1790.9C1718.42,1789.45 1706.38,1791.14 1691.81,1790.9C1684.61,1790.78 1680.94,1788.98 1679.04,1787.13C1668.08,1789.68 1661.97,1789.34 1661.97,1789.34L1665.59,1791.15C1665.59,1791.15 1682.45,1812.22 1703.56,1824.25C1705.8,1825.52 1708.08,1826.72 1710.38,1827.84C1706.31,1824.18 1702.14,1819.4 1700.84,1814.38C1698.07,1803.66 1715.05,1807.88 1729.75,1810.65C1744.44,1813.42 1750,1814.74 1750,1814.74C1750,1814.74 1755.56,1813.42 1770.25,1810.65C1784.95,1807.88 1801.93,1803.66 1799.16,1814.38C1797.86,1819.4 1793.69,1824.18 1789.62,1827.84C1791.92,1826.72 1794.2,1825.52 1796.44,1824.25C1817.55,1812.22 1834.41,1791.15 1834.41,1791.15L1838.03,1789.34Z" style="fill:rgb(203,77,129);"/>
    </g>
    <g transform="matrix(4.16667,0,0,4.16667,-1630.71,-3366.68)">
        <path d="M2060.52,1839.87C2049.58,1873.91 2029.53,1901.4 2002.2,1928.02C1945.79,1982.97 1923.06,2022.33 1922.99,2022.44C1921.5,2025.04 1922.4,2028.37 1925,2029.87C1927.19,2031.13 1929.89,2030.69 1931.58,2028.96L1931.59,2028.97C1956.11,2004.09 1977.23,1991.22 1998.88,1978.02C2019.69,1965.33 2040.99,1952.35 2066.33,1928.43C2119.64,1878.11 2117.66,1788.78 2117.66,1788.52C2117.61,1785.52 2115.14,1783.12 2112.13,1783.17C2109.47,1783.21 2107.29,1785.16 2106.85,1787.69L2106.84,1787.69C2102.57,1812.25 2095.52,1832.73 2088.4,1848.7C2092.2,1831.94 2095.32,1811.75 2095.5,1790.09C2096,1731.66 2074.03,1706.61 2073.96,1706.54C2072.01,1704.25 2068.57,1703.98 2066.28,1705.94C2064.78,1707.23 2064.15,1709.16 2064.45,1710.98C2073.42,1764.67 2071.51,1805.7 2060.52,1839.87ZM1439.48,1839.87C1428.49,1805.7 1426.58,1764.67 1435.55,1710.98C1436.05,1708.01 1434.04,1705.2 1431.07,1704.7C1429.03,1704.36 1427.07,1705.2 1425.88,1706.72C1423.93,1709.07 1404.02,1734.45 1404.5,1790.09C1404.68,1811.75 1407.8,1831.94 1411.6,1848.7C1404.48,1832.73 1397.43,1812.25 1393.16,1787.69C1392.65,1784.72 1389.83,1782.72 1386.86,1783.23C1384.1,1783.7 1382.19,1786.17 1382.33,1788.9C1382.26,1795.14 1382.27,1879.91 1433.67,1928.43C1459.01,1952.35 1480.31,1965.33 1501.12,1978.02C1522.77,1991.22 1543.89,2004.09 1568.41,2028.97C1570.52,2031.11 1573.97,2031.14 1576.11,2029.03C1578.01,2027.17 1578.25,2024.25 1576.82,2022.11C1574.53,2018.27 1551.33,1980.16 1497.8,1928.02C1470.47,1901.4 1450.42,1873.92 1439.48,1839.87ZM1509.28,1923.73C1478.91,1894.51 1451.23,1867.88 1440.95,1839.6C1429.02,1806.79 1430.32,1765.38 1437.14,1725.02C1443.88,1685.1 1456.02,1646.12 1465.97,1617.71C1485.17,1562.92 1505.78,1469.48 1506.7,1465.31C1507.13,1462.95 1509.11,1461.07 1511.62,1460.86C1514.62,1460.61 1517.26,1462.85 1517.51,1465.86C1521.92,1517.94 1517.96,1578.45 1514.16,1618.05C1523.68,1587.68 1533.95,1541.9 1532.64,1488.11C1530.33,1392.92 1546.47,1357.22 1548.27,1353.54C1549.22,1351.38 1551.52,1350.01 1553.98,1350.34C1556.96,1350.74 1559.05,1353.48 1558.65,1356.46C1553.27,1396.35 1554.16,1415.47 1555.72,1448.93C1556.58,1467.33 1557.64,1490.04 1557.98,1523.11C1558.67,1589.58 1541.04,1633.77 1521.2,1683.48C1512.96,1704.13 1504.33,1725.76 1496.54,1750.26C1475.92,1815.12 1501.28,1846.29 1537.84,1891.23C1546.61,1902.02 1556.01,1913.57 1565.59,1926.52C1615.53,1994.07 1617.63,2054.09 1617.72,2058.09C1617.86,2060.67 1616.16,2063.06 1613.56,2063.69C1610.64,2064.39 1607.69,2062.6 1606.99,2059.67C1593.54,2004.81 1549.03,1961.98 1509.28,1923.73ZM1993.27,1465.15C1993.33,1465.43 2014.41,1561.75 2034.03,1617.71C2043.98,1646.12 2056.12,1685.1 2062.86,1725.02C2069.68,1765.38 2070.98,1806.79 2059.05,1839.6C2048.77,1867.88 2021.09,1894.51 1990.72,1923.73C1950.97,1961.98 1906.46,2004.81 1893.01,2059.67C1892.43,2062.09 1890.23,2063.87 1887.64,2063.83C1884.63,2063.79 1882.23,2061.31 1882.28,2058.31C1882.28,2058.13 1882.78,1996.35 1934.41,1926.52C1943.99,1913.57 1953.39,1902.02 1962.16,1891.23C1998.72,1846.29 2024.08,1815.12 2003.46,1750.26C1995.67,1725.76 1987.04,1704.13 1978.8,1683.48C1958.96,1633.77 1941.33,1589.58 1942.02,1523.11C1942.36,1490.04 1943.42,1467.33 1944.28,1448.93C1945.84,1415.47 1946.73,1396.35 1941.35,1356.46C1941.06,1354.26 1942.14,1352 1944.23,1350.91C1946.89,1349.52 1950.18,1350.55 1951.57,1353.22C1951.62,1353.32 1969.8,1387.46 1967.36,1488.11C1966.05,1541.9 1976.32,1587.68 1985.84,1618.05C1982.04,1578.45 1978.08,1517.94 1982.49,1465.86L1982.5,1465.86C1982.69,1463.52 1984.38,1461.49 1986.78,1460.97C1989.73,1460.33 1992.63,1462.21 1993.27,1465.15Z" style="fill:rgb(136,111,132);"/>
    </g>
    <g transform="matrix(4.16667,0,0,4.16667,-1630.71,-3366.68)">
        <path d="M2065.58,1820.65C2069.77,1807.53 2073.15,1792.95 2075.56,1776.47C2075.56,1776.47 2085.52,1848.72 2052.76,1897.86C2020,1947 1968.86,1968.89 1927.71,2025.15C1926.54,2026.74 1925.47,2028.18 1924.47,2029.52C1924.63,2029.64 1924.81,2029.76 1925,2029.87C1927.19,2031.13 1929.89,2030.69 1931.58,2028.96L1931.59,2028.97C1956.11,2004.09 1977.23,1991.22 1998.88,1978.02C2019.69,1965.33 2040.99,1952.35 2066.33,1928.43C2119.64,1878.11 2117.66,1788.78 2117.66,1788.52C2117.61,1785.52 2115.14,1783.12 2112.13,1783.17C2109.47,1783.21 2107.29,1785.16 2106.85,1787.69L2106.84,1787.69C2102.57,1812.25 2095.52,1832.73 2088.4,1848.7C2092.2,1831.94 2095.32,1811.75 2095.5,1790.09C2096,1731.66 2074.03,1706.61 2073.96,1706.54C2072.01,1704.25 2068.57,1703.98 2066.28,1705.94C2064.78,1707.23 2064.15,1709.16 2064.45,1710.98C2071.8,1754.97 2071.84,1790.46 2065.58,1820.65ZM1969.49,1659.87C1965.01,1641.51 1955.29,1605.59 1949.89,1566.9C1944.44,1527.92 1958.71,1490.31 1967.58,1471.56C1967.78,1383.69 1951.62,1353.31 1951.57,1353.22C1950.18,1350.55 1946.89,1349.52 1944.23,1350.91C1942.14,1352 1941.06,1354.26 1941.35,1356.46C1946.73,1396.35 1945.84,1415.47 1944.28,1448.93C1943.42,1467.33 1942.36,1490.04 1942.02,1523.11C1941.44,1578.92 1953.78,1619.02 1969.49,1659.87ZM1993.27,1465.15C1993.33,1465.43 2014.41,1561.75 2034.03,1617.71C2043.98,1646.12 2056.12,1685.1 2062.86,1725.02C2069.22,1762.64 2070.78,1801.18 2061.3,1832.81C2057.17,1843.52 2052.45,1853.22 2047.21,1862.22C2033.63,1882.44 2012.9,1902.4 1990.72,1923.73C1950.97,1961.98 1906.46,2004.81 1893.01,2059.67C1892.43,2062.09 1890.23,2063.87 1887.64,2063.83C1884.63,2063.79 1882.23,2061.31 1882.28,2058.31C1882.28,2058.2 1882.47,2035.37 1894.18,2001.82C1936.86,1928.16 1982.18,1914.39 2026.05,1857.15C2076.63,1791.15 2034.72,1686.13 2034.72,1686.13C2052.07,1754.54 2037.61,1798.86 2037.61,1798.86C2033.28,1745.39 2032.79,1749.24 1996.12,1659.97C1984.79,1632.39 1978.36,1602.68 1974.87,1574.8C1978.12,1591.36 1982.04,1605.93 1985.84,1618.05C1982.04,1578.45 1978.08,1517.94 1982.49,1465.86L1982.5,1465.86C1982.69,1463.52 1984.38,1461.49 1986.78,1460.97C1989.73,1460.33 1992.63,1462.21 1993.27,1465.15Z" style="fill:rgb(94,74,93);"/>
    </g>
    <g transform="matrix(4.16667,0,0,4.16667,-1630.71,-3366.68)">
        <path d="M1661.87,1544.19C1662.52,1544.91 1663.16,1545.62 1663.77,1546.31C1661.15,1544.55 1659.59,1543.75 1659.58,1543.74C1659.1,1543.49 1658.58,1543.31 1658.02,1543.21C1655.06,1542.66 1652.22,1544.62 1651.68,1547.58C1651.27,1549.81 1650.55,1552.49 1649.41,1555.17C1647.87,1558.81 1645.58,1562.44 1642.35,1564.79C1639.32,1567 1635.24,1568.14 1629.8,1567.13C1627.7,1566.75 1625.4,1566.05 1622.9,1564.99C1603.18,1556.63 1610.4,1531.94 1611.1,1529.68C1612.07,1526.99 1610.77,1523.97 1608.1,1522.83C1595.98,1517.64 1580.42,1513.31 1580.38,1513.3C1580.25,1513.27 1580.12,1513.24 1579.99,1513.22C1577.04,1512.66 1574.19,1514.61 1573.63,1517.57C1573.15,1520.14 1572.83,1522.64 1572.66,1525.07C1576.15,1538.13 1582.58,1557.73 1582.58,1557.73C1582.58,1557.73 1592.99,1579.86 1618.5,1584.57C1644,1589.29 1690.92,1589.26 1689.8,1581.08C1689.14,1576.24 1678.54,1559.64 1661.87,1544.19ZM1838.13,1544.19C1837.48,1544.91 1836.84,1545.62 1836.23,1546.31C1838.85,1544.55 1840.41,1543.75 1840.42,1543.74C1840.9,1543.49 1841.42,1543.31 1841.98,1543.21C1844.94,1542.66 1847.78,1544.62 1848.32,1547.58C1848.73,1549.81 1849.45,1552.49 1850.59,1555.17C1852.13,1558.81 1854.42,1562.44 1857.65,1564.79C1860.68,1567 1864.76,1568.14 1870.2,1567.13C1872.3,1566.75 1874.6,1566.05 1877.1,1564.99C1896.82,1556.63 1889.6,1531.94 1888.9,1529.68C1887.93,1526.99 1889.23,1523.97 1891.9,1522.83C1904.02,1517.64 1919.58,1513.31 1919.62,1513.3C1919.75,1513.27 1919.88,1513.24 1920.01,1513.22C1922.96,1512.66 1925.81,1514.61 1926.37,1517.57C1926.85,1520.14 1927.17,1522.64 1927.34,1525.07C1923.85,1538.13 1917.42,1557.73 1917.42,1557.73C1917.42,1557.73 1907.01,1579.86 1881.5,1584.57C1856,1589.29 1809.08,1589.26 1810.2,1581.08C1810.86,1576.24 1821.46,1559.64 1838.13,1544.19Z" style="fill:white;"/>
    </g>
    <g transform="matrix(4.16667,0,0,4.16667,-1630.71,-3366.68)">
        <path d="M2721.58,1431.32C2721.58,1431.32 2724.12,1403.58 2715.87,1387.28C2707.61,1370.97 2682.4,1364.83 2660.8,1359.11C2639.2,1353.39 2633.91,1343.01 2633.91,1343.01C2633.91,1343.01 2633.06,1366.1 2650.43,1385.37C2667.79,1404.64 2703.16,1406.34 2721.58,1431.32ZM2793.36,1432.28C2802.09,1420.45 2818.83,1419.64 2827.06,1410.52C2835.28,1401.39 2834.88,1390.46 2834.88,1390.46C2834.88,1390.46 2832.37,1395.38 2822.14,1398.08C2811.91,1400.79 2799.98,1403.7 2796.07,1411.42C2792.16,1419.14 2793.36,1432.28 2793.36,1432.28ZM2157.21,1234.58C2157.21,1234.58 2165.26,1176.97 2188.55,1129.96C2211.85,1082.95 2227.72,1070.24 2227.72,1070.24C2227.72,1070.24 2321.11,1112.82 2401.16,1114.93C2481.21,1117.05 2529.07,1085.28 2566.34,1078.08C2603.62,1070.88 2628.18,1077.66 2628.18,1077.66C2628.18,1077.66 2547.28,1093.33 2491.38,1153.47C2435.47,1213.62 2391.42,1181.43 2320.26,1237.33C2249.11,1293.24 2257.16,1409.72 2289.35,1416.92C2321.53,1424.12 2366.86,1344.92 2396.93,1292.4C2427,1239.88 2506.63,1232.25 2506.63,1232.25C2506.63,1232.25 2449.87,1272.91 2421.92,1360.17C2393.96,1447.42 2346.1,1525.35 2324.92,1584.64C2303.75,1643.94 2320.69,1721.87 2320.69,1721.87C2320.69,1721.87 2328.31,1610.9 2393.54,1532.97C2393.54,1532.97 2357.11,1635.47 2379.98,1730.34C2379.98,1730.34 2383.37,1621.5 2442.67,1536.79C2501.97,1452.08 2548.13,1385.58 2576.51,1333.49C2604.89,1281.39 2631.57,1263.6 2631.57,1263.6C2631.57,1263.6 2596.42,1277.58 2561.69,1338.15C2526.96,1398.71 2466.82,1472.84 2466.82,1472.84C2466.82,1472.84 2512.13,1361.02 2566.77,1279.28C2621.41,1197.53 2646.82,1163.65 2749.74,1160.26C2852.67,1156.87 2895.02,1207.69 2897.14,1206.42C2899.25,1205.15 2828.1,1182.71 2748.9,1191.18C2748.9,1191.18 2863.25,1204.31 2873.84,1268.26C2884.43,1332.22 2849.7,1411.42 2904.76,1535.94C2904.76,1535.94 2884.86,1456.95 2889.51,1385.79C2894.17,1314.64 2910.69,1273.13 2910.69,1273.13C2910.69,1273.13 2895.02,1376.9 2916.2,1482.78C2937.38,1588.67 2924.67,1649.66 2883.16,1725.05C2841.66,1800.44 2837.42,1846.19 2837.42,1846.19C2837.42,1846.19 2860.29,1801.29 2892.91,1756.39C2925.52,1711.5 2961.52,1667.03 2954.75,1545.05C2947.97,1423.07 2947.13,1345.99 2976.77,1263.82C3006.42,1181.65 2987.79,1149.04 2921.3,1112.61C2854.8,1076.19 2683.26,1029.17 2602.37,1024.52C2521.47,1019.86 2509.19,1047.81 2438.03,1073.65C2366.87,1099.48 2286.4,1052.47 2249.13,1035.95C2211.86,1019.43 2207.62,1020.7 2185.17,1065.6C2162.73,1110.49 2150.44,1192.66 2157.21,1234.58ZM1779.46,1687.43C1804.92,1685.88 1811.5,1701.76 1808.01,1713.32C1804.51,1724.89 1788.49,1726.69 1788.49,1726.69C1796.8,1722.36 1801.74,1712.48 1792.23,1716.33C1782.71,1720.19 1771.75,1738.14 1771.75,1738.14C1785.24,1732.72 1793.19,1733.56 1806.56,1728.14C1819.93,1722.72 1821.14,1697.91 1809.33,1688.52C1797.53,1679.12 1779.46,1687.43 1779.46,1687.43ZM2069.82,1710.08C2088.07,1819.28 2061.88,1877.49 2005.99,1931.93C1950.11,1986.37 1927.71,2025.15 1927.71,2025.15C1976.12,1976.01 2011.05,1973.12 2062.6,1924.46C2114.15,1875.8 2112.22,1788.61 2112.22,1788.61C2100.66,1855.09 2068.86,1892.67 2068.86,1892.67C2068.86,1892.67 2089.58,1846.42 2090.06,1790.05C2090.54,1733.69 2069.82,1710.08 2069.82,1710.08ZM1946.75,1355.74C1955.17,1418.13 1948.42,1430.17 1947.46,1523.15C1946.5,1616.13 1982.15,1665.27 2008.65,1748.62C2035.14,1831.96 1989.38,1861.35 1938.79,1929.76C1888.2,1998.17 1887.72,2058.39 1887.72,2058.39C1911.81,1960.11 2030.8,1901.34 2053.93,1837.75C2077.05,1774.15 2048.64,1675.87 2028.88,1619.51C2009.13,1563.14 1987.93,1466.3 1987.93,1466.3C1980.71,1551.58 1996.12,1659.97 1996.12,1659.97C1996.12,1659.97 1959.51,1587.23 1961.92,1487.98C1964.33,1388.74 1946.75,1355.74 1946.75,1355.74ZM778.417,1431.32C796.842,1406.34 832.207,1404.64 849.571,1385.37C866.939,1366.1 866.09,1343.01 866.09,1343.01C866.09,1343.01 860.796,1353.39 839.196,1359.11C817.596,1364.83 792.393,1370.97 784.134,1387.28C775.875,1403.58 778.417,1431.32 778.417,1431.32ZM706.638,1432.28C706.638,1432.28 707.84,1419.14 703.929,1411.42C700.018,1403.7 688.085,1400.79 677.856,1398.08C667.626,1395.38 665.12,1390.46 665.12,1390.46C665.12,1390.46 664.718,1401.39 672.942,1410.52C681.165,1419.64 697.913,1420.45 706.638,1432.28ZM1342.79,1234.58C1349.56,1192.66 1337.27,1110.49 1314.83,1065.6C1292.38,1020.7 1288.14,1019.43 1250.87,1035.95C1213.6,1052.47 1133.13,1099.48 1061.97,1073.65C990.812,1047.81 978.53,1019.86 897.634,1024.52C816.738,1029.17 645.201,1076.19 578.704,1112.61C512.206,1149.04 493.575,1181.65 523.226,1263.82C552.873,1345.99 552.031,1423.07 545.252,1545.05C538.475,1667.03 574.48,1711.5 607.091,1756.39C639.706,1801.29 662.578,1846.19 662.578,1846.19C662.578,1846.19 658.341,1800.44 616.835,1725.05C575.329,1649.66 562.624,1588.67 583.801,1482.78C604.978,1376.9 589.309,1273.13 589.309,1273.13C589.309,1273.13 605.825,1314.64 610.486,1385.79C615.144,1456.95 595.235,1535.94 595.235,1535.94C650.297,1411.42 615.569,1332.22 626.158,1268.26C636.747,1204.31 751.104,1191.18 751.104,1191.18C671.899,1182.71 600.747,1205.15 602.862,1206.42C604.979,1207.69 647.335,1156.87 750.256,1160.26C853.179,1163.65 878.591,1197.53 933.229,1279.28C987.869,1361.02 1033.18,1472.84 1033.18,1472.84C1033.18,1472.84 973.041,1398.71 938.309,1338.15C903.577,1277.58 868.428,1263.6 868.428,1263.6C868.428,1263.6 895.112,1281.39 923.489,1333.49C951.867,1385.58 998.035,1452.08 1057.33,1536.79C1116.63,1621.5 1120.02,1730.34 1120.02,1730.34C1142.89,1635.47 1106.46,1532.97 1106.46,1532.97C1171.69,1610.9 1179.31,1721.87 1179.31,1721.87C1179.31,1721.87 1196.25,1643.94 1175.08,1584.64C1153.9,1525.35 1106.04,1447.42 1078.08,1360.17C1050.13,1272.91 993.373,1232.25 993.373,1232.25C993.373,1232.25 1073,1239.88 1103.07,1292.4C1133.14,1344.92 1178.47,1424.12 1210.65,1416.92C1242.84,1409.72 1250.89,1293.24 1179.74,1237.33C1108.58,1181.43 1064.53,1213.62 1008.62,1153.47C952.716,1093.33 871.82,1077.66 871.82,1077.66C871.82,1077.66 896.384,1070.88 933.658,1078.08C970.931,1085.28 1018.79,1117.05 1098.84,1114.93C1178.89,1112.82 1272.28,1070.24 1272.28,1070.24C1272.28,1070.24 1288.15,1082.95 1311.45,1129.96C1334.74,1176.97 1342.79,1234.58 1342.79,1234.58ZM1720.54,1687.43C1720.54,1687.43 1702.47,1679.12 1690.67,1688.52C1678.86,1697.91 1680.07,1722.72 1693.44,1728.14C1706.81,1733.56 1714.76,1732.72 1728.25,1738.14C1728.25,1738.14 1717.29,1720.19 1707.77,1716.33C1698.26,1712.48 1703.2,1722.36 1711.51,1726.69C1711.51,1726.69 1695.49,1724.89 1691.99,1713.32C1688.5,1701.76 1695.08,1685.88 1720.54,1687.43ZM1750,1798.96C1750,1798.96 1737.52,1794.5 1727.29,1795.34C1717.05,1796.19 1683.32,1793.42 1675.98,1791.13C1668.63,1788.84 1653.57,1775.59 1649.6,1781.01C1645.63,1786.43 1648.15,1791.01 1657.19,1791.85C1666.22,1792.69 1667.42,1793.42 1679.59,1796.31C1691.75,1799.2 1713.07,1799.92 1726.56,1801.85C1740.05,1803.78 1750,1806.42 1750,1806.42C1750,1806.42 1759.95,1803.78 1773.44,1801.85C1786.93,1799.92 1808.25,1799.2 1820.41,1796.31C1832.58,1793.42 1833.78,1792.69 1842.81,1791.85C1851.85,1791.01 1854.37,1786.43 1850.4,1781.01C1846.43,1775.59 1831.37,1788.84 1824.02,1791.13C1816.68,1793.42 1782.95,1796.19 1772.71,1795.34C1762.48,1794.5 1750,1798.96 1750,1798.96ZM1750,1846.77C1750,1846.77 1764.89,1845.69 1778.98,1837.86C1793.07,1830.03 1796.44,1824.25 1796.44,1824.25C1796.44,1824.25 1784.4,1828.59 1770.79,1831C1757.18,1833.4 1750,1832.44 1750,1832.44C1750,1832.44 1742.82,1833.4 1729.21,1831C1715.6,1828.59 1703.56,1824.25 1703.56,1824.25C1703.56,1824.25 1706.93,1830.03 1721.02,1837.86C1735.11,1845.69 1750,1846.77 1750,1846.77ZM1430.18,1710.08C1430.18,1710.08 1409.46,1733.69 1409.94,1790.05C1410.42,1846.42 1431.14,1892.67 1431.14,1892.67C1431.14,1892.67 1399.34,1855.09 1387.78,1788.61C1387.78,1788.61 1385.85,1875.8 1437.4,1924.46C1488.95,1973.12 1523.88,1976.01 1572.29,2025.15C1572.29,2025.15 1549.89,1986.37 1494.01,1931.93C1438.12,1877.49 1411.93,1819.28 1430.18,1710.08ZM1553.25,1355.74C1553.25,1355.74 1535.67,1388.74 1538.08,1487.98C1540.49,1587.23 1503.88,1659.97 1503.88,1659.97C1503.88,1659.97 1519.29,1551.58 1512.07,1466.3C1512.07,1466.3 1490.87,1563.14 1471.12,1619.51C1451.36,1675.87 1422.95,1774.15 1446.07,1837.75C1469.2,1901.34 1588.19,1960.11 1612.28,2058.39C1612.28,2058.39 1611.8,1998.17 1561.21,1929.76C1510.63,1861.35 1464.86,1831.96 1491.35,1748.62C1517.85,1665.27 1553.5,1616.13 1552.54,1523.15C1551.58,1430.17 1544.83,1418.13 1553.25,1355.74ZM1866.8,1228.79C1866.8,1228.79 1854.51,1206.15 1815.73,1179.65C1815.73,1179.65 1885.83,1191.22 1934.96,1258.66C1984.1,1326.11 2010.12,1455.7 2036.14,1554.94C2062.15,1654.19 2100.69,1722.6 2132.97,1757.77C2132.97,1757.77 2086.24,1683.58 2078.05,1594.93C2078.05,1594.93 2125.26,1691.29 2169.1,1762.59C2212.94,1833.89 2224.51,1876.77 2200.9,1942.29C2177.29,2007.8 2096.36,2056.46 2096.36,2056.46C2096.36,2056.46 2222.1,2010.69 2258.23,1932.17C2294.36,1853.64 2270.76,1809.32 2234.62,1752.95C2198.49,1696.58 2137.31,1586.74 2092.51,1413.31C2047.7,1239.88 2009.64,1225.43 2009.64,1225.43C2009.64,1225.43 2046.73,1234.58 2081.42,1318.89C2116.11,1403.2 2147.42,1511.59 2147.42,1511.59C2147.42,1511.59 2125.26,1323.23 2083.83,1233.14C2042.4,1143.05 1964.35,1032.24 1807.78,959.976C1807.78,959.976 1881.25,973.705 1934,1000.92C1934,1000.92 1890.88,960.7 1831.38,931.072C1771.88,901.443 1750,897.834 1750,897.834C1750,897.834 1728.12,901.443 1668.62,931.072C1609.12,960.7 1566,1000.92 1566,1000.92C1618.75,973.705 1692.22,959.976 1692.22,959.976C1535.65,1032.24 1457.6,1143.05 1416.17,1233.14C1374.74,1323.23 1352.58,1511.59 1352.58,1511.59C1352.58,1511.59 1383.89,1403.2 1418.58,1318.89C1453.27,1234.58 1490.36,1225.43 1490.36,1225.43C1490.36,1225.43 1452.3,1239.88 1407.49,1413.31C1362.69,1586.74 1301.51,1696.58 1265.38,1752.95C1229.24,1809.32 1205.64,1853.64 1241.77,1932.17C1277.9,2010.69 1403.64,2056.46 1403.64,2056.46C1403.64,2056.46 1322.71,2007.8 1299.1,1942.29C1275.49,1876.77 1287.06,1833.89 1330.9,1762.59C1374.74,1691.29 1421.95,1594.93 1421.95,1594.93C1413.76,1683.58 1367.03,1757.77 1367.03,1757.77C1399.31,1722.6 1437.85,1654.19 1463.86,1554.94C1489.88,1455.7 1515.9,1326.11 1565.04,1258.66C1614.17,1191.22 1684.27,1179.65 1684.27,1179.65C1645.49,1206.15 1633.2,1228.79 1633.2,1228.79C1698.08,1202.22 1801.92,1202.22 1866.8,1228.79ZM1892.35,1811.97C1936.67,1750.3 1957.38,1672.02 1957.38,1672.02C1957.38,1672.02 1931.85,1617.34 1929.92,1554.7C1929.92,1554.7 1913.3,1579.76 1881.5,1584.57C1881.5,1584.57 1929.44,1562.89 1921.01,1518.57C1921.01,1518.57 1905.83,1522.79 1894.03,1527.85C1894.03,1527.85 1904.5,1559.28 1879.21,1570C1853.92,1580.72 1845.01,1559.64 1842.96,1548.56C1842.96,1548.56 1826.09,1557.23 1810.2,1581.08C1810.2,1581.08 1811.88,1561.33 1843.2,1531.22C1874.51,1501.11 1926.78,1493.64 1926.78,1493.64L1927.87,1465.7C1927.87,1465.7 1861.39,1513.52 1841.39,1527.73C1821.4,1541.94 1795.87,1514.24 1795.87,1514.24C1795.87,1514.24 1814.9,1520.02 1840.67,1501.71C1866.45,1483.4 1905.71,1459.08 1927.75,1448.6C1927.75,1448.6 1930.16,1376.69 1920.52,1348.03C1910.89,1319.36 1901.01,1309.97 1901.01,1309.97C1901.01,1309.97 1919.56,1354.29 1910.88,1428.48C1910.88,1428.48 1911.85,1340.8 1864.64,1301.78C1810.82,1257.3 1689.18,1257.3 1635.36,1301.78C1588.15,1340.8 1589.12,1428.48 1589.12,1428.48C1580.44,1354.29 1598.99,1309.97 1598.99,1309.97C1598.99,1309.97 1589.11,1319.36 1579.48,1348.03C1569.84,1376.69 1572.25,1448.6 1572.25,1448.6C1594.29,1459.08 1633.55,1483.4 1659.33,1501.71C1685.1,1520.02 1704.13,1514.24 1704.13,1514.24C1704.13,1514.24 1678.6,1541.94 1658.61,1527.73C1638.61,1513.52 1572.13,1465.7 1572.13,1465.7L1573.22,1493.64C1573.22,1493.64 1625.49,1501.11 1656.8,1531.22C1688.12,1561.33 1689.8,1581.08 1689.8,1581.08C1673.91,1557.23 1657.04,1548.56 1657.04,1548.56C1654.99,1559.64 1646.08,1580.72 1620.79,1570C1595.5,1559.28 1605.97,1527.85 1605.97,1527.85C1594.17,1522.79 1578.99,1518.57 1578.99,1518.57C1570.56,1562.89 1618.5,1584.57 1618.5,1584.57C1586.7,1579.76 1570.08,1554.7 1570.08,1554.7C1568.15,1617.34 1542.62,1672.02 1542.62,1672.02C1542.62,1672.02 1563.33,1750.3 1607.65,1811.97C1693.28,1931.1 1806.72,1931.1 1892.35,1811.97ZM1750,2294.93C1750,2294.93 1806.11,2221.95 1862.48,2180.03C1862.48,2180.03 1819.15,2184.37 1750,2232.06C1680.85,2184.37 1637.52,2180.03 1637.52,2180.03C1693.89,2221.95 1750,2294.93 1750,2294.93ZM1750,2498.24C1750,2498.24 1828.04,2459.22 2142.14,2336.85C2456.25,2214.48 2460.1,2081.52 2460.1,2081.52C2460.1,2081.52 2383.99,2194.25 2063.13,2305.05C2063.13,2305.05 2357,2133.55 2398.44,2037.2C2439.87,1940.84 2392.65,1847.38 2350.26,1791.5C2350.26,1791.5 2378.69,1915.31 2275.11,2001.06C2171.53,2086.81 1956.18,2187.5 1956.18,2187.5C1956.18,2187.5 2172.97,2113.79 2270.29,2051.16C2270.29,2051.16 2212.96,2117.65 2039.53,2191.84C1866.09,2266.03 1750,2373.94 1750,2373.94C1750,2373.94 1633.91,2266.03 1460.47,2191.84C1287.04,2117.65 1229.71,2051.16 1229.71,2051.16C1327.03,2113.79 1543.82,2187.5 1543.82,2187.5C1543.82,2187.5 1328.47,2086.81 1224.89,2001.06C1121.31,1915.31 1149.74,1791.5 1149.74,1791.5C1107.35,1847.38 1060.13,1940.84 1101.56,2037.2C1143,2133.55 1436.87,2305.05 1436.87,2305.05C1116.01,2194.25 1039.9,2081.52 1039.9,2081.52C1039.9,2081.52 1043.75,2214.48 1357.86,2336.85C1671.96,2459.22 1750,2498.24 1750,2498.24ZM2101.62,1164.24C2108.82,1134.04 2121.88,1089.9 2144.52,1041.86C2186.02,953.767 2219.06,955.461 2283.44,986.379C2347.82,1017.3 2389.75,1036.36 2440.57,1010.95C2491.4,985.536 2532.05,932.592 2746.36,990.195C2960.68,1047.8 3068.68,1102.43 3066.99,1193.92C3065.29,1285.41 3007.69,1326.91 3006.84,1458.21C3006,1589.51 3027.17,1613.23 2989.05,1725.05C2966.99,1789.78 2930.44,1832.09 2890.75,1891.74L2996.21,2046.2L2834.34,2248.54L2595.13,2187.65C2581.12,2187.83 2567.55,2187.32 2554.82,2186.36C2518.65,2229.22 2465.82,2276.13 2388.81,2319.03C2169.12,2441.39 1907.06,2514.62 1750,2638.92C1592.94,2514.62 1330.88,2441.39 1111.19,2319.03C1034.18,2276.13 981.351,2229.22 945.177,2186.36C932.452,2187.32 918.88,2187.83 904.867,2187.65L665.661,2248.54L503.791,2046.2L609.249,1891.74C569.563,1832.09 533.015,1789.78 510.946,1725.05C472.827,1613.23 494.003,1589.51 493.156,1458.21C492.307,1326.91 434.708,1285.41 433.014,1193.92C431.321,1102.43 539.323,1047.8 753.636,990.195C967.952,932.592 1008.6,985.536 1059.43,1010.95C1110.25,1036.36 1152.18,1017.3 1216.56,986.379C1280.94,955.461 1313.98,953.767 1355.48,1041.86C1378.12,1089.9 1391.18,1134.04 1398.38,1164.24C1415.26,1132.51 1433.47,1098.73 1452.28,1064.52C1532.25,919.031 1750,851.583 1750,851.583C1750,851.583 1967.75,919.031 2047.72,1064.52C2066.53,1098.73 2084.74,1132.51 2101.62,1164.24Z"/>
    </g>
    <g transform="matrix(4.16667,0,0,4.16667,-1630.71,-3366.68)">
        <path d="M1434.42,1820.65C1430.23,1807.53 1426.85,1792.95 1424.44,1776.47C1424.44,1776.47 1414.48,1848.72 1447.24,1897.86C1480,1947 1531.14,1968.89 1572.29,2025.15C1573.46,2026.74 1574.53,2028.18 1575.53,2029.52C1575.37,2029.64 1575.19,2029.76 1575,2029.87C1572.81,2031.13 1570.11,2030.69 1568.42,2028.96L1568.41,2028.97C1543.89,2004.09 1522.77,1991.22 1501.12,1978.02C1480.31,1965.33 1459.01,1952.35 1433.67,1928.43C1380.36,1878.11 1382.34,1788.78 1382.34,1788.52C1382.39,1785.52 1384.86,1783.12 1387.87,1783.17C1390.53,1783.21 1392.71,1785.16 1393.15,1787.69L1393.16,1787.69C1397.43,1812.25 1404.48,1832.73 1411.6,1848.7C1407.8,1831.94 1404.68,1811.75 1404.5,1790.09C1404,1731.66 1425.97,1706.61 1426.04,1706.54C1427.99,1704.25 1431.43,1703.98 1433.72,1705.94C1435.22,1707.23 1435.85,1709.16 1435.55,1710.98C1428.2,1754.97 1428.16,1790.46 1434.42,1820.65ZM1530.51,1659.87C1534.99,1641.51 1544.71,1605.59 1550.11,1566.9C1555.56,1527.92 1541.29,1490.31 1532.42,1471.56C1532.22,1383.69 1548.38,1353.31 1548.43,1353.22C1549.82,1350.55 1553.11,1349.52 1555.77,1350.91C1557.86,1352 1558.94,1354.26 1558.65,1356.46C1553.27,1396.35 1554.16,1415.47 1555.72,1448.93C1556.58,1467.33 1557.64,1490.04 1557.98,1523.11C1558.56,1578.92 1546.22,1619.02 1530.51,1659.87ZM1506.73,1465.15C1506.67,1465.43 1485.59,1561.75 1465.97,1617.71C1456.02,1646.12 1443.88,1685.1 1437.14,1725.02C1430.78,1762.64 1429.22,1801.18 1438.7,1832.81C1442.83,1843.52 1447.55,1853.22 1452.79,1862.22C1466.37,1882.44 1487.1,1902.4 1509.28,1923.73C1549.03,1961.98 1593.54,2004.81 1606.99,2059.67C1607.57,2062.09 1609.77,2063.87 1612.36,2063.83C1615.37,2063.79 1617.77,2061.31 1617.72,2058.31C1617.72,2058.2 1617.53,2035.37 1605.82,2001.82C1563.14,1928.16 1517.82,1914.39 1473.95,1857.15C1423.37,1791.15 1465.28,1686.13 1465.28,1686.13C1447.93,1754.54 1462.39,1798.86 1462.39,1798.86C1466.72,1745.39 1467.21,1749.24 1503.88,1659.97C1515.21,1632.39 1521.64,1602.68 1525.13,1574.8C1521.88,1591.36 1517.96,1605.93 1514.16,1618.05C1517.96,1578.45 1521.92,1517.94 1517.51,1465.86L1517.5,1465.86C1517.31,1463.52 1515.62,1461.49 1513.22,1460.97C1510.27,1460.33 1507.37,1462.21 1506.73,1465.15Z" style="fill:rgb(94,74,93);"/>
    </g>
    <g transform="matrix(0.786738,0,0,0.786738,36.4022,-1975.98)">
        <circle cx="7787.5" cy="6462.5" r="87.5" style="stroke:rgb(51,204,177);stroke-width:79.44px;"/>
    </g>
    <g transform="matrix(0.786738,0,0,0.786738,-959.437,-1975.98)">
        <circle cx="7787.5" cy="6462.5" r="87.5" style="stroke:rgb(51,204,177);stroke-width:79.44px;"/>
    </g>
</svg>
