<?xml version="1.0" encoding="UTF-8" standalone="no"?>
<!DOCTYPE svg PUBLIC "-//W3C//DTD SVG 1.1//EN" "http://www.w3.org/Graphics/SVG/1.1/DTD/svg11.dtd">
<svg width="100%" height="100%" viewBox="0 0 20 28" version="1.1" xmlns="http://www.w3.org/2000/svg" xmlns:xlink="http://www.w3.org/1999/xlink" xml:space="preserve" xmlns:serif="http://www.serif.com/" style="fill-rule:evenodd;clip-rule:evenodd;stroke-linejoin:round;stroke-miterlimit:2;">
    <g transform="matrix(1,0,0,1,-108.222,-50.278)">
        <path d="M118.128,77.754L118.428,77.529C119.432,76.775 120.409,75.981 121.341,75.138L121.401,75.082L121.482,75.093C122.183,75.176 122.882,75.288 123.572,75.438L124.177,75.57L124.177,74.753L124.403,74.814C125.001,74.977 125.595,75.178 126.154,75.447L126.869,75.79L126.869,69.063L126.348,69.063L126.485,68.8C127.881,66.129 128.405,63.288 127.763,60.317L127.694,59.996L127.372,59.933C126.149,59.693 125.032,59.206 124.045,58.444L123.988,58.4L123.978,58.329C123.894,57.779 123.764,57.237 123.603,56.704L123.488,56.323L123.499,56.276C123.806,54.969 123.804,53.619 123.634,52.292L123.374,50.278L121.799,51.561C121.162,52.081 120.524,52.6 119.887,53.12L119.836,53.161L119.771,53.161C119.659,53.159 119.546,53.157 119.434,53.155L119.258,53.153L119.258,53.141L116.999,53.141L116.999,53.153L116.822,53.155C116.71,53.157 116.598,53.159 116.485,53.161L116.42,53.161L116.37,53.12C115.732,52.6 115.095,52.081 114.457,51.561L112.883,50.278L112.623,52.292C112.452,53.619 112.451,54.969 112.757,56.276L112.768,56.323L112.653,56.704C112.493,57.237 112.362,57.779 112.279,58.329L112.269,58.4L112.211,58.444C111.224,59.206 110.107,59.693 108.884,59.933L108.563,59.996L108.493,60.317C107.852,63.288 108.375,66.129 109.771,68.8L109.908,69.063L109.388,69.063L109.388,75.79L110.102,75.447C110.661,75.178 111.256,74.977 111.854,74.814L112.08,74.753L112.08,75.57L112.685,75.438C113.375,75.288 114.073,75.176 114.774,75.093L114.855,75.082L114.916,75.138C115.848,75.981 116.824,76.775 117.829,77.529L118.128,77.754Z" style="fill:rgb(203,51,255);"/>
        <path d="M114.261,57.051C117.483,58.46 120.061,58.46 121.995,57.051C123.367,58.876 125.126,60 127.276,60.422C128.494,66.066 125.446,71.635 118.128,77.13C110.811,71.635 107.761,66.066 108.98,60.422C111.13,60 112.89,58.876 114.261,57.051Z"/>
        <path d="M118.442,72.584L117.011,72.285C115.319,71.93 112,71.124 111.479,69.15L111.461,69.08L111.463,69.008C111.499,67.334 111.69,65.163 112.543,63.684L112.615,63.56L112.741,63.491C113.377,63.142 114.014,62.794 114.651,62.446L114.757,62.388L114.877,62.383C115.219,62.371 115.583,62.382 115.925,62.382C116.66,62.381 117.394,62.382 118.128,62.382C119.205,62.382 120.283,62.382 121.36,62.383L121.491,62.383L121.605,62.446C122.242,62.794 122.879,63.142 123.516,63.491L123.642,63.56L123.713,63.684C124.567,65.163 124.758,67.334 124.794,69.008L124.795,69.08L124.777,69.15C124.256,71.124 120.938,71.93 119.245,72.285C118.978,72.341 118.442,72.584 118.442,72.584Z"/>
        <path d="M120.813,70.39C120.43,70.964 119.873,71.428 119.14,71.783C122.254,71.13 123.967,70.208 124.281,69.019C124.232,66.716 123.895,65.023 123.27,63.941C123.27,63.941 122.633,63.592 121.359,62.895L114.897,62.895C113.624,63.592 112.987,63.941 112.987,63.941C112.362,65.023 112.025,66.716 111.975,69.019C112.289,70.208 114.003,71.13 117.116,71.783C115.905,70.315 115.3,69.581 115.3,69.581C117.378,69.191 118.417,68.997 118.417,68.997C117.634,69.625 117.256,70.247 117.282,70.862C118.609,71.004 119.786,70.847 120.813,70.39Z" style="fill:rgb(57,66,83);"/>
        <path d="M111.99,68.54C111.983,68.697 111.979,68.857 111.975,69.019C112.289,70.208 114.003,71.13 117.116,71.783C115.905,70.315 115.3,69.581 115.3,69.581C114.448,69.973 113.633,70.102 112.853,69.968C112.97,69.919 113.028,69.895 113.028,69.895C114.197,69.593 114.862,69.177 115.021,68.648C114.062,69.089 113.247,69.312 112.574,69.316C112.361,68.826 112.254,68.581 112.254,68.581C113.142,68.315 113.586,68.181 113.586,68.181C112.953,67.728 112.636,67.502 112.636,67.502C112.74,67.813 112.791,67.968 112.791,67.968L111.99,68.54Z" style="fill:rgb(119,130,152);"/>
        <path d="M123.839,69.801C124.061,69.555 124.209,69.294 124.281,69.019C124.239,67.037 123.983,65.507 123.514,64.429C123.314,64.653 123.07,65.082 122.779,65.715C122.779,65.715 123.086,65.65 123.698,65.519C123.698,65.519 123.52,65.756 123.162,66.232C123.162,66.232 123.309,66.378 123.605,66.67C123.758,66.919 123.858,67.255 123.905,67.681C123.674,67.234 123.354,66.93 122.945,66.772C122.928,67.362 122.676,67.878 122.191,68.322C122.767,68.536 123.316,69.029 123.839,69.801Z" style="fill:rgb(119,130,152);"/>
        <path d="M121.185,68.558C118.775,67.387 117.028,67.388 115.943,68.563C115.514,68.713 115.299,69.052 115.3,69.581C115.611,68.78 116.203,68.524 117.076,68.811C117.016,69.114 116.986,69.264 116.986,69.264C118.108,68.857 118.857,68.671 119.233,68.709C118.684,69.015 118.247,69.468 117.922,70.07C119.236,69.522 119.894,69.249 119.894,69.249C119.681,69.623 119.574,69.811 119.574,69.811C120.866,69.636 121.679,69.857 122.01,70.474C122.053,70.16 122.011,69.868 121.887,69.597C122.344,69.668 122.771,69.923 123.168,70.361C123.105,70.164 123.032,69.982 122.95,69.817C122.446,68.806 121.857,68.386 121.185,68.558Z" style="fill:rgb(119,130,152);"/>
        <path d="M114.247,65.289C114.084,64.899 113.74,64.525 113.214,64.165C113.909,64.846 114.281,65.678 114.329,66.66C113.753,66.539 113.237,66.325 112.78,66.019C113.188,66.452 113.704,66.796 114.329,67.052C114.563,67.652 114.68,67.952 114.68,67.952C114.087,67.647 113.402,67.404 112.625,67.221C113.86,67.696 114.659,68.172 115.021,68.648C114.281,69.346 113.617,69.762 113.028,69.895C113.437,69.864 114.081,69.621 114.959,69.165C115.186,69.442 115.299,69.581 115.299,69.581C115.299,68.936 115.619,68.573 116.26,68.491C117.478,68.461 118.087,68.446 118.087,68.446C117.571,68.798 117.313,68.974 117.313,68.974C119.155,68.165 120.359,68.044 120.926,68.615C120.761,68.989 120.678,69.176 120.678,69.176C121.834,68.135 122.267,68.798 122.95,69.817C122.526,68.687 121.968,68.226 121.277,68.435C122.088,67.782 122.508,67.014 122.537,66.131C122.641,65.669 122.872,65.141 123.229,64.547C122.696,65.141 122.369,65.688 122.248,66.187C121.474,67.248 120.383,67.398 118.975,66.637C120.187,66.598 121.105,65.849 121.731,64.389C121.126,64.937 120.823,65.209 120.823,65.209C121.47,64.333 121.793,63.895 121.793,63.895C121.38,64.225 121.174,64.389 121.174,64.389C121.112,63.738 121.081,63.412 121.081,63.412C121.081,63.412 121.248,62.92 121.359,62.895L114.897,62.895C115.042,63.787 115.114,64.232 115.114,64.232C114.921,63.925 114.825,63.771 114.825,63.771C114.849,64.962 115.158,65.907 115.754,66.603C115.14,66.386 114.637,65.949 114.247,65.289Z"/>
        <path d="M112.254,68.581C112.905,68.348 113.229,68.232 113.229,68.232C113.229,68.232 113.032,67.989 112.636,67.502C113.117,67.697 113.64,67.948 114.205,68.255C113.722,68.625 113.168,68.862 112.543,68.962C112.543,68.962 112.447,68.835 112.254,68.581Z"/>
        <path d="M112.568,64.879C112.716,64.476 112.845,64.181 112.955,63.996C113.285,64.406 113.505,64.81 113.617,65.209C113.21,65.089 113.008,65.03 113.008,65.03C113.193,65.034 113.287,65.036 113.287,65.036C113.129,64.745 112.89,64.693 112.568,64.879Z"/>
        <path d="M112.3,65.856C112.195,66.329 112.113,66.894 112.053,67.552C112.119,67.177 112.236,66.895 112.403,66.704C112.545,66.768 112.86,66.844 113.348,66.934C112.839,66.688 112.49,66.329 112.3,65.856Z"/>
        <path d="M123.404,66.356C123.538,66.565 123.605,66.67 123.605,66.67C123.605,66.67 123.296,66.515 122.676,66.205C123.357,65.747 123.698,65.519 123.698,65.519C123.811,65.766 123.86,66.014 123.848,66.26C123.772,66.072 123.696,65.961 123.621,65.929C123.477,66.213 123.404,66.356 123.404,66.356Z"/>
        <path d="M121.205,65.844C121.646,65.655 121.997,65.284 122.258,64.732C122.191,65.391 121.995,65.957 121.67,66.428C121.121,67.037 120.223,67.106 118.975,66.637C120.383,67.398 121.474,67.248 122.248,66.187C122.369,65.688 122.696,65.141 123.229,64.547L123.179,64.629L123.428,64.241C123.377,64.135 123.325,64.036 123.27,63.941L121.359,62.895L121.288,63.766L121.603,63.44L121.448,64.081L122.113,63.586C121.854,64.364 121.706,65.203 121.205,65.844Z" style="fill:rgb(119,130,152);"/>
        <path d="M114.133,67.215L114.291,67.766C114.425,67.826 114.555,67.887 114.68,67.952L114.329,67.052C113.704,66.796 113.188,66.452 112.78,66.019C113.034,66.483 113.485,66.881 114.133,67.215Z" style="fill:rgb(119,130,152);"/>
        <path d="M114.03,66.586C114.128,66.614 114.228,66.638 114.329,66.66C114.281,65.678 113.909,64.846 113.214,64.165C113.81,65.106 114.082,65.914 114.03,66.586Z" style="fill:rgb(119,130,152);"/>
        <path d="M113.348,66.934C112.86,66.844 112.545,66.768 112.403,66.704C112.236,66.895 112.119,67.177 112.053,67.552C112.04,67.694 112.029,67.838 112.02,67.986C112.209,67.486 112.384,67.156 112.543,66.996L113.348,66.934Z" style="fill:rgb(119,130,152);"/>
        <path d="M112.3,65.856C112.515,65.465 112.954,65.25 113.617,65.209L113.008,65.03L113.287,65.036C113.129,64.745 112.89,64.693 112.568,64.879C112.465,65.176 112.376,65.502 112.3,65.856Z" style="fill:rgb(119,130,152);"/>
        <path d="M113.689,66.114L113.545,66.071C113.54,65.897 113.521,65.713 113.491,65.521L113.638,65.501C113.684,65.778 113.701,65.982 113.689,66.114ZM113.356,66.007C113.161,65.936 113,65.859 112.874,65.777C112.991,65.68 113.138,65.609 113.314,65.56C113.342,65.703 113.356,65.852 113.356,66.007Z"/>
        <path d="M112.987,63.941L113.214,64.165C113.74,64.525 114.084,64.899 114.247,65.289C114.552,65.804 114.925,66.184 115.367,66.429C114.693,65.803 114.274,64.768 114.112,63.325L112.987,63.941Z" style="fill:rgb(119,130,152);"/>
        <path d="M112.987,63.941L113.214,64.165C113.74,64.525 114.084,64.899 114.247,65.289C114.447,65.626 114.676,65.907 114.936,66.129C114.621,65.743 114.421,65.457 114.337,65.274C114.114,64.681 113.753,64.334 113.296,64.033C113.702,63.634 113.941,63.418 113.941,63.418L112.987,63.941Z" style="fill:rgb(207,224,250);"/>
        <path d="M123.127,64.097C122.594,64.839 122.249,65.536 122.095,66.187C121.576,66.955 120.78,67.212 119.708,66.96C120.768,67.314 121.614,67.056 122.248,66.187C122.369,65.688 122.696,65.141 123.229,64.547L123.179,64.629L123.428,64.241C123.377,64.135 123.325,64.036 123.27,63.941L121.473,62.957L123.127,64.097Z" style="fill:rgb(207,224,250);"/>
        <path d="M123.83,69.401C123.387,68.848 122.841,68.489 122.191,68.322C122.767,68.536 123.316,69.029 123.839,69.801C124.06,69.557 124.206,69.299 124.279,69.028L124.281,69.019C124.26,68.037 124.187,67.165 124.061,66.406C124.15,67.585 124.173,68.43 124.129,68.94C124.043,69.121 123.943,69.274 123.83,69.401Z" style="fill:rgb(207,224,250);"/>
        <path d="M122.539,68.266C122.908,68.272 123.214,68.218 123.458,68.105C123.354,67.911 123.206,67.762 123.013,67.659C122.916,67.918 122.758,68.121 122.539,68.266ZM123.613,68.018L123.804,67.861C123.618,67.576 123.39,67.357 123.117,67.204L123.074,67.459C123.284,67.616 123.463,67.802 123.613,68.018Z" style="fill:rgb(57,66,83);"/>
        <path d="M117.313,68.974L118.087,68.446L116.26,68.491L116.216,68.497C117.132,68.527 117.604,68.547 117.635,68.558L117.313,68.974Z" style="fill:rgb(207,224,250);"/>
        <path d="M117.313,68.974C118.885,68.366 119.989,68.261 120.624,68.659L120.397,69.518L120.678,69.176L120.926,68.615C120.359,68.044 119.155,68.165 117.313,68.974Z" style="fill:rgb(207,224,250);"/>
        <path d="M122.73,69.492C122.162,68.671 121.706,68.25 120.678,69.176C121.446,68.6 122.13,68.706 122.73,69.492Z" style="fill:rgb(207,224,250);"/>
        <path d="M119.331,68.846C118.917,69.286 118.709,69.505 118.709,69.505C119.121,69.311 119.431,69.164 119.638,69.065C119.57,68.962 119.468,68.889 119.331,68.846Z" style="fill:rgb(57,66,83);"/>
        <path d="M122.557,63.94L122.529,64.107L122.751,64.284L122.836,64.148C122.836,64.148 122.743,64.079 122.557,63.94ZM122.507,64.24L122.402,64.861C122.508,64.682 122.605,64.522 122.692,64.378L122.507,64.24Z" style="fill:rgb(207,224,250);"/>
        <path d="M121.754,69.6L121.623,69.59C121.657,69.686 121.677,69.782 121.684,69.876L121.837,69.994C121.819,69.831 121.792,69.699 121.754,69.6ZM121.507,69.585C121.287,69.58 121.082,69.591 120.893,69.623C121.138,69.642 121.356,69.701 121.548,69.798L121.507,69.585Z" style="fill:rgb(207,224,250);"/>
        <path d="M115.3,69.581L115.937,71.151C114.523,70.96 113.406,70.567 112.586,69.972C113.381,70.713 114.892,71.317 117.116,71.783L115.3,69.581Z" style="fill:rgb(207,224,250);"/>
        <path d="M112.785,69.162C113.605,68.912 114.128,68.663 114.354,68.415C114.485,68.549 114.551,68.617 114.551,68.617C114.108,68.869 113.52,69.05 112.785,69.162Z"/>
        <path d="M114.484,68.971C114.089,69.365 113.604,69.673 113.028,69.895C113.617,69.762 114.281,69.346 115.021,68.648C114.628,68.829 114.26,68.972 113.917,69.08C114.353,68.985 114.542,68.948 114.484,68.971Z" style="fill:rgb(207,224,250);"/>
        <path d="M123.544,60.245C123.444,61.036 122.395,65.15 118.158,66.679C113.77,64.873 112.809,61.034 112.712,60.245C112.597,59.111 112.798,57.954 113.131,56.847L113.285,56.334C112.955,55.053 112.942,53.718 113.118,52.356L113.262,51.231L114.142,51.948C114.843,52.519 115.544,53.09 116.245,53.662L116.364,53.661C116.741,53.656 117.119,53.649 117.497,53.644L117.497,53.64L118.759,53.64L118.759,53.644C119.137,53.649 119.515,53.656 119.892,53.661L120.011,53.662C120.712,53.09 121.413,52.519 122.114,51.948L122.994,51.231L123.139,52.356C123.314,53.718 123.301,55.053 122.971,56.334L123.125,56.847C123.459,57.954 123.66,59.111 123.544,60.245Z"/>
        <path d="M118.128,54.271L118.128,66.033C115.73,65.011 114.057,63.404 112.909,61.092C112.909,61.092 113.096,61.202 113.67,61.54C113.212,60.402 113.147,58.983 113.735,57.03L114.532,57.809C113.917,56.663 113.41,55.027 113.744,52.437L116.588,54.755C116.444,54.446 116.372,54.291 116.372,54.291C117.536,54.277 118.128,54.271 118.128,54.271ZM118.128,66.033L118.128,54.271C118.128,54.271 118.721,54.277 119.884,54.291C119.884,54.291 119.813,54.446 119.669,54.755L122.513,52.437C122.847,55.027 122.339,56.663 121.724,57.809L122.521,57.03C123.11,58.983 123.045,60.402 122.586,61.54L123.346,61.093C122.197,63.383 120.512,65.018 118.128,66.033Z" style="fill:rgb(119,130,152);"/>
        <path d="M118.128,63.547C117.87,62.765 117.638,62.206 117.435,61.87C117.283,62.021 117.178,62.136 117.121,62.213C117.025,62.146 116.977,62.112 116.977,62.112C116.703,61.902 116.566,61.796 116.566,61.796C116.314,62.469 116.507,63.101 117.143,63.694C117.8,63.596 118.128,63.547 118.128,63.547Z" style="fill:rgb(57,66,82);"/>
        <path d="M114.052,53.324C115.742,54.278 116.588,54.755 116.588,54.755C115.508,55.699 114.823,56.716 114.532,57.809C114.426,57.386 114.506,56.751 114.582,56.549C114.022,55.338 113.945,54.3 114.052,53.324Z"/>
        <path d="M118.128,56.443L118.128,58.498C118.054,56.579 117.541,55.331 116.588,54.755C117.246,55.09 117.759,55.653 118.128,56.443ZM118.128,56.443L118.128,58.498C118.203,56.579 118.716,55.331 119.669,54.755C119.011,55.09 118.498,55.653 118.128,56.443Z"/>
        <path d="M117.041,58.688L117.677,58.429L116.966,59.087C115.968,58.623 115.469,58.392 115.469,58.392L115.157,58.261L116.051,57.748C116.733,58.396 117.041,58.688 117.041,58.688Z"/>
        <path d="M115.988,58.005C115.88,58.068 115.735,58.147 115.627,58.209L115.663,58.232C116.032,58.403 116.4,58.574 116.769,58.745C116.508,58.498 116.248,58.251 115.988,58.005Z" style="fill:rgb(97,23,154);"/>
        <path d="M113.889,60.927L113.67,61.54C114.425,62.643 114.796,63.11 116.007,63.839C114.9,62.165 113.966,60.064 114.445,58.023L114.532,57.809C114.017,58.57 113.803,59.609 113.889,60.927Z" style="fill:rgb(57,66,82);"/>
        <path d="M117.789,59.167C116.694,59.878 115.893,60.7 115.548,61.464L115.844,62.361C116.117,61.327 116.853,60.225 117.789,59.167Z" style="fill:rgb(57,66,82);"/>
        <path d="M117.037,63.162L116.848,63.133C116.943,63.238 117.083,63.401 117.268,63.623L117.037,63.162Z" style="fill:rgb(182,189,205);"/>
        <path d="M116.546,62.481C116.578,62.8 116.848,63.042 117.354,63.207C117.006,63.031 116.772,62.8 116.651,62.515L116.546,62.481Z" style="fill:rgb(182,189,205);"/>
        <path d="M116.578,61.87C116.498,62.164 116.656,62.423 117.052,62.649C116.785,62.43 116.663,62.193 116.687,61.935L116.578,61.87Z" style="fill:rgb(182,189,205);"/>
        <path d="M117.617,63.796L117.866,63.62C117.678,63.64 117.506,63.683 117.349,63.75C117.433,63.835 117.555,63.896 117.715,63.93L117.617,63.796Z" style="fill:rgb(57,66,82);"/>
        <path d="M116.588,54.755C117.246,55.09 117.759,55.653 118.128,56.443L118.128,54.271C118.128,54.271 117.536,54.277 116.372,54.291L116.588,54.755ZM119.669,54.755C119.011,55.09 118.498,55.653 118.128,56.443L118.128,54.271C118.128,54.271 118.721,54.277 119.884,54.291L119.669,54.755Z" style="fill:rgb(203,51,255);"/>
        <path d="M115.469,58.392L115.157,58.261L116.051,57.748L114.681,58.169L115.726,59.287L115.597,58.833L117.019,59.36L117.789,59.167L117.86,59.087L117.84,59.119L118.128,58.839L118.128,58.498L117.595,58.878L117.677,58.429L116.966,59.087L115.469,58.392ZM120.788,58.392L121.099,58.261L120.206,57.748L121.576,58.169L120.531,59.287L120.66,58.833L119.238,59.36L118.468,59.167L118.396,59.087L118.417,59.119L118.128,58.839L118.128,58.498L118.661,58.878L118.579,58.429L119.291,59.087L120.788,58.392Z" style="fill:rgb(57,66,82);"/>
        <path d="M114.532,57.809C113.856,56.131 113.696,54.636 114.052,53.324L115.166,53.596L113.744,52.437C113.41,55.027 113.917,56.663 114.532,57.809Z" style="fill:white;"/>
        <path d="M114.052,53.324C113.696,54.636 113.856,56.131 114.532,57.809C114.426,57.386 114.506,56.751 114.582,56.549C114.022,55.338 113.945,54.3 114.052,53.324Z" style="fill:rgb(182,189,205);"/>
        <path d="M113.67,61.54C113.281,60.191 113.4,58.752 113.803,57.445L114.532,57.809L113.735,57.03C113.147,58.983 113.211,60.402 113.67,61.54Z" style="fill:rgb(182,189,205);"/>
        <path d="M118.128,60.148C117.875,60.622 117.644,61.196 117.435,61.87L118.128,61.88L118.128,60.148ZM118.128,60.148C118.381,60.622 118.612,61.196 118.822,61.87L118.128,61.88L118.128,60.148Z" style="fill:white;"/>
        <path d="M115.548,61.464C114.88,60.156 114.513,59.008 114.445,58.023C114.32,59.344 115.13,61.342 115.844,62.361L115.548,61.464Z" style="fill:rgb(182,189,205);"/>
        <path d="M114.875,59.031C114.92,59.402 115.032,59.819 115.208,60.279C115.277,60.182 115.349,60.093 115.424,60.011C115.506,59.92 115.592,59.839 115.682,59.767L114.875,59.031ZM115.288,60.48C115.33,60.58 115.374,60.682 115.421,60.786C115.564,60.53 115.759,60.289 116.006,60.063L115.815,59.889L115.558,60.128C115.463,60.233 115.374,60.35 115.288,60.48Z" style="fill:rgb(182,189,205);"/>
        <path d="M116.997,59.551L116.2,59.236L116.282,59.533L116.997,59.551ZM116.05,59.176L115.813,59.082C115.895,59.376 115.935,59.524 115.935,59.524L116.147,59.529L116.05,59.176Z" style="fill:rgb(57,66,82);"/>
        <path d="M116.562,55.224C117.316,55.918 117.838,57.009 118.128,58.498C118.054,56.579 117.541,55.331 116.588,54.755L116.562,55.224Z" style="fill:rgb(57,66,82);"/>
        <path d="M114.532,57.809C115.2,57.086 115.844,56.541 116.465,56.172C116.818,56.407 117.112,56.722 117.349,57.121C117.131,56.367 116.869,55.734 116.562,55.224L116.588,54.755C115.508,55.699 114.823,56.716 114.532,57.809Z" style="fill:rgb(182,189,205);"/>
        <path d="M114.532,57.809C114.979,56.858 115.656,55.997 116.562,55.224L116.588,54.755C115.508,55.699 114.823,56.716 114.532,57.809Z" style="fill:white;"/>
        <path d="M117.041,58.688C117.466,58.515 117.678,58.429 117.677,58.429C117.239,58.459 117.02,58.475 117.02,58.475C116.374,57.991 116.051,57.748 116.051,57.748C116.71,58.374 117.041,58.688 117.041,58.688Z" style="fill:rgb(182,189,205);"/>
        <path d="M116.875,58.095L116.813,57.859L117.304,57.859L117.467,58.106C117.072,58.099 116.875,58.095 116.875,58.095ZM116.759,57.657L116.486,56.62L117.171,57.657L116.759,57.657Z" style="fill:rgb(57,66,82);"/>
        <path d="M116.648,54.529L116.588,54.755C117.246,55.09 117.759,55.653 118.128,56.443L118.128,55.261C117.872,54.88 117.379,54.636 116.648,54.529ZM119.608,54.529L119.669,54.755C119.011,55.09 118.498,55.653 118.128,56.443L118.128,55.261C118.385,54.88 118.878,54.636 119.608,54.529Z" style="fill:rgb(97,23,154);"/>
        <path d="M118.128,59.349C117.678,59.737 117.168,60.514 116.6,61.679L116.977,62.112L117.121,62.213C117.178,62.136 117.283,62.021 117.435,61.87C117.644,61.196 117.875,60.622 118.128,60.148L118.128,59.349ZM118.128,59.349C118.579,59.737 119.088,60.514 119.657,61.679L119.28,62.112L119.135,62.213C119.078,62.136 118.974,62.021 118.822,61.87C118.612,61.196 118.381,60.622 118.128,60.148L118.128,59.349Z" style="fill:rgb(182,189,205);"/>
        <path d="M118.075,63.608L117.769,63.806L117.826,63.95C117.917,63.962 118.018,63.967 118.128,63.966L118.128,63.608L118.075,63.608ZM118.181,63.608L118.488,63.806L118.43,63.95C118.339,63.962 118.239,63.967 118.128,63.966L118.128,63.608L118.181,63.608Z" style="fill:rgb(182,189,205);"/>
        <path d="M115.34,58.157C115.984,58.406 116.306,58.53 116.306,58.53L116.347,58.491C116.347,58.491 116.131,58.295 115.765,57.948C115.528,57.934 115.461,57.93 115.461,57.93C115.123,57.744 114.938,57.517 114.909,57.249C114.797,57.271 114.741,57.281 114.741,57.281C114.579,56.884 114.53,56.449 114.596,55.975C114.451,56.525 114.474,57.047 114.709,57.459L114.801,57.434C114.887,57.774 115.081,57.994 115.34,58.157Z" style="fill:rgb(203,51,255);"/>
        <path d="M114.148,58.092C113.998,58.372 113.865,58.76 113.75,59.256C113.729,58.813 113.75,58.371 113.814,57.929C114.037,58.039 114.148,58.092 114.148,58.092Z" style="fill:rgb(57,66,82);"/>
        <path d="M118.128,63.547C118.387,62.765 118.618,62.206 118.822,61.87C118.974,62.021 119.078,62.136 119.135,62.213C119.231,62.146 119.28,62.112 119.28,62.112C119.554,61.902 119.69,61.796 119.69,61.796C119.942,62.469 119.75,63.101 119.114,63.694C118.457,63.596 118.128,63.547 118.128,63.547Z" style="fill:rgb(57,66,82);"/>
        <path d="M122.205,53.324C120.514,54.278 119.669,54.755 119.669,54.755C120.749,55.699 121.434,56.716 121.724,57.809C121.83,57.386 121.75,56.751 121.675,56.549C122.235,55.338 122.312,54.3 122.205,53.324Z"/>
        <path d="M119.216,58.688L118.579,58.429L119.291,59.087C120.289,58.623 120.788,58.392 120.788,58.392L121.099,58.261L120.206,57.748C119.524,58.396 119.216,58.688 119.216,58.688Z"/>
        <path d="M120.269,58.005C120.376,58.068 120.521,58.147 120.629,58.209L120.593,58.232C120.225,58.403 119.856,58.574 119.488,58.745C119.748,58.498 120.008,58.251 120.269,58.005Z" style="fill:rgb(97,23,154);"/>
        <path d="M122.367,60.927L122.586,61.54C121.832,62.643 121.46,63.11 120.249,63.839C121.356,62.165 122.291,60.064 121.812,58.023L121.724,57.809C122.239,58.57 122.454,59.609 122.367,60.927Z" style="fill:rgb(57,66,82);"/>
        <path d="M118.468,59.167C119.563,59.878 120.363,60.7 120.708,61.464L120.413,62.361C120.14,61.327 119.403,60.225 118.468,59.167Z" style="fill:rgb(57,66,82);"/>
        <path d="M119.22,63.162L119.409,63.133C119.313,63.238 119.174,63.401 118.989,63.623L119.22,63.162Z" style="fill:rgb(182,189,205);"/>
        <path d="M119.71,62.481C119.679,62.8 119.409,63.042 118.902,63.207C119.25,63.031 119.484,62.8 119.605,62.515L119.71,62.481Z" style="fill:rgb(182,189,205);"/>
        <path d="M119.678,61.87C119.759,62.164 119.601,62.423 119.204,62.649C119.472,62.43 119.594,62.193 119.569,61.935L119.678,61.87Z" style="fill:rgb(182,189,205);"/>
        <path d="M118.64,63.796L118.391,63.62C118.578,63.64 118.75,63.683 118.908,63.75C118.823,63.835 118.701,63.896 118.542,63.93L118.64,63.796Z" style="fill:rgb(57,66,82);"/>
        <path d="M121.724,57.809C122.4,56.131 122.561,54.636 122.205,53.324L121.091,53.596L122.513,52.437C122.847,55.027 122.339,56.663 121.724,57.809Z" style="fill:white;"/>
        <path d="M122.205,53.324C122.561,54.636 122.4,56.131 121.724,57.809C121.83,57.386 121.75,56.751 121.675,56.549C122.235,55.338 122.312,54.3 122.205,53.324Z" style="fill:rgb(182,189,205);"/>
        <path d="M122.586,61.54C122.976,60.191 122.856,58.752 122.454,57.445L121.724,57.809L122.521,57.03C123.11,58.983 123.045,60.402 122.586,61.54Z" style="fill:rgb(182,189,205);"/>
        <path d="M120.708,61.464C121.376,60.156 121.744,59.008 121.812,58.023C121.937,59.344 121.126,61.342 120.413,62.361L120.708,61.464Z" style="fill:rgb(182,189,205);"/>
        <path d="M121.381,59.031C121.336,59.402 121.225,59.819 121.048,60.279C120.979,60.182 120.908,60.093 120.833,60.011C120.75,59.92 120.664,59.839 120.575,59.767L121.381,59.031ZM120.968,60.48C120.927,60.58 120.883,60.682 120.836,60.786C120.692,60.53 120.498,60.289 120.25,60.063L120.441,59.889L120.698,60.128C120.793,60.233 120.883,60.35 120.968,60.48Z" style="fill:rgb(182,189,205);"/>
        <path d="M119.259,59.551L120.056,59.236L119.975,59.533L119.259,59.551ZM120.206,59.176L120.444,59.082C120.362,59.376 120.322,59.524 120.322,59.524L120.109,59.529L120.206,59.176Z" style="fill:rgb(57,66,82);"/>
        <path d="M119.694,55.224C118.94,55.918 118.418,57.009 118.128,58.498C118.203,56.579 118.716,55.331 119.669,54.755L119.694,55.224Z" style="fill:rgb(57,66,82);"/>
        <path d="M121.724,57.809C121.057,57.086 120.413,56.541 119.792,56.172C119.439,56.407 119.145,56.722 118.908,57.121C119.126,56.367 119.388,55.734 119.694,55.224L119.669,54.755C120.749,55.699 121.434,56.716 121.724,57.809Z" style="fill:rgb(182,189,205);"/>
        <path d="M121.724,57.809C121.277,56.858 120.601,55.997 119.694,55.224L119.669,54.755C120.749,55.699 121.434,56.716 121.724,57.809Z" style="fill:white;"/>
        <path d="M119.216,58.688C118.791,58.515 118.579,58.429 118.579,58.429C119.018,58.459 119.237,58.475 119.237,58.475C119.883,57.991 120.206,57.748 120.206,57.748C119.546,58.374 119.216,58.688 119.216,58.688Z" style="fill:rgb(182,189,205);"/>
        <path d="M119.382,58.095L119.444,57.859L118.953,57.859L118.79,58.106C119.185,58.099 119.382,58.095 119.382,58.095ZM119.497,57.657L119.77,56.62L119.086,57.657L119.497,57.657Z" style="fill:rgb(57,66,82);"/>
        <path d="M120.917,58.157C120.272,58.406 119.95,58.53 119.95,58.53L119.91,58.491C119.91,58.491 120.125,58.295 120.491,57.948C120.728,57.934 120.796,57.93 120.796,57.93C121.134,57.744 121.318,57.517 121.348,57.249C121.459,57.271 121.515,57.281 121.515,57.281C121.678,56.884 121.727,56.449 121.661,55.975C121.805,56.525 121.782,57.047 121.547,57.459L121.456,57.434C121.37,57.774 121.175,57.994 120.917,58.157Z" style="fill:rgb(203,51,255);"/>
        <path d="M122.108,58.092C122.259,58.372 122.392,58.76 122.507,59.256C122.528,58.813 122.507,58.371 122.442,57.929C122.219,58.039 122.108,58.092 122.108,58.092Z" style="fill:rgb(57,66,82);"/>
        <path d="M118.128,61.88L118.128,63.608C117.837,63.606 117.577,63.653 117.349,63.75C117.496,63.899 117.756,63.971 118.128,63.966L118.128,66.033C115.73,65.011 113.873,63.486 112.909,61.092C112.909,61.092 113.096,61.202 113.67,61.54C114.425,62.643 114.796,63.11 116.007,63.839C114.9,62.165 113.966,60.064 114.445,58.023C114.32,59.344 115.13,61.342 115.844,62.361C116.124,61.301 116.891,60.17 117.86,59.087C117.254,59.998 116.835,60.863 116.6,61.679C116.6,61.679 116.726,61.824 116.977,62.112C116.977,62.112 116.844,62.031 116.578,61.87C116.498,62.164 116.656,62.423 117.052,62.649C117.052,62.649 116.883,62.593 116.546,62.481C116.578,62.8 116.848,63.042 117.354,63.207C117.354,63.207 117.185,63.183 116.848,63.133C116.943,63.238 117.083,63.401 117.268,63.623C117.455,63.564 117.715,63.531 118.049,63.524L118.049,63.324C117.649,63.219 117.434,63.03 117.402,62.754C117.175,62.552 117.186,62.257 117.435,61.87C117.435,61.87 117.666,61.873 118.128,61.88ZM123.346,61.093L122.586,61.54C121.832,62.643 121.46,63.11 120.249,63.839C121.356,62.165 122.291,60.064 121.812,58.023C121.937,59.344 121.126,61.342 120.413,62.361C120.133,61.301 119.366,60.17 118.396,59.087C119.002,59.998 119.422,60.863 119.657,61.679C119.657,61.679 119.531,61.824 119.28,62.112C119.28,62.112 119.413,62.031 119.678,61.87C119.759,62.164 119.601,62.423 119.204,62.649C119.204,62.649 119.373,62.593 119.71,62.481C119.679,62.8 119.409,63.042 118.902,63.207C118.902,63.207 119.071,63.183 119.409,63.133C119.313,63.238 119.174,63.401 118.989,63.623C118.801,63.564 118.541,63.531 118.208,63.524L118.208,63.324C118.607,63.219 118.823,63.03 118.854,62.754C119.082,62.552 119.071,62.257 118.822,61.87C118.822,61.87 118.59,61.873 118.128,61.88L118.128,63.608C118.42,63.606 118.68,63.653 118.908,63.75C118.761,63.899 118.501,63.971 118.128,63.966L118.128,66.033C120.512,65.018 122.197,63.383 123.346,61.093Z"/>
        <path d="M112.578,74.125C111.563,74.346 110.639,74.636 109.886,74.998L109.886,69.561L126.37,69.561L126.37,74.998C125.618,74.636 124.694,74.346 123.678,74.125L123.678,74.951C121.964,74.578 119.988,74.399 118.128,74.399C116.269,74.399 114.292,74.578 112.578,74.951L112.578,74.125Z"/>
        <path d="M110.49,70.373C110.652,70.372 110.815,70.371 110.979,70.37C111.016,70.813 111.055,71.253 111.092,71.692C111.128,72.126 111.168,72.558 111.206,72.986L111.216,72.985C111.255,72.54 111.295,72.1 111.335,71.663C111.375,71.228 111.415,70.796 111.456,70.368C111.64,70.367 111.825,70.367 112.01,70.366C112.05,70.773 112.089,71.177 112.129,71.58C112.169,71.979 112.21,72.376 112.251,72.77L112.261,72.769C112.297,72.363 112.335,71.958 112.372,71.557C112.409,71.158 112.448,70.759 112.487,70.365C112.633,70.364 112.78,70.363 112.927,70.363C112.872,70.863 112.814,71.366 112.761,71.873C112.708,72.382 112.651,72.898 112.598,73.417C112.386,73.463 112.175,73.513 111.964,73.565C111.924,73.214 111.886,72.861 111.848,72.506C111.81,72.149 111.772,71.79 111.733,71.428L111.725,71.428C111.685,71.8 111.645,72.174 111.606,72.55C111.568,72.928 111.53,73.308 111.492,73.691C111.266,73.756 111.042,73.825 110.817,73.898C110.762,73.326 110.705,72.748 110.652,72.163C110.599,71.572 110.544,70.975 110.49,70.373ZM113.185,70.362C113.646,70.361 114.109,70.36 114.572,70.359L114.572,70.748C114.279,70.754 113.985,70.761 113.693,70.767L113.693,71.52C113.926,71.505 114.158,71.491 114.392,71.478C114.158,71.623 113.926,71.773 113.693,71.927L113.693,72.802C113.985,72.763 114.279,72.726 114.572,72.694L114.572,73.082C114.109,73.145 113.646,73.216 113.185,73.298L113.185,70.362ZM114.864,70.359C115.114,70.359 115.365,70.358 115.617,70.357C115.879,70.357 116.07,70.407 116.189,70.502C116.31,70.599 116.37,70.747 116.37,70.947L116.37,71.104C116.37,71.37 116.26,71.54 116.037,71.62L116.037,71.626C116.161,71.652 116.247,71.709 116.298,71.798C116.35,71.887 116.375,72.006 116.375,72.158L116.375,72.919C116.205,72.929 116.035,72.941 115.867,72.954C115.867,72.954 115.866,72.753 115.866,72.634L115.866,72.16C115.866,72.041 115.843,71.959 115.795,71.915C115.747,71.869 115.664,71.85 115.548,71.856L115.372,71.865L115.372,72.996C115.203,73.01 115.033,73.029 114.864,73.048L114.864,70.359ZM115.557,71.48L115.787,71.41C115.837,71.367 115.861,71.294 115.861,71.196L115.861,70.996C115.861,70.901 115.842,70.833 115.8,70.791L115.603,70.731L115.372,70.735L115.372,71.865C115.434,71.737 115.495,71.609 115.557,71.48ZM116.726,70.356L118.113,70.356L118.113,70.715C117.819,70.715 117.526,70.716 117.234,70.717L117.234,71.384C117.467,71.382 117.699,71.38 117.933,71.379C117.699,71.5 117.467,71.623 117.234,71.745L117.234,72.521C117.526,72.514 117.819,72.511 118.113,72.509L118.113,72.868C117.65,72.872 117.187,72.882 116.726,72.901L116.726,70.356ZM118.284,70.356L118.774,70.356C118.811,70.679 118.851,71.002 118.888,71.326C118.924,71.649 118.964,71.973 119.002,72.297L119.011,72.297C119.051,71.975 119.091,71.651 119.13,71.329C119.17,71.004 119.209,70.681 119.251,70.356C119.436,70.356 119.621,70.357 119.806,70.357C119.845,70.685 119.885,71.014 119.924,71.344C119.964,71.673 120.005,72.004 120.047,72.335L120.056,72.336C120.093,72.008 120.131,71.679 120.167,71.35C120.205,71.02 120.244,70.689 120.282,70.357C120.427,70.357 120.574,70.357 120.721,70.358C120.666,70.795 120.609,71.23 120.556,71.664C120.502,72.097 120.447,72.528 120.394,72.957C120.182,72.942 119.971,72.927 119.76,72.915C119.72,72.625 119.682,72.336 119.644,72.048C119.605,71.76 119.567,71.473 119.529,71.186L119.52,71.186C119.48,71.471 119.44,71.756 119.402,72.04C119.364,72.325 119.326,72.609 119.288,72.892C119.062,72.882 118.837,72.877 118.612,72.872C118.557,72.453 118.501,72.033 118.447,71.614C118.394,71.195 118.338,70.775 118.284,70.356ZM121.715,73.133C121.466,73.1 121.276,73.021 121.142,72.889C121.01,72.759 120.944,72.59 120.944,72.378L120.944,70.986C120.944,70.774 121.01,70.612 121.142,70.496C121.276,70.379 121.466,70.32 121.715,70.32C121.966,70.32 122.157,70.381 122.288,70.505C122.421,70.63 122.488,70.808 122.488,71.036L122.488,72.532C122.488,72.758 122.421,72.925 122.288,73.03C122.157,73.134 121.966,73.165 121.715,73.133ZM121.715,72.743C121.891,72.763 121.979,72.682 121.979,72.499L121.979,70.989C121.979,70.807 121.891,70.714 121.715,70.711C121.54,70.707 121.452,70.795 121.452,70.973L121.452,72.448C121.452,72.625 121.54,72.723 121.715,72.743ZM122.83,70.362C123,70.362 123.169,70.363 123.339,70.363L123.339,72.932C123.617,72.982 123.895,73.035 124.175,73.092C124.109,73.229 124.043,73.365 123.978,73.498C123.594,73.413 123.212,73.335 122.83,73.264L122.83,70.362ZM124.421,70.367C124.868,70.369 125.317,70.37 125.766,70.373L125.766,70.893C125.487,70.878 125.208,70.865 124.929,70.851L124.929,71.793C125.147,71.823 125.366,71.851 125.584,71.883C125.366,72.019 125.147,72.151 124.929,72.276L124.929,73.749C124.76,73.701 124.59,73.655 124.421,73.608L124.421,70.367Z" style="fill:white;fill-rule:nonzero;"/>
        <path d="M110.924,70.424C110.801,70.425 110.678,70.426 110.554,70.426C110.605,71.004 110.658,71.581 110.711,72.158C110.761,72.713 110.815,73.268 110.869,73.823C111.058,73.763 111.247,73.705 111.437,73.65C111.474,73.281 111.511,72.913 111.548,72.544C111.586,72.17 111.625,71.797 111.666,71.423L111.67,71.38L111.717,71.374L111.786,71.367L111.792,71.422C111.83,71.782 111.868,72.141 111.907,72.5C111.934,72.753 111.961,73.005 111.989,73.257C112.168,73.003 112.276,72.822 112.276,72.822L112.259,72.825L112.199,72.832L112.192,72.776C112.151,72.378 112.11,71.982 112.07,71.584C112.032,71.197 111.994,70.809 111.956,70.42C111.807,70.421 111.658,70.422 111.51,70.422C111.47,70.837 111.432,71.252 111.394,71.667C111.354,72.108 111.314,72.548 111.274,72.989L111.27,73.04L111.214,73.04L111.153,73.048L111.147,72.991C111.109,72.559 111.069,72.127 111.033,71.696C110.998,71.272 110.959,70.849 110.924,70.424ZM112.587,72.959C112.625,72.595 112.665,72.231 112.703,71.867C112.754,71.384 112.808,70.901 112.861,70.417C112.754,70.418 112.647,70.418 112.541,70.419C112.504,70.799 112.466,71.18 112.431,71.561C112.394,71.965 112.355,72.37 112.319,72.773L112.316,72.812L112.276,72.822C112.276,72.822 112.387,72.875 112.587,72.959ZM113.244,70.814C113.615,71.873 113.29,71.976 113.635,72.311L113.635,72.865L113.702,72.856C113.972,72.821 114.242,72.787 114.513,72.755L114.513,73.036C114.101,73.092 113.691,73.155 113.282,73.225L113.244,73.211L113.244,70.814ZM114.923,72.227C115.048,72.192 115.179,72.153 115.313,72.112L115.313,72.946C115.183,72.957 115.053,72.972 114.923,72.987L114.923,72.227ZM115.877,71.927C115.996,71.887 116.115,71.845 116.233,71.804L116.246,71.824C116.302,71.921 116.315,72.048 116.315,72.158L116.315,72.868C116.186,72.875 116.056,72.884 115.926,72.894L115.925,72.634L115.925,72.16L115.877,71.927ZM116.785,71.603C116.936,71.547 117.082,71.493 117.22,71.44L117.235,71.439C117.392,71.438 117.548,71.436 117.704,71.436C117.538,71.522 117.372,71.61 117.206,71.698L117.175,71.713L117.175,71.926L116.785,72.236L116.785,72.843C117.208,72.828 117.631,72.817 118.054,72.814L118.054,72.565C117.781,72.567 117.509,72.57 117.236,72.576L117.175,72.577L117.175,72.181C116.93,72.217 116.785,72.236 116.785,72.236L116.785,71.603ZM118.55,71.952C118.662,71.93 118.777,71.908 118.894,71.884C118.91,72.024 118.927,72.164 118.943,72.303L118.949,72.345L118.994,72.351L119.011,72.352L119.063,72.352L119.07,72.303L119.127,71.836L119.377,71.784L119.344,72.034C119.308,72.301 119.271,72.568 119.236,72.835C119.045,72.828 118.855,72.823 118.665,72.819C118.627,72.529 118.588,72.24 118.55,71.952ZM119.66,71.72L119.904,71.663C119.932,71.889 119.96,72.116 119.988,72.342L119.994,72.39L120.046,72.39L120.056,72.391L120.109,72.391L120.115,72.341C120.143,72.091 120.171,71.84 120.2,71.589C120.306,71.562 120.412,71.534 120.516,71.504L120.497,71.658C120.446,72.072 120.393,72.485 120.341,72.898C120.166,72.885 119.989,72.873 119.812,72.863C119.774,72.589 119.738,72.315 119.702,72.041L119.66,71.72ZM121.003,71.361C121.137,71.318 121.268,71.274 121.393,71.229L121.393,72.448C121.393,72.54 121.416,72.617 121.461,72.675C121.375,72.729 121.279,72.785 121.175,72.841C121.049,72.711 121.003,72.551 121.003,72.378L121.003,71.361ZM122.038,70.961C122.161,70.903 122.281,70.845 122.395,70.789L122.429,71.036L122.429,72.478C122.303,72.202 122.232,72.029 122.232,72.029C122.232,72.029 122.18,72.11 122.039,72.244L122.039,70.989L122.038,70.961ZM122.889,70.539L123.118,70.417L123.28,70.417L123.28,72.977L123.328,72.986C123.583,73.031 123.837,73.08 124.091,73.131C124.042,73.233 123.994,73.333 123.944,73.434C123.594,73.357 123.242,73.286 122.889,73.219L122.889,70.539ZM124.479,70.421L124.479,73.567C124.61,73.603 124.74,73.638 124.87,73.675L124.87,72.246L124.898,72.23C125.076,72.127 125.251,72.023 125.425,71.916C125.257,71.892 125.089,71.87 124.921,71.848L124.87,71.841L124.87,70.793L124.932,70.796C125.19,70.809 125.449,70.822 125.707,70.835L125.707,70.426C125.298,70.424 124.889,70.423 124.479,70.421Z" style="fill:rgb(182,189,205);"/>
        <path d="M112.851,62.722C112.558,62.156 112.34,61.538 112.197,60.871C111.608,61.195 110.982,61.459 110.32,61.661C110.087,63.602 110.458,65.434 111.217,67.136C111.196,65.606 111.564,64.227 112.322,63L112.851,62.722Z" style="fill:white;"/>
        <path d="M110.567,61.901C110.542,62.104 110.527,62.316 110.521,62.538L111.782,63.346C111.875,63.186 111.976,63.032 112.085,62.882C112.085,62.882 111.579,62.555 110.567,61.901ZM110.525,63.069C110.56,63.912 110.717,64.875 110.999,65.959C111.066,65.14 111.257,64.401 111.573,63.741L110.525,63.069Z" style="fill:rgb(119,130,152);"/>
        <path d="M123.406,62.722C123.698,62.156 123.917,61.538 124.06,60.871C124.649,61.195 125.274,61.459 125.937,61.661C126.169,63.602 125.798,65.434 125.04,67.136C125.061,65.606 124.692,64.227 123.935,63L123.406,62.722Z" style="fill:white;"/>
        <path d="M125.689,61.901C125.714,62.104 125.73,62.316 125.735,62.538L124.475,63.346C124.382,63.186 124.28,63.032 124.171,62.882C124.171,62.882 124.678,62.555 125.689,61.901ZM125.731,63.069C125.697,63.912 125.54,64.875 125.257,65.959C125.19,65.14 124.999,64.401 124.684,63.741L125.731,63.069Z" style="fill:rgb(119,130,152);"/>
        <path d="M118.128,75.275C117.728,75.177 117.294,74.921 116.828,74.508L117.262,74.355C116.945,74.37 116.628,74.391 116.312,74.42C116.924,74.996 117.53,75.503 118.128,75.945L118.128,75.275Z" style="fill:white;"/>
        <path d="M118.128,75.275C118.529,75.177 118.963,74.921 119.429,74.508L118.995,74.355C119.312,74.37 119.628,74.391 119.944,74.42C119.332,74.996 118.727,75.503 118.128,75.945L118.128,75.275Z" style="fill:rgb(119,130,152);"/>
    </g>
</svg>
